G04 #@! TF.GenerationSoftware,KiCad,Pcbnew,(5.0.1)-4*
G04 #@! TF.CreationDate,2019-01-08T00:24:24+01:00*
G04 #@! TF.ProjectId,1U ADSR,315520414453522E6B696361645F7063,rev?*
G04 #@! TF.SameCoordinates,Original*
G04 #@! TF.FileFunction,Soldermask,Top*
G04 #@! TF.FilePolarity,Negative*
%FSLAX46Y46*%
G04 Gerber Fmt 4.6, Leading zero omitted, Abs format (unit mm)*
G04 Created by KiCad (PCBNEW (5.0.1)-4) date 01/08/19 00:24:24*
%MOMM*%
%LPD*%
G01*
G04 APERTURE LIST*
%ADD10C,0.100000*%
G04 APERTURE END LIST*
D10*
G36*
X60113530Y-58004877D02*
X60165010Y-58020493D01*
X60212442Y-58045846D01*
X60254027Y-58079973D01*
X60288154Y-58121558D01*
X60313507Y-58168990D01*
X60329123Y-58220470D01*
X60335000Y-58280140D01*
X60335000Y-59067860D01*
X60329123Y-59127530D01*
X60313507Y-59179010D01*
X60288154Y-59226442D01*
X60254027Y-59268027D01*
X60212442Y-59302154D01*
X60165010Y-59327507D01*
X60113530Y-59343123D01*
X60053860Y-59349000D01*
X59166140Y-59349000D01*
X59106470Y-59343123D01*
X59054990Y-59327507D01*
X59007558Y-59302154D01*
X58965973Y-59268027D01*
X58931846Y-59226442D01*
X58906493Y-59179010D01*
X58890877Y-59127530D01*
X58885000Y-59067860D01*
X58885000Y-58280140D01*
X58890877Y-58220470D01*
X58906493Y-58168990D01*
X58931846Y-58121558D01*
X58965973Y-58079973D01*
X59007558Y-58045846D01*
X59054990Y-58020493D01*
X59106470Y-58004877D01*
X59166140Y-57999000D01*
X60053860Y-57999000D01*
X60113530Y-58004877D01*
X60113530Y-58004877D01*
G37*
G36*
X58363530Y-58004877D02*
X58415010Y-58020493D01*
X58462442Y-58045846D01*
X58504027Y-58079973D01*
X58538154Y-58121558D01*
X58563507Y-58168990D01*
X58579123Y-58220470D01*
X58585000Y-58280140D01*
X58585000Y-59067860D01*
X58579123Y-59127530D01*
X58563507Y-59179010D01*
X58538154Y-59226442D01*
X58504027Y-59268027D01*
X58462442Y-59302154D01*
X58415010Y-59327507D01*
X58363530Y-59343123D01*
X58303860Y-59349000D01*
X57416140Y-59349000D01*
X57356470Y-59343123D01*
X57304990Y-59327507D01*
X57257558Y-59302154D01*
X57215973Y-59268027D01*
X57181846Y-59226442D01*
X57156493Y-59179010D01*
X57140877Y-59127530D01*
X57135000Y-59067860D01*
X57135000Y-58280140D01*
X57140877Y-58220470D01*
X57156493Y-58168990D01*
X57181846Y-58121558D01*
X57215973Y-58079973D01*
X57257558Y-58045846D01*
X57304990Y-58020493D01*
X57356470Y-58004877D01*
X57416140Y-57999000D01*
X58303860Y-57999000D01*
X58363530Y-58004877D01*
X58363530Y-58004877D01*
G37*
G36*
X66844000Y-59271500D02*
X65544000Y-59271500D01*
X65544000Y-58071500D01*
X66844000Y-58071500D01*
X66844000Y-59271500D01*
X66844000Y-59271500D01*
G37*
G36*
X41284530Y-57834877D02*
X41336010Y-57850493D01*
X41383442Y-57875846D01*
X41425027Y-57909973D01*
X41459154Y-57951558D01*
X41484507Y-57998990D01*
X41500123Y-58050470D01*
X41506000Y-58110140D01*
X41506000Y-58897860D01*
X41500123Y-58957530D01*
X41484507Y-59009010D01*
X41459154Y-59056442D01*
X41425027Y-59098027D01*
X41383442Y-59132154D01*
X41336010Y-59157507D01*
X41284530Y-59173123D01*
X41224860Y-59179000D01*
X40337140Y-59179000D01*
X40277470Y-59173123D01*
X40225990Y-59157507D01*
X40178558Y-59132154D01*
X40136973Y-59098027D01*
X40102846Y-59056442D01*
X40077493Y-59009010D01*
X40061877Y-58957530D01*
X40056000Y-58897860D01*
X40056000Y-58110140D01*
X40061877Y-58050470D01*
X40077493Y-57998990D01*
X40102846Y-57951558D01*
X40136973Y-57909973D01*
X40178558Y-57875846D01*
X40225990Y-57850493D01*
X40277470Y-57834877D01*
X40337140Y-57829000D01*
X41224860Y-57829000D01*
X41284530Y-57834877D01*
X41284530Y-57834877D01*
G37*
G36*
X43034530Y-57834877D02*
X43086010Y-57850493D01*
X43133442Y-57875846D01*
X43175027Y-57909973D01*
X43209154Y-57951558D01*
X43234507Y-57998990D01*
X43250123Y-58050470D01*
X43256000Y-58110140D01*
X43256000Y-58897860D01*
X43250123Y-58957530D01*
X43234507Y-59009010D01*
X43209154Y-59056442D01*
X43175027Y-59098027D01*
X43133442Y-59132154D01*
X43086010Y-59157507D01*
X43034530Y-59173123D01*
X42974860Y-59179000D01*
X42087140Y-59179000D01*
X42027470Y-59173123D01*
X41975990Y-59157507D01*
X41928558Y-59132154D01*
X41886973Y-59098027D01*
X41852846Y-59056442D01*
X41827493Y-59009010D01*
X41811877Y-58957530D01*
X41806000Y-58897860D01*
X41806000Y-58110140D01*
X41811877Y-58050470D01*
X41827493Y-57998990D01*
X41852846Y-57951558D01*
X41886973Y-57909973D01*
X41928558Y-57875846D01*
X41975990Y-57850493D01*
X42027470Y-57834877D01*
X42087140Y-57829000D01*
X42974860Y-57829000D01*
X43034530Y-57834877D01*
X43034530Y-57834877D01*
G37*
G36*
X53713000Y-58793000D02*
X51763000Y-58793000D01*
X51763000Y-57793000D01*
X53713000Y-57793000D01*
X53713000Y-58793000D01*
X53713000Y-58793000D01*
G37*
G36*
X48313000Y-58793000D02*
X46363000Y-58793000D01*
X46363000Y-57793000D01*
X48313000Y-57793000D01*
X48313000Y-58793000D01*
X48313000Y-58793000D01*
G37*
G36*
X64844000Y-58321500D02*
X63544000Y-58321500D01*
X63544000Y-57121500D01*
X64844000Y-57121500D01*
X64844000Y-58321500D01*
X64844000Y-58321500D01*
G37*
G36*
X48313000Y-57523000D02*
X46363000Y-57523000D01*
X46363000Y-56523000D01*
X48313000Y-56523000D01*
X48313000Y-57523000D01*
X48313000Y-57523000D01*
G37*
G36*
X53713000Y-57523000D02*
X51763000Y-57523000D01*
X51763000Y-56523000D01*
X53713000Y-56523000D01*
X53713000Y-57523000D01*
X53713000Y-57523000D01*
G37*
G36*
X66844000Y-57371500D02*
X65544000Y-57371500D01*
X65544000Y-56171500D01*
X66844000Y-56171500D01*
X66844000Y-57371500D01*
X66844000Y-57371500D01*
G37*
G36*
X58368530Y-55305377D02*
X58420010Y-55320993D01*
X58467442Y-55346346D01*
X58509027Y-55380473D01*
X58543154Y-55422058D01*
X58568507Y-55469490D01*
X58584123Y-55520970D01*
X58590000Y-55580640D01*
X58590000Y-56368360D01*
X58584123Y-56428030D01*
X58568507Y-56479510D01*
X58543154Y-56526942D01*
X58509027Y-56568527D01*
X58467442Y-56602654D01*
X58420010Y-56628007D01*
X58368530Y-56643623D01*
X58308860Y-56649500D01*
X57421140Y-56649500D01*
X57361470Y-56643623D01*
X57309990Y-56628007D01*
X57262558Y-56602654D01*
X57220973Y-56568527D01*
X57186846Y-56526942D01*
X57161493Y-56479510D01*
X57145877Y-56428030D01*
X57140000Y-56368360D01*
X57140000Y-55580640D01*
X57145877Y-55520970D01*
X57161493Y-55469490D01*
X57186846Y-55422058D01*
X57220973Y-55380473D01*
X57262558Y-55346346D01*
X57309990Y-55320993D01*
X57361470Y-55305377D01*
X57421140Y-55299500D01*
X58308860Y-55299500D01*
X58368530Y-55305377D01*
X58368530Y-55305377D01*
G37*
G36*
X60118530Y-55305377D02*
X60170010Y-55320993D01*
X60217442Y-55346346D01*
X60259027Y-55380473D01*
X60293154Y-55422058D01*
X60318507Y-55469490D01*
X60334123Y-55520970D01*
X60340000Y-55580640D01*
X60340000Y-56368360D01*
X60334123Y-56428030D01*
X60318507Y-56479510D01*
X60293154Y-56526942D01*
X60259027Y-56568527D01*
X60217442Y-56602654D01*
X60170010Y-56628007D01*
X60118530Y-56643623D01*
X60058860Y-56649500D01*
X59171140Y-56649500D01*
X59111470Y-56643623D01*
X59059990Y-56628007D01*
X59012558Y-56602654D01*
X58970973Y-56568527D01*
X58936846Y-56526942D01*
X58911493Y-56479510D01*
X58895877Y-56428030D01*
X58890000Y-56368360D01*
X58890000Y-55580640D01*
X58895877Y-55520970D01*
X58911493Y-55469490D01*
X58936846Y-55422058D01*
X58970973Y-55380473D01*
X59012558Y-55346346D01*
X59059990Y-55320993D01*
X59111470Y-55305377D01*
X59171140Y-55299500D01*
X60058860Y-55299500D01*
X60118530Y-55305377D01*
X60118530Y-55305377D01*
G37*
G36*
X34786383Y-54194772D02*
X34985150Y-54277104D01*
X35164039Y-54396634D01*
X35316166Y-54548761D01*
X35435696Y-54727650D01*
X35518028Y-54926417D01*
X35551702Y-55095709D01*
X35558815Y-55119158D01*
X35570366Y-55140769D01*
X35585912Y-55159711D01*
X35604854Y-55175257D01*
X35626464Y-55186808D01*
X35649914Y-55193921D01*
X35674300Y-55196323D01*
X35698686Y-55193921D01*
X35722135Y-55186808D01*
X35743746Y-55175257D01*
X35762688Y-55159711D01*
X35778234Y-55140769D01*
X35789785Y-55119159D01*
X35796898Y-55095709D01*
X35830572Y-54926417D01*
X35912904Y-54727650D01*
X36032434Y-54548761D01*
X36184561Y-54396634D01*
X36363450Y-54277104D01*
X36562217Y-54194772D01*
X36773226Y-54152800D01*
X36988374Y-54152800D01*
X37199383Y-54194772D01*
X37398150Y-54277104D01*
X37577039Y-54396634D01*
X37729166Y-54548761D01*
X37848696Y-54727650D01*
X37931028Y-54926417D01*
X37973000Y-55137426D01*
X37973000Y-55352574D01*
X37931028Y-55563583D01*
X37848696Y-55762350D01*
X37729166Y-55941239D01*
X37577039Y-56093366D01*
X37398150Y-56212896D01*
X37199383Y-56295228D01*
X36988374Y-56337200D01*
X36773226Y-56337200D01*
X36562217Y-56295228D01*
X36363450Y-56212896D01*
X36184561Y-56093366D01*
X36032434Y-55941239D01*
X35912904Y-55762350D01*
X35830572Y-55563583D01*
X35796898Y-55394291D01*
X35789785Y-55370842D01*
X35778234Y-55349231D01*
X35762688Y-55330289D01*
X35743746Y-55314743D01*
X35722136Y-55303192D01*
X35698686Y-55296079D01*
X35674300Y-55293677D01*
X35649914Y-55296079D01*
X35626465Y-55303192D01*
X35604854Y-55314743D01*
X35585912Y-55330289D01*
X35570366Y-55349231D01*
X35558815Y-55370841D01*
X35551702Y-55394291D01*
X35518028Y-55563583D01*
X35435696Y-55762350D01*
X35316166Y-55941239D01*
X35164039Y-56093366D01*
X34985150Y-56212896D01*
X34786383Y-56295228D01*
X34575374Y-56337200D01*
X34360226Y-56337200D01*
X34149217Y-56295228D01*
X33950450Y-56212896D01*
X33771561Y-56093366D01*
X33619434Y-55941239D01*
X33499904Y-55762350D01*
X33417572Y-55563583D01*
X33375600Y-55352574D01*
X33375600Y-55137426D01*
X33417572Y-54926417D01*
X33499904Y-54727650D01*
X33619434Y-54548761D01*
X33771561Y-54396634D01*
X33950450Y-54277104D01*
X34149217Y-54194772D01*
X34360226Y-54152800D01*
X34575374Y-54152800D01*
X34786383Y-54194772D01*
X34786383Y-54194772D01*
G37*
G36*
X26226583Y-54194772D02*
X26425350Y-54277104D01*
X26604239Y-54396634D01*
X26756366Y-54548761D01*
X26875896Y-54727650D01*
X26958228Y-54926417D01*
X27000200Y-55137426D01*
X27000200Y-55352574D01*
X26958228Y-55563583D01*
X26875896Y-55762350D01*
X26756366Y-55941239D01*
X26604239Y-56093366D01*
X26425350Y-56212896D01*
X26226583Y-56295228D01*
X26015574Y-56337200D01*
X25800426Y-56337200D01*
X25589417Y-56295228D01*
X25390650Y-56212896D01*
X25211761Y-56093366D01*
X25059634Y-55941239D01*
X24940104Y-55762350D01*
X24857772Y-55563583D01*
X24815800Y-55352574D01*
X24815800Y-55137426D01*
X24857772Y-54926417D01*
X24940104Y-54727650D01*
X25059634Y-54548761D01*
X25211761Y-54396634D01*
X25390650Y-54277104D01*
X25589417Y-54194772D01*
X25800426Y-54152800D01*
X26015574Y-54152800D01*
X26226583Y-54194772D01*
X26226583Y-54194772D01*
G37*
G36*
X81090583Y-54194772D02*
X81289350Y-54277104D01*
X81468239Y-54396634D01*
X81620366Y-54548761D01*
X81739896Y-54727650D01*
X81822228Y-54926417D01*
X81864200Y-55137426D01*
X81864200Y-55352574D01*
X81822228Y-55563583D01*
X81739896Y-55762350D01*
X81620366Y-55941239D01*
X81468239Y-56093366D01*
X81289350Y-56212896D01*
X81090583Y-56295228D01*
X80879574Y-56337200D01*
X80664426Y-56337200D01*
X80453417Y-56295228D01*
X80254650Y-56212896D01*
X80075761Y-56093366D01*
X79923634Y-55941239D01*
X79804104Y-55762350D01*
X79721772Y-55563583D01*
X79679800Y-55352574D01*
X79679800Y-55137426D01*
X79721772Y-54926417D01*
X79804104Y-54727650D01*
X79923634Y-54548761D01*
X80075761Y-54396634D01*
X80254650Y-54277104D01*
X80453417Y-54194772D01*
X80664426Y-54152800D01*
X80879574Y-54152800D01*
X81090583Y-54194772D01*
X81090583Y-54194772D01*
G37*
G36*
X70117783Y-54194772D02*
X70316550Y-54277104D01*
X70495439Y-54396634D01*
X70647566Y-54548761D01*
X70767096Y-54727650D01*
X70849428Y-54926417D01*
X70883102Y-55095709D01*
X70890215Y-55119158D01*
X70901766Y-55140769D01*
X70917312Y-55159711D01*
X70936254Y-55175257D01*
X70957864Y-55186808D01*
X70981314Y-55193921D01*
X71005700Y-55196323D01*
X71030086Y-55193921D01*
X71053535Y-55186808D01*
X71075146Y-55175257D01*
X71094088Y-55159711D01*
X71109634Y-55140769D01*
X71121185Y-55119159D01*
X71128298Y-55095709D01*
X71161972Y-54926417D01*
X71244304Y-54727650D01*
X71363834Y-54548761D01*
X71515961Y-54396634D01*
X71694850Y-54277104D01*
X71893617Y-54194772D01*
X72104626Y-54152800D01*
X72319774Y-54152800D01*
X72530783Y-54194772D01*
X72729550Y-54277104D01*
X72908439Y-54396634D01*
X73060566Y-54548761D01*
X73180096Y-54727650D01*
X73262428Y-54926417D01*
X73304400Y-55137426D01*
X73304400Y-55352574D01*
X73262428Y-55563583D01*
X73180096Y-55762350D01*
X73060566Y-55941239D01*
X72908439Y-56093366D01*
X72729550Y-56212896D01*
X72530783Y-56295228D01*
X72319774Y-56337200D01*
X72104626Y-56337200D01*
X71893617Y-56295228D01*
X71694850Y-56212896D01*
X71515961Y-56093366D01*
X71363834Y-55941239D01*
X71244304Y-55762350D01*
X71161972Y-55563583D01*
X71128298Y-55394291D01*
X71121185Y-55370842D01*
X71109634Y-55349231D01*
X71094088Y-55330289D01*
X71075146Y-55314743D01*
X71053536Y-55303192D01*
X71030086Y-55296079D01*
X71005700Y-55293677D01*
X70981314Y-55296079D01*
X70957865Y-55303192D01*
X70936254Y-55314743D01*
X70917312Y-55330289D01*
X70901766Y-55349231D01*
X70890215Y-55370841D01*
X70883102Y-55394291D01*
X70849428Y-55563583D01*
X70767096Y-55762350D01*
X70647566Y-55941239D01*
X70495439Y-56093366D01*
X70316550Y-56212896D01*
X70117783Y-56295228D01*
X69906774Y-56337200D01*
X69691626Y-56337200D01*
X69480617Y-56295228D01*
X69281850Y-56212896D01*
X69102961Y-56093366D01*
X68950834Y-55941239D01*
X68831304Y-55762350D01*
X68748972Y-55563583D01*
X68707000Y-55352574D01*
X68707000Y-55137426D01*
X68748972Y-54926417D01*
X68831304Y-54727650D01*
X68950834Y-54548761D01*
X69102961Y-54396634D01*
X69281850Y-54277104D01*
X69480617Y-54194772D01*
X69691626Y-54152800D01*
X69906774Y-54152800D01*
X70117783Y-54194772D01*
X70117783Y-54194772D01*
G37*
G36*
X48313000Y-56253000D02*
X46363000Y-56253000D01*
X46363000Y-55253000D01*
X48313000Y-55253000D01*
X48313000Y-56253000D01*
X48313000Y-56253000D01*
G37*
G36*
X53713000Y-56253000D02*
X51763000Y-56253000D01*
X51763000Y-55253000D01*
X53713000Y-55253000D01*
X53713000Y-56253000D01*
X53713000Y-56253000D01*
G37*
G36*
X43034530Y-54702877D02*
X43086010Y-54718493D01*
X43133442Y-54743846D01*
X43175027Y-54777973D01*
X43209154Y-54819558D01*
X43234507Y-54866990D01*
X43250123Y-54918470D01*
X43256000Y-54978140D01*
X43256000Y-55765860D01*
X43250123Y-55825530D01*
X43234507Y-55877010D01*
X43209154Y-55924442D01*
X43175027Y-55966027D01*
X43133442Y-56000154D01*
X43086010Y-56025507D01*
X43034530Y-56041123D01*
X42974860Y-56047000D01*
X42087140Y-56047000D01*
X42027470Y-56041123D01*
X41975990Y-56025507D01*
X41928558Y-56000154D01*
X41886973Y-55966027D01*
X41852846Y-55924442D01*
X41827493Y-55877010D01*
X41811877Y-55825530D01*
X41806000Y-55765860D01*
X41806000Y-54978140D01*
X41811877Y-54918470D01*
X41827493Y-54866990D01*
X41852846Y-54819558D01*
X41886973Y-54777973D01*
X41928558Y-54743846D01*
X41975990Y-54718493D01*
X42027470Y-54702877D01*
X42087140Y-54697000D01*
X42974860Y-54697000D01*
X43034530Y-54702877D01*
X43034530Y-54702877D01*
G37*
G36*
X41284530Y-54702877D02*
X41336010Y-54718493D01*
X41383442Y-54743846D01*
X41425027Y-54777973D01*
X41459154Y-54819558D01*
X41484507Y-54866990D01*
X41500123Y-54918470D01*
X41506000Y-54978140D01*
X41506000Y-55765860D01*
X41500123Y-55825530D01*
X41484507Y-55877010D01*
X41459154Y-55924442D01*
X41425027Y-55966027D01*
X41383442Y-56000154D01*
X41336010Y-56025507D01*
X41284530Y-56041123D01*
X41224860Y-56047000D01*
X40337140Y-56047000D01*
X40277470Y-56041123D01*
X40225990Y-56025507D01*
X40178558Y-56000154D01*
X40136973Y-55966027D01*
X40102846Y-55924442D01*
X40077493Y-55877010D01*
X40061877Y-55825530D01*
X40056000Y-55765860D01*
X40056000Y-54978140D01*
X40061877Y-54918470D01*
X40077493Y-54866990D01*
X40102846Y-54819558D01*
X40136973Y-54777973D01*
X40178558Y-54743846D01*
X40225990Y-54718493D01*
X40277470Y-54702877D01*
X40337140Y-54697000D01*
X41224860Y-54697000D01*
X41284530Y-54702877D01*
X41284530Y-54702877D01*
G37*
G36*
X53713000Y-54983000D02*
X51763000Y-54983000D01*
X51763000Y-53983000D01*
X53713000Y-53983000D01*
X53713000Y-54983000D01*
X53713000Y-54983000D01*
G37*
G36*
X48313000Y-54983000D02*
X46363000Y-54983000D01*
X46363000Y-53983000D01*
X48313000Y-53983000D01*
X48313000Y-54983000D01*
X48313000Y-54983000D01*
G37*
G36*
X66928000Y-54890000D02*
X65628000Y-54890000D01*
X65628000Y-53690000D01*
X66928000Y-53690000D01*
X66928000Y-54890000D01*
X66928000Y-54890000D01*
G37*
G36*
X58368530Y-52670877D02*
X58420010Y-52686493D01*
X58467442Y-52711846D01*
X58509027Y-52745973D01*
X58543154Y-52787558D01*
X58568507Y-52834990D01*
X58584123Y-52886470D01*
X58590000Y-52946140D01*
X58590000Y-53733860D01*
X58584123Y-53793530D01*
X58568507Y-53845010D01*
X58543154Y-53892442D01*
X58509027Y-53934027D01*
X58467442Y-53968154D01*
X58420010Y-53993507D01*
X58368530Y-54009123D01*
X58308860Y-54015000D01*
X57421140Y-54015000D01*
X57361470Y-54009123D01*
X57309990Y-53993507D01*
X57262558Y-53968154D01*
X57220973Y-53934027D01*
X57186846Y-53892442D01*
X57161493Y-53845010D01*
X57145877Y-53793530D01*
X57140000Y-53733860D01*
X57140000Y-52946140D01*
X57145877Y-52886470D01*
X57161493Y-52834990D01*
X57186846Y-52787558D01*
X57220973Y-52745973D01*
X57262558Y-52711846D01*
X57309990Y-52686493D01*
X57361470Y-52670877D01*
X57421140Y-52665000D01*
X58308860Y-52665000D01*
X58368530Y-52670877D01*
X58368530Y-52670877D01*
G37*
G36*
X60118530Y-52670877D02*
X60170010Y-52686493D01*
X60217442Y-52711846D01*
X60259027Y-52745973D01*
X60293154Y-52787558D01*
X60318507Y-52834990D01*
X60334123Y-52886470D01*
X60340000Y-52946140D01*
X60340000Y-53733860D01*
X60334123Y-53793530D01*
X60318507Y-53845010D01*
X60293154Y-53892442D01*
X60259027Y-53934027D01*
X60217442Y-53968154D01*
X60170010Y-53993507D01*
X60118530Y-54009123D01*
X60058860Y-54015000D01*
X59171140Y-54015000D01*
X59111470Y-54009123D01*
X59059990Y-53993507D01*
X59012558Y-53968154D01*
X58970973Y-53934027D01*
X58936846Y-53892442D01*
X58911493Y-53845010D01*
X58895877Y-53793530D01*
X58890000Y-53733860D01*
X58890000Y-52946140D01*
X58895877Y-52886470D01*
X58911493Y-52834990D01*
X58936846Y-52787558D01*
X58970973Y-52745973D01*
X59012558Y-52711846D01*
X59059990Y-52686493D01*
X59111470Y-52670877D01*
X59171140Y-52665000D01*
X60058860Y-52665000D01*
X60118530Y-52670877D01*
X60118530Y-52670877D01*
G37*
G36*
X64928000Y-53940000D02*
X63628000Y-53940000D01*
X63628000Y-52740000D01*
X64928000Y-52740000D01*
X64928000Y-53940000D01*
X64928000Y-53940000D01*
G37*
G36*
X72074530Y-51654877D02*
X72126010Y-51670493D01*
X72173442Y-51695846D01*
X72215027Y-51729973D01*
X72249154Y-51771558D01*
X72274507Y-51818990D01*
X72290123Y-51870470D01*
X72296000Y-51930140D01*
X72296000Y-52717860D01*
X72290123Y-52777530D01*
X72274507Y-52829010D01*
X72249154Y-52876442D01*
X72215027Y-52918027D01*
X72173442Y-52952154D01*
X72126010Y-52977507D01*
X72074530Y-52993123D01*
X72014860Y-52999000D01*
X71127140Y-52999000D01*
X71067470Y-52993123D01*
X71015990Y-52977507D01*
X70968558Y-52952154D01*
X70926973Y-52918027D01*
X70892846Y-52876442D01*
X70867493Y-52829010D01*
X70851877Y-52777530D01*
X70846000Y-52717860D01*
X70846000Y-51930140D01*
X70851877Y-51870470D01*
X70867493Y-51818990D01*
X70892846Y-51771558D01*
X70926973Y-51729973D01*
X70968558Y-51695846D01*
X71015990Y-51670493D01*
X71067470Y-51654877D01*
X71127140Y-51649000D01*
X72014860Y-51649000D01*
X72074530Y-51654877D01*
X72074530Y-51654877D01*
G37*
G36*
X70324530Y-51654877D02*
X70376010Y-51670493D01*
X70423442Y-51695846D01*
X70465027Y-51729973D01*
X70499154Y-51771558D01*
X70524507Y-51818990D01*
X70540123Y-51870470D01*
X70546000Y-51930140D01*
X70546000Y-52717860D01*
X70540123Y-52777530D01*
X70524507Y-52829010D01*
X70499154Y-52876442D01*
X70465027Y-52918027D01*
X70423442Y-52952154D01*
X70376010Y-52977507D01*
X70324530Y-52993123D01*
X70264860Y-52999000D01*
X69377140Y-52999000D01*
X69317470Y-52993123D01*
X69265990Y-52977507D01*
X69218558Y-52952154D01*
X69176973Y-52918027D01*
X69142846Y-52876442D01*
X69117493Y-52829010D01*
X69101877Y-52777530D01*
X69096000Y-52717860D01*
X69096000Y-51930140D01*
X69101877Y-51870470D01*
X69117493Y-51818990D01*
X69142846Y-51771558D01*
X69176973Y-51729973D01*
X69218558Y-51695846D01*
X69265990Y-51670493D01*
X69317470Y-51654877D01*
X69377140Y-51649000D01*
X70264860Y-51649000D01*
X70324530Y-51654877D01*
X70324530Y-51654877D01*
G37*
G36*
X66928000Y-52990000D02*
X65628000Y-52990000D01*
X65628000Y-51790000D01*
X66928000Y-51790000D01*
X66928000Y-52990000D01*
X66928000Y-52990000D01*
G37*
G36*
X32582530Y-50892877D02*
X32634010Y-50908493D01*
X32681442Y-50933846D01*
X32723027Y-50967973D01*
X32757154Y-51009558D01*
X32782507Y-51056990D01*
X32798123Y-51108470D01*
X32804000Y-51168140D01*
X32804000Y-51955860D01*
X32798123Y-52015530D01*
X32782507Y-52067010D01*
X32757154Y-52114442D01*
X32723027Y-52156027D01*
X32681442Y-52190154D01*
X32634010Y-52215507D01*
X32582530Y-52231123D01*
X32522860Y-52237000D01*
X31635140Y-52237000D01*
X31575470Y-52231123D01*
X31523990Y-52215507D01*
X31476558Y-52190154D01*
X31434973Y-52156027D01*
X31400846Y-52114442D01*
X31375493Y-52067010D01*
X31359877Y-52015530D01*
X31354000Y-51955860D01*
X31354000Y-51168140D01*
X31359877Y-51108470D01*
X31375493Y-51056990D01*
X31400846Y-51009558D01*
X31434973Y-50967973D01*
X31476558Y-50933846D01*
X31523990Y-50908493D01*
X31575470Y-50892877D01*
X31635140Y-50887000D01*
X32522860Y-50887000D01*
X32582530Y-50892877D01*
X32582530Y-50892877D01*
G37*
G36*
X34332530Y-50892877D02*
X34384010Y-50908493D01*
X34431442Y-50933846D01*
X34473027Y-50967973D01*
X34507154Y-51009558D01*
X34532507Y-51056990D01*
X34548123Y-51108470D01*
X34554000Y-51168140D01*
X34554000Y-51955860D01*
X34548123Y-52015530D01*
X34532507Y-52067010D01*
X34507154Y-52114442D01*
X34473027Y-52156027D01*
X34431442Y-52190154D01*
X34384010Y-52215507D01*
X34332530Y-52231123D01*
X34272860Y-52237000D01*
X33385140Y-52237000D01*
X33325470Y-52231123D01*
X33273990Y-52215507D01*
X33226558Y-52190154D01*
X33184973Y-52156027D01*
X33150846Y-52114442D01*
X33125493Y-52067010D01*
X33109877Y-52015530D01*
X33104000Y-51955860D01*
X33104000Y-51168140D01*
X33109877Y-51108470D01*
X33125493Y-51056990D01*
X33150846Y-51009558D01*
X33184973Y-50967973D01*
X33226558Y-50933846D01*
X33273990Y-50908493D01*
X33325470Y-50892877D01*
X33385140Y-50887000D01*
X34272860Y-50887000D01*
X34332530Y-50892877D01*
X34332530Y-50892877D01*
G37*
G36*
X79193530Y-50535877D02*
X79245010Y-50551493D01*
X79292442Y-50576846D01*
X79334027Y-50610973D01*
X79368154Y-50652558D01*
X79393507Y-50699990D01*
X79409123Y-50751470D01*
X79415000Y-50811140D01*
X79415000Y-51698860D01*
X79409123Y-51758530D01*
X79393507Y-51810010D01*
X79368154Y-51857442D01*
X79334027Y-51899027D01*
X79292442Y-51933154D01*
X79245010Y-51958507D01*
X79193530Y-51974123D01*
X79133860Y-51980000D01*
X78346140Y-51980000D01*
X78286470Y-51974123D01*
X78234990Y-51958507D01*
X78187558Y-51933154D01*
X78145973Y-51899027D01*
X78111846Y-51857442D01*
X78086493Y-51810010D01*
X78070877Y-51758530D01*
X78065000Y-51698860D01*
X78065000Y-50811140D01*
X78070877Y-50751470D01*
X78086493Y-50699990D01*
X78111846Y-50652558D01*
X78145973Y-50610973D01*
X78187558Y-50576846D01*
X78234990Y-50551493D01*
X78286470Y-50535877D01*
X78346140Y-50530000D01*
X79133860Y-50530000D01*
X79193530Y-50535877D01*
X79193530Y-50535877D01*
G37*
G36*
X81225530Y-50531877D02*
X81277010Y-50547493D01*
X81324442Y-50572846D01*
X81366027Y-50606973D01*
X81400154Y-50648558D01*
X81425507Y-50695990D01*
X81441123Y-50747470D01*
X81447000Y-50807140D01*
X81447000Y-51694860D01*
X81441123Y-51754530D01*
X81425507Y-51806010D01*
X81400154Y-51853442D01*
X81366027Y-51895027D01*
X81324442Y-51929154D01*
X81277010Y-51954507D01*
X81225530Y-51970123D01*
X81165860Y-51976000D01*
X80378140Y-51976000D01*
X80318470Y-51970123D01*
X80266990Y-51954507D01*
X80219558Y-51929154D01*
X80177973Y-51895027D01*
X80143846Y-51853442D01*
X80118493Y-51806010D01*
X80102877Y-51754530D01*
X80097000Y-51694860D01*
X80097000Y-50807140D01*
X80102877Y-50747470D01*
X80118493Y-50695990D01*
X80143846Y-50648558D01*
X80177973Y-50606973D01*
X80219558Y-50572846D01*
X80266990Y-50547493D01*
X80318470Y-50531877D01*
X80378140Y-50526000D01*
X81165860Y-50526000D01*
X81225530Y-50531877D01*
X81225530Y-50531877D01*
G37*
G36*
X37645000Y-51935000D02*
X35695000Y-51935000D01*
X35695000Y-50935000D01*
X37645000Y-50935000D01*
X37645000Y-51935000D01*
X37645000Y-51935000D01*
G37*
G36*
X43045000Y-51935000D02*
X41095000Y-51935000D01*
X41095000Y-50935000D01*
X43045000Y-50935000D01*
X43045000Y-51935000D01*
X43045000Y-51935000D01*
G37*
G36*
X76834000Y-51842000D02*
X75534000Y-51842000D01*
X75534000Y-50642000D01*
X76834000Y-50642000D01*
X76834000Y-51842000D01*
X76834000Y-51842000D01*
G37*
G36*
X54047530Y-50256876D02*
X54099010Y-50272492D01*
X54146442Y-50297845D01*
X54188027Y-50331972D01*
X54222154Y-50373557D01*
X54247507Y-50420989D01*
X54263123Y-50472469D01*
X54269000Y-50532139D01*
X54269000Y-51419859D01*
X54263123Y-51479529D01*
X54247507Y-51531009D01*
X54222154Y-51578441D01*
X54188027Y-51620026D01*
X54146442Y-51654153D01*
X54099010Y-51679506D01*
X54047530Y-51695122D01*
X53987860Y-51700999D01*
X53200140Y-51700999D01*
X53140470Y-51695122D01*
X53088990Y-51679506D01*
X53041558Y-51654153D01*
X52999973Y-51620026D01*
X52965846Y-51578441D01*
X52940493Y-51531009D01*
X52924877Y-51479529D01*
X52919000Y-51419859D01*
X52919000Y-50532139D01*
X52924877Y-50472469D01*
X52940493Y-50420989D01*
X52965846Y-50373557D01*
X52999973Y-50331972D01*
X53041558Y-50297845D01*
X53088990Y-50272492D01*
X53140470Y-50256876D01*
X53200140Y-50250999D01*
X53987860Y-50250999D01*
X54047530Y-50256876D01*
X54047530Y-50256876D01*
G37*
G36*
X46935530Y-50256876D02*
X46987010Y-50272492D01*
X47034442Y-50297845D01*
X47076027Y-50331972D01*
X47110154Y-50373557D01*
X47135507Y-50420989D01*
X47151123Y-50472469D01*
X47157000Y-50532139D01*
X47157000Y-51419859D01*
X47151123Y-51479529D01*
X47135507Y-51531009D01*
X47110154Y-51578441D01*
X47076027Y-51620026D01*
X47034442Y-51654153D01*
X46987010Y-51679506D01*
X46935530Y-51695122D01*
X46875860Y-51700999D01*
X46088140Y-51700999D01*
X46028470Y-51695122D01*
X45976990Y-51679506D01*
X45929558Y-51654153D01*
X45887973Y-51620026D01*
X45853846Y-51578441D01*
X45828493Y-51531009D01*
X45812877Y-51479529D01*
X45807000Y-51419859D01*
X45807000Y-50532139D01*
X45812877Y-50472469D01*
X45828493Y-50420989D01*
X45853846Y-50373557D01*
X45887973Y-50331972D01*
X45929558Y-50297845D01*
X45976990Y-50272492D01*
X46028470Y-50256876D01*
X46088140Y-50250999D01*
X46875860Y-50250999D01*
X46935530Y-50256876D01*
X46935530Y-50256876D01*
G37*
G36*
X51676862Y-50246876D02*
X51728342Y-50262492D01*
X51775774Y-50287845D01*
X51817359Y-50321972D01*
X51851486Y-50363557D01*
X51876839Y-50410989D01*
X51892455Y-50462469D01*
X51898332Y-50522139D01*
X51898332Y-51409859D01*
X51892455Y-51469529D01*
X51876839Y-51521009D01*
X51851486Y-51568441D01*
X51817359Y-51610026D01*
X51775774Y-51644153D01*
X51728342Y-51669506D01*
X51676862Y-51685122D01*
X51617192Y-51690999D01*
X50829472Y-51690999D01*
X50769802Y-51685122D01*
X50718322Y-51669506D01*
X50670890Y-51644153D01*
X50629305Y-51610026D01*
X50595178Y-51568441D01*
X50569825Y-51521009D01*
X50554209Y-51469529D01*
X50548332Y-51409859D01*
X50548332Y-50522139D01*
X50554209Y-50462469D01*
X50569825Y-50410989D01*
X50595178Y-50363557D01*
X50629305Y-50321972D01*
X50670890Y-50287845D01*
X50718322Y-50262492D01*
X50769802Y-50246876D01*
X50829472Y-50240999D01*
X51617192Y-50240999D01*
X51676862Y-50246876D01*
X51676862Y-50246876D01*
G37*
G36*
X49306196Y-50246876D02*
X49357676Y-50262492D01*
X49405108Y-50287845D01*
X49446693Y-50321972D01*
X49480820Y-50363557D01*
X49506173Y-50410989D01*
X49521789Y-50462469D01*
X49527666Y-50522139D01*
X49527666Y-51409859D01*
X49521789Y-51469529D01*
X49506173Y-51521009D01*
X49480820Y-51568441D01*
X49446693Y-51610026D01*
X49405108Y-51644153D01*
X49357676Y-51669506D01*
X49306196Y-51685122D01*
X49246526Y-51690999D01*
X48458806Y-51690999D01*
X48399136Y-51685122D01*
X48347656Y-51669506D01*
X48300224Y-51644153D01*
X48258639Y-51610026D01*
X48224512Y-51568441D01*
X48199159Y-51521009D01*
X48183543Y-51469529D01*
X48177666Y-51409859D01*
X48177666Y-50522139D01*
X48183543Y-50462469D01*
X48199159Y-50410989D01*
X48224512Y-50363557D01*
X48258639Y-50321972D01*
X48300224Y-50287845D01*
X48347656Y-50262492D01*
X48399136Y-50246876D01*
X48458806Y-50240999D01*
X49246526Y-50240999D01*
X49306196Y-50246876D01*
X49306196Y-50246876D01*
G37*
G36*
X65414530Y-49622877D02*
X65466010Y-49638493D01*
X65513442Y-49663846D01*
X65555027Y-49697973D01*
X65589154Y-49739558D01*
X65614507Y-49786990D01*
X65630123Y-49838470D01*
X65636000Y-49898140D01*
X65636000Y-50685860D01*
X65630123Y-50745530D01*
X65614507Y-50797010D01*
X65589154Y-50844442D01*
X65555027Y-50886027D01*
X65513442Y-50920154D01*
X65466010Y-50945507D01*
X65414530Y-50961123D01*
X65354860Y-50967000D01*
X64467140Y-50967000D01*
X64407470Y-50961123D01*
X64355990Y-50945507D01*
X64308558Y-50920154D01*
X64266973Y-50886027D01*
X64232846Y-50844442D01*
X64207493Y-50797010D01*
X64191877Y-50745530D01*
X64186000Y-50685860D01*
X64186000Y-49898140D01*
X64191877Y-49838470D01*
X64207493Y-49786990D01*
X64232846Y-49739558D01*
X64266973Y-49697973D01*
X64308558Y-49663846D01*
X64355990Y-49638493D01*
X64407470Y-49622877D01*
X64467140Y-49617000D01*
X65354860Y-49617000D01*
X65414530Y-49622877D01*
X65414530Y-49622877D01*
G37*
G36*
X67164530Y-49622877D02*
X67216010Y-49638493D01*
X67263442Y-49663846D01*
X67305027Y-49697973D01*
X67339154Y-49739558D01*
X67364507Y-49786990D01*
X67380123Y-49838470D01*
X67386000Y-49898140D01*
X67386000Y-50685860D01*
X67380123Y-50745530D01*
X67364507Y-50797010D01*
X67339154Y-50844442D01*
X67305027Y-50886027D01*
X67263442Y-50920154D01*
X67216010Y-50945507D01*
X67164530Y-50961123D01*
X67104860Y-50967000D01*
X66217140Y-50967000D01*
X66157470Y-50961123D01*
X66105990Y-50945507D01*
X66058558Y-50920154D01*
X66016973Y-50886027D01*
X65982846Y-50844442D01*
X65957493Y-50797010D01*
X65941877Y-50745530D01*
X65936000Y-50685860D01*
X65936000Y-49898140D01*
X65941877Y-49838470D01*
X65957493Y-49786990D01*
X65982846Y-49739558D01*
X66016973Y-49697973D01*
X66058558Y-49663846D01*
X66105990Y-49638493D01*
X66157470Y-49622877D01*
X66217140Y-49617000D01*
X67104860Y-49617000D01*
X67164530Y-49622877D01*
X67164530Y-49622877D01*
G37*
G36*
X72074530Y-49622877D02*
X72126010Y-49638493D01*
X72173442Y-49663846D01*
X72215027Y-49697973D01*
X72249154Y-49739558D01*
X72274507Y-49786990D01*
X72290123Y-49838470D01*
X72296000Y-49898140D01*
X72296000Y-50685860D01*
X72290123Y-50745530D01*
X72274507Y-50797010D01*
X72249154Y-50844442D01*
X72215027Y-50886027D01*
X72173442Y-50920154D01*
X72126010Y-50945507D01*
X72074530Y-50961123D01*
X72014860Y-50967000D01*
X71127140Y-50967000D01*
X71067470Y-50961123D01*
X71015990Y-50945507D01*
X70968558Y-50920154D01*
X70926973Y-50886027D01*
X70892846Y-50844442D01*
X70867493Y-50797010D01*
X70851877Y-50745530D01*
X70846000Y-50685860D01*
X70846000Y-49898140D01*
X70851877Y-49838470D01*
X70867493Y-49786990D01*
X70892846Y-49739558D01*
X70926973Y-49697973D01*
X70968558Y-49663846D01*
X71015990Y-49638493D01*
X71067470Y-49622877D01*
X71127140Y-49617000D01*
X72014860Y-49617000D01*
X72074530Y-49622877D01*
X72074530Y-49622877D01*
G37*
G36*
X70324530Y-49622877D02*
X70376010Y-49638493D01*
X70423442Y-49663846D01*
X70465027Y-49697973D01*
X70499154Y-49739558D01*
X70524507Y-49786990D01*
X70540123Y-49838470D01*
X70546000Y-49898140D01*
X70546000Y-50685860D01*
X70540123Y-50745530D01*
X70524507Y-50797010D01*
X70499154Y-50844442D01*
X70465027Y-50886027D01*
X70423442Y-50920154D01*
X70376010Y-50945507D01*
X70324530Y-50961123D01*
X70264860Y-50967000D01*
X69377140Y-50967000D01*
X69317470Y-50961123D01*
X69265990Y-50945507D01*
X69218558Y-50920154D01*
X69176973Y-50886027D01*
X69142846Y-50844442D01*
X69117493Y-50797010D01*
X69101877Y-50745530D01*
X69096000Y-50685860D01*
X69096000Y-49898140D01*
X69101877Y-49838470D01*
X69117493Y-49786990D01*
X69142846Y-49739558D01*
X69176973Y-49697973D01*
X69218558Y-49663846D01*
X69265990Y-49638493D01*
X69317470Y-49622877D01*
X69377140Y-49617000D01*
X70264860Y-49617000D01*
X70324530Y-49622877D01*
X70324530Y-49622877D01*
G37*
G36*
X74834000Y-50892000D02*
X73534000Y-50892000D01*
X73534000Y-49692000D01*
X74834000Y-49692000D01*
X74834000Y-50892000D01*
X74834000Y-50892000D01*
G37*
G36*
X37645000Y-50665000D02*
X35695000Y-50665000D01*
X35695000Y-49665000D01*
X37645000Y-49665000D01*
X37645000Y-50665000D01*
X37645000Y-50665000D01*
G37*
G36*
X43045000Y-50665000D02*
X41095000Y-50665000D01*
X41095000Y-49665000D01*
X43045000Y-49665000D01*
X43045000Y-50665000D01*
X43045000Y-50665000D01*
G37*
G36*
X79193530Y-48785877D02*
X79245010Y-48801493D01*
X79292442Y-48826846D01*
X79334027Y-48860973D01*
X79368154Y-48902558D01*
X79393507Y-48949990D01*
X79409123Y-49001470D01*
X79415000Y-49061140D01*
X79415000Y-49948860D01*
X79409123Y-50008530D01*
X79393507Y-50060010D01*
X79368154Y-50107442D01*
X79334027Y-50149027D01*
X79292442Y-50183154D01*
X79245010Y-50208507D01*
X79193530Y-50224123D01*
X79133860Y-50230000D01*
X78346140Y-50230000D01*
X78286470Y-50224123D01*
X78234990Y-50208507D01*
X78187558Y-50183154D01*
X78145973Y-50149027D01*
X78111846Y-50107442D01*
X78086493Y-50060010D01*
X78070877Y-50008530D01*
X78065000Y-49948860D01*
X78065000Y-49061140D01*
X78070877Y-49001470D01*
X78086493Y-48949990D01*
X78111846Y-48902558D01*
X78145973Y-48860973D01*
X78187558Y-48826846D01*
X78234990Y-48801493D01*
X78286470Y-48785877D01*
X78346140Y-48780000D01*
X79133860Y-48780000D01*
X79193530Y-48785877D01*
X79193530Y-48785877D01*
G37*
G36*
X81225530Y-48781877D02*
X81277010Y-48797493D01*
X81324442Y-48822846D01*
X81366027Y-48856973D01*
X81400154Y-48898558D01*
X81425507Y-48945990D01*
X81441123Y-48997470D01*
X81447000Y-49057140D01*
X81447000Y-49944860D01*
X81441123Y-50004530D01*
X81425507Y-50056010D01*
X81400154Y-50103442D01*
X81366027Y-50145027D01*
X81324442Y-50179154D01*
X81277010Y-50204507D01*
X81225530Y-50220123D01*
X81165860Y-50226000D01*
X80378140Y-50226000D01*
X80318470Y-50220123D01*
X80266990Y-50204507D01*
X80219558Y-50179154D01*
X80177973Y-50145027D01*
X80143846Y-50103442D01*
X80118493Y-50056010D01*
X80102877Y-50004530D01*
X80097000Y-49944860D01*
X80097000Y-49057140D01*
X80102877Y-48997470D01*
X80118493Y-48945990D01*
X80143846Y-48898558D01*
X80177973Y-48856973D01*
X80219558Y-48822846D01*
X80266990Y-48797493D01*
X80318470Y-48781877D01*
X80378140Y-48776000D01*
X81165860Y-48776000D01*
X81225530Y-48781877D01*
X81225530Y-48781877D01*
G37*
G36*
X46935530Y-48506876D02*
X46987010Y-48522492D01*
X47034442Y-48547845D01*
X47076027Y-48581972D01*
X47110154Y-48623557D01*
X47135507Y-48670989D01*
X47151123Y-48722469D01*
X47157000Y-48782139D01*
X47157000Y-49669859D01*
X47151123Y-49729529D01*
X47135507Y-49781009D01*
X47110154Y-49828441D01*
X47076027Y-49870026D01*
X47034442Y-49904153D01*
X46987010Y-49929506D01*
X46935530Y-49945122D01*
X46875860Y-49950999D01*
X46088140Y-49950999D01*
X46028470Y-49945122D01*
X45976990Y-49929506D01*
X45929558Y-49904153D01*
X45887973Y-49870026D01*
X45853846Y-49828441D01*
X45828493Y-49781009D01*
X45812877Y-49729529D01*
X45807000Y-49669859D01*
X45807000Y-48782139D01*
X45812877Y-48722469D01*
X45828493Y-48670989D01*
X45853846Y-48623557D01*
X45887973Y-48581972D01*
X45929558Y-48547845D01*
X45976990Y-48522492D01*
X46028470Y-48506876D01*
X46088140Y-48500999D01*
X46875860Y-48500999D01*
X46935530Y-48506876D01*
X46935530Y-48506876D01*
G37*
G36*
X54047530Y-48506876D02*
X54099010Y-48522492D01*
X54146442Y-48547845D01*
X54188027Y-48581972D01*
X54222154Y-48623557D01*
X54247507Y-48670989D01*
X54263123Y-48722469D01*
X54269000Y-48782139D01*
X54269000Y-49669859D01*
X54263123Y-49729529D01*
X54247507Y-49781009D01*
X54222154Y-49828441D01*
X54188027Y-49870026D01*
X54146442Y-49904153D01*
X54099010Y-49929506D01*
X54047530Y-49945122D01*
X53987860Y-49950999D01*
X53200140Y-49950999D01*
X53140470Y-49945122D01*
X53088990Y-49929506D01*
X53041558Y-49904153D01*
X52999973Y-49870026D01*
X52965846Y-49828441D01*
X52940493Y-49781009D01*
X52924877Y-49729529D01*
X52919000Y-49669859D01*
X52919000Y-48782139D01*
X52924877Y-48722469D01*
X52940493Y-48670989D01*
X52965846Y-48623557D01*
X52999973Y-48581972D01*
X53041558Y-48547845D01*
X53088990Y-48522492D01*
X53140470Y-48506876D01*
X53200140Y-48500999D01*
X53987860Y-48500999D01*
X54047530Y-48506876D01*
X54047530Y-48506876D01*
G37*
G36*
X76834000Y-49942000D02*
X75534000Y-49942000D01*
X75534000Y-48742000D01*
X76834000Y-48742000D01*
X76834000Y-49942000D01*
X76834000Y-49942000D01*
G37*
G36*
X51676862Y-48496876D02*
X51728342Y-48512492D01*
X51775774Y-48537845D01*
X51817359Y-48571972D01*
X51851486Y-48613557D01*
X51876839Y-48660989D01*
X51892455Y-48712469D01*
X51898332Y-48772139D01*
X51898332Y-49659859D01*
X51892455Y-49719529D01*
X51876839Y-49771009D01*
X51851486Y-49818441D01*
X51817359Y-49860026D01*
X51775774Y-49894153D01*
X51728342Y-49919506D01*
X51676862Y-49935122D01*
X51617192Y-49940999D01*
X50829472Y-49940999D01*
X50769802Y-49935122D01*
X50718322Y-49919506D01*
X50670890Y-49894153D01*
X50629305Y-49860026D01*
X50595178Y-49818441D01*
X50569825Y-49771009D01*
X50554209Y-49719529D01*
X50548332Y-49659859D01*
X50548332Y-48772139D01*
X50554209Y-48712469D01*
X50569825Y-48660989D01*
X50595178Y-48613557D01*
X50629305Y-48571972D01*
X50670890Y-48537845D01*
X50718322Y-48512492D01*
X50769802Y-48496876D01*
X50829472Y-48490999D01*
X51617192Y-48490999D01*
X51676862Y-48496876D01*
X51676862Y-48496876D01*
G37*
G36*
X49306196Y-48496876D02*
X49357676Y-48512492D01*
X49405108Y-48537845D01*
X49446693Y-48571972D01*
X49480820Y-48613557D01*
X49506173Y-48660989D01*
X49521789Y-48712469D01*
X49527666Y-48772139D01*
X49527666Y-49659859D01*
X49521789Y-49719529D01*
X49506173Y-49771009D01*
X49480820Y-49818441D01*
X49446693Y-49860026D01*
X49405108Y-49894153D01*
X49357676Y-49919506D01*
X49306196Y-49935122D01*
X49246526Y-49940999D01*
X48458806Y-49940999D01*
X48399136Y-49935122D01*
X48347656Y-49919506D01*
X48300224Y-49894153D01*
X48258639Y-49860026D01*
X48224512Y-49818441D01*
X48199159Y-49771009D01*
X48183543Y-49719529D01*
X48177666Y-49659859D01*
X48177666Y-48772139D01*
X48183543Y-48712469D01*
X48199159Y-48660989D01*
X48224512Y-48613557D01*
X48258639Y-48571972D01*
X48300224Y-48537845D01*
X48347656Y-48512492D01*
X48399136Y-48496876D01*
X48458806Y-48490999D01*
X49246526Y-48490999D01*
X49306196Y-48496876D01*
X49306196Y-48496876D01*
G37*
G36*
X37645000Y-49395000D02*
X35695000Y-49395000D01*
X35695000Y-48395000D01*
X37645000Y-48395000D01*
X37645000Y-49395000D01*
X37645000Y-49395000D01*
G37*
G36*
X43045000Y-49395000D02*
X41095000Y-49395000D01*
X41095000Y-48395000D01*
X43045000Y-48395000D01*
X43045000Y-49395000D01*
X43045000Y-49395000D01*
G37*
G36*
X31180207Y-46455597D02*
X31257336Y-46463193D01*
X31389287Y-46503220D01*
X31455263Y-46523233D01*
X31637672Y-46620733D01*
X31797554Y-46751946D01*
X31928767Y-46911828D01*
X32026267Y-47094237D01*
X32026267Y-47094238D01*
X32086307Y-47292164D01*
X32106580Y-47498000D01*
X32086307Y-47703836D01*
X32046280Y-47835787D01*
X32026267Y-47901763D01*
X31928767Y-48084172D01*
X31797554Y-48244054D01*
X31637672Y-48375267D01*
X31455263Y-48472767D01*
X31395159Y-48490999D01*
X31257336Y-48532807D01*
X31180207Y-48540403D01*
X31103080Y-48548000D01*
X30999920Y-48548000D01*
X30922793Y-48540403D01*
X30845664Y-48532807D01*
X30707841Y-48490999D01*
X30647737Y-48472767D01*
X30465328Y-48375267D01*
X30305446Y-48244054D01*
X30174233Y-48084172D01*
X30076733Y-47901763D01*
X30056720Y-47835787D01*
X30016693Y-47703836D01*
X29996420Y-47498000D01*
X30016693Y-47292164D01*
X30076733Y-47094238D01*
X30076733Y-47094237D01*
X30174233Y-46911828D01*
X30305446Y-46751946D01*
X30465328Y-46620733D01*
X30647737Y-46523233D01*
X30713713Y-46503220D01*
X30845664Y-46463193D01*
X30922793Y-46455597D01*
X30999920Y-46448000D01*
X31103080Y-46448000D01*
X31180207Y-46455597D01*
X31180207Y-46455597D01*
G37*
G36*
X28640207Y-46455597D02*
X28717336Y-46463193D01*
X28849287Y-46503220D01*
X28915263Y-46523233D01*
X29097672Y-46620733D01*
X29257554Y-46751946D01*
X29388767Y-46911828D01*
X29486267Y-47094237D01*
X29486267Y-47094238D01*
X29546307Y-47292164D01*
X29566580Y-47498000D01*
X29546307Y-47703836D01*
X29506280Y-47835787D01*
X29486267Y-47901763D01*
X29388767Y-48084172D01*
X29257554Y-48244054D01*
X29097672Y-48375267D01*
X28915263Y-48472767D01*
X28855159Y-48490999D01*
X28717336Y-48532807D01*
X28640207Y-48540403D01*
X28563080Y-48548000D01*
X28459920Y-48548000D01*
X28382793Y-48540403D01*
X28305664Y-48532807D01*
X28167841Y-48490999D01*
X28107737Y-48472767D01*
X27925328Y-48375267D01*
X27765446Y-48244054D01*
X27634233Y-48084172D01*
X27536733Y-47901763D01*
X27516720Y-47835787D01*
X27476693Y-47703836D01*
X27456420Y-47498000D01*
X27476693Y-47292164D01*
X27536733Y-47094238D01*
X27536733Y-47094237D01*
X27634233Y-46911828D01*
X27765446Y-46751946D01*
X27925328Y-46620733D01*
X28107737Y-46523233D01*
X28173713Y-46503220D01*
X28305664Y-46463193D01*
X28382793Y-46455597D01*
X28459920Y-46448000D01*
X28563080Y-46448000D01*
X28640207Y-46455597D01*
X28640207Y-46455597D01*
G37*
G36*
X27021500Y-48548000D02*
X24921500Y-48548000D01*
X24921500Y-46448000D01*
X27021500Y-46448000D01*
X27021500Y-48548000D01*
X27021500Y-48548000D01*
G37*
G36*
X43045000Y-48125000D02*
X41095000Y-48125000D01*
X41095000Y-47125000D01*
X43045000Y-47125000D01*
X43045000Y-48125000D01*
X43045000Y-48125000D01*
G37*
G36*
X37645000Y-48125000D02*
X35695000Y-48125000D01*
X35695000Y-47125000D01*
X37645000Y-47125000D01*
X37645000Y-48125000D01*
X37645000Y-48125000D01*
G37*
G36*
X40981330Y-44796877D02*
X41032810Y-44812493D01*
X41080242Y-44837846D01*
X41121827Y-44871973D01*
X41155954Y-44913558D01*
X41181307Y-44960990D01*
X41196923Y-45012470D01*
X41202800Y-45072140D01*
X41202800Y-45859860D01*
X41196923Y-45919530D01*
X41181307Y-45971010D01*
X41155954Y-46018442D01*
X41121827Y-46060027D01*
X41080242Y-46094154D01*
X41032810Y-46119507D01*
X40981330Y-46135123D01*
X40921660Y-46141000D01*
X40033940Y-46141000D01*
X39974270Y-46135123D01*
X39922790Y-46119507D01*
X39875358Y-46094154D01*
X39833773Y-46060027D01*
X39799646Y-46018442D01*
X39774293Y-45971010D01*
X39758677Y-45919530D01*
X39752800Y-45859860D01*
X39752800Y-45072140D01*
X39758677Y-45012470D01*
X39774293Y-44960990D01*
X39799646Y-44913558D01*
X39833773Y-44871973D01*
X39875358Y-44837846D01*
X39922790Y-44812493D01*
X39974270Y-44796877D01*
X40033940Y-44791000D01*
X40921660Y-44791000D01*
X40981330Y-44796877D01*
X40981330Y-44796877D01*
G37*
G36*
X39231330Y-44796877D02*
X39282810Y-44812493D01*
X39330242Y-44837846D01*
X39371827Y-44871973D01*
X39405954Y-44913558D01*
X39431307Y-44960990D01*
X39446923Y-45012470D01*
X39452800Y-45072140D01*
X39452800Y-45859860D01*
X39446923Y-45919530D01*
X39431307Y-45971010D01*
X39405954Y-46018442D01*
X39371827Y-46060027D01*
X39330242Y-46094154D01*
X39282810Y-46119507D01*
X39231330Y-46135123D01*
X39171660Y-46141000D01*
X38283940Y-46141000D01*
X38224270Y-46135123D01*
X38172790Y-46119507D01*
X38125358Y-46094154D01*
X38083773Y-46060027D01*
X38049646Y-46018442D01*
X38024293Y-45971010D01*
X38008677Y-45919530D01*
X38002800Y-45859860D01*
X38002800Y-45072140D01*
X38008677Y-45012470D01*
X38024293Y-44960990D01*
X38049646Y-44913558D01*
X38083773Y-44871973D01*
X38125358Y-44837846D01*
X38172790Y-44812493D01*
X38224270Y-44796877D01*
X38283940Y-44791000D01*
X39171660Y-44791000D01*
X39231330Y-44796877D01*
X39231330Y-44796877D01*
G37*
G36*
X73346191Y-43417880D02*
X73546688Y-43500929D01*
X73727130Y-43621496D01*
X73880584Y-43774950D01*
X74001151Y-43955392D01*
X74084200Y-44155889D01*
X74126537Y-44368735D01*
X74126537Y-44585751D01*
X74084200Y-44798597D01*
X74001151Y-44999094D01*
X73880584Y-45179536D01*
X73727130Y-45332990D01*
X73546688Y-45453557D01*
X73346191Y-45536606D01*
X73133345Y-45578943D01*
X72916329Y-45578943D01*
X72703483Y-45536606D01*
X72502986Y-45453557D01*
X72322544Y-45332990D01*
X72169090Y-45179536D01*
X72048523Y-44999094D01*
X71965474Y-44798597D01*
X71923137Y-44585751D01*
X71923137Y-44368735D01*
X71965474Y-44155889D01*
X72048523Y-43955392D01*
X72169090Y-43774950D01*
X72322544Y-43621496D01*
X72502986Y-43500929D01*
X72703483Y-43417880D01*
X72916329Y-43375543D01*
X73133345Y-43375543D01*
X73346191Y-43417880D01*
X73346191Y-43417880D01*
G37*
G36*
X31436191Y-43417880D02*
X31636688Y-43500929D01*
X31817130Y-43621496D01*
X31970584Y-43774950D01*
X32091151Y-43955392D01*
X32174200Y-44155889D01*
X32216537Y-44368735D01*
X32216537Y-44585751D01*
X32174200Y-44798597D01*
X32091151Y-44999094D01*
X31970584Y-45179536D01*
X31817130Y-45332990D01*
X31636688Y-45453557D01*
X31436191Y-45536606D01*
X31223345Y-45578943D01*
X31006329Y-45578943D01*
X30793483Y-45536606D01*
X30592986Y-45453557D01*
X30412544Y-45332990D01*
X30259090Y-45179536D01*
X30138523Y-44999094D01*
X30055474Y-44798597D01*
X30013137Y-44585751D01*
X30013137Y-44368735D01*
X30055474Y-44155889D01*
X30138523Y-43955392D01*
X30259090Y-43774950D01*
X30412544Y-43621496D01*
X30592986Y-43500929D01*
X30793483Y-43417880D01*
X31006329Y-43375543D01*
X31223345Y-43375543D01*
X31436191Y-43417880D01*
X31436191Y-43417880D01*
G37*
G36*
X28896191Y-43417880D02*
X29096688Y-43500929D01*
X29277130Y-43621496D01*
X29430584Y-43774950D01*
X29551151Y-43955392D01*
X29634200Y-44155889D01*
X29676537Y-44368735D01*
X29676537Y-44585751D01*
X29634200Y-44798597D01*
X29551151Y-44999094D01*
X29430584Y-45179536D01*
X29277130Y-45332990D01*
X29096688Y-45453557D01*
X28896191Y-45536606D01*
X28683345Y-45578943D01*
X28466329Y-45578943D01*
X28253483Y-45536606D01*
X28052986Y-45453557D01*
X27872544Y-45332990D01*
X27719090Y-45179536D01*
X27598523Y-44999094D01*
X27515474Y-44798597D01*
X27473137Y-44585751D01*
X27473137Y-44368735D01*
X27515474Y-44155889D01*
X27598523Y-43955392D01*
X27719090Y-43774950D01*
X27872544Y-43621496D01*
X28052986Y-43500929D01*
X28253483Y-43417880D01*
X28466329Y-43375543D01*
X28683345Y-43375543D01*
X28896191Y-43417880D01*
X28896191Y-43417880D01*
G37*
G36*
X43712857Y-43417880D02*
X43913354Y-43500929D01*
X44093796Y-43621496D01*
X44247250Y-43774950D01*
X44367817Y-43955392D01*
X44450866Y-44155889D01*
X44493203Y-44368735D01*
X44493203Y-44585751D01*
X44450866Y-44798597D01*
X44367817Y-44999094D01*
X44247250Y-45179536D01*
X44093796Y-45332990D01*
X43913354Y-45453557D01*
X43712857Y-45536606D01*
X43500011Y-45578943D01*
X43282995Y-45578943D01*
X43070149Y-45536606D01*
X42869652Y-45453557D01*
X42689210Y-45332990D01*
X42535756Y-45179536D01*
X42415189Y-44999094D01*
X42332140Y-44798597D01*
X42289803Y-44585751D01*
X42289803Y-44368735D01*
X42332140Y-44155889D01*
X42415189Y-43955392D01*
X42535756Y-43774950D01*
X42689210Y-43621496D01*
X42869652Y-43500929D01*
X43070149Y-43417880D01*
X43282995Y-43375543D01*
X43500011Y-43375543D01*
X43712857Y-43417880D01*
X43712857Y-43417880D01*
G37*
G36*
X46252857Y-43417880D02*
X46453354Y-43500929D01*
X46633796Y-43621496D01*
X46787250Y-43774950D01*
X46907817Y-43955392D01*
X46990866Y-44155889D01*
X47033203Y-44368735D01*
X47033203Y-44585751D01*
X46990866Y-44798597D01*
X46907817Y-44999094D01*
X46787250Y-45179536D01*
X46633796Y-45332990D01*
X46453354Y-45453557D01*
X46252857Y-45536606D01*
X46040011Y-45578943D01*
X45822995Y-45578943D01*
X45610149Y-45536606D01*
X45409652Y-45453557D01*
X45229210Y-45332990D01*
X45075756Y-45179536D01*
X44955189Y-44999094D01*
X44872140Y-44798597D01*
X44829803Y-44585751D01*
X44829803Y-44368735D01*
X44872140Y-44155889D01*
X44955189Y-43955392D01*
X45075756Y-43774950D01*
X45229210Y-43621496D01*
X45409652Y-43500929D01*
X45610149Y-43417880D01*
X45822995Y-43375543D01*
X46040011Y-43375543D01*
X46252857Y-43417880D01*
X46252857Y-43417880D01*
G37*
G36*
X48792857Y-43417880D02*
X48993354Y-43500929D01*
X49173796Y-43621496D01*
X49327250Y-43774950D01*
X49447817Y-43955392D01*
X49530866Y-44155889D01*
X49573203Y-44368735D01*
X49573203Y-44585751D01*
X49530866Y-44798597D01*
X49447817Y-44999094D01*
X49327250Y-45179536D01*
X49173796Y-45332990D01*
X48993354Y-45453557D01*
X48792857Y-45536606D01*
X48580011Y-45578943D01*
X48362995Y-45578943D01*
X48150149Y-45536606D01*
X47949652Y-45453557D01*
X47769210Y-45332990D01*
X47615756Y-45179536D01*
X47495189Y-44999094D01*
X47412140Y-44798597D01*
X47369803Y-44585751D01*
X47369803Y-44368735D01*
X47412140Y-44155889D01*
X47495189Y-43955392D01*
X47615756Y-43774950D01*
X47769210Y-43621496D01*
X47949652Y-43500929D01*
X48150149Y-43417880D01*
X48362995Y-43375543D01*
X48580011Y-43375543D01*
X48792857Y-43417880D01*
X48792857Y-43417880D01*
G37*
G36*
X61069523Y-43417880D02*
X61270020Y-43500929D01*
X61450462Y-43621496D01*
X61603916Y-43774950D01*
X61724483Y-43955392D01*
X61807532Y-44155889D01*
X61849869Y-44368735D01*
X61849869Y-44585751D01*
X61807532Y-44798597D01*
X61724483Y-44999094D01*
X61603916Y-45179536D01*
X61450462Y-45332990D01*
X61270020Y-45453557D01*
X61069523Y-45536606D01*
X60856677Y-45578943D01*
X60639661Y-45578943D01*
X60426815Y-45536606D01*
X60226318Y-45453557D01*
X60045876Y-45332990D01*
X59892422Y-45179536D01*
X59771855Y-44999094D01*
X59688806Y-44798597D01*
X59646469Y-44585751D01*
X59646469Y-44368735D01*
X59688806Y-44155889D01*
X59771855Y-43955392D01*
X59892422Y-43774950D01*
X60045876Y-43621496D01*
X60226318Y-43500929D01*
X60426815Y-43417880D01*
X60639661Y-43375543D01*
X60856677Y-43375543D01*
X61069523Y-43417880D01*
X61069523Y-43417880D01*
G37*
G36*
X58529523Y-43417880D02*
X58730020Y-43500929D01*
X58910462Y-43621496D01*
X59063916Y-43774950D01*
X59184483Y-43955392D01*
X59267532Y-44155889D01*
X59309869Y-44368735D01*
X59309869Y-44585751D01*
X59267532Y-44798597D01*
X59184483Y-44999094D01*
X59063916Y-45179536D01*
X58910462Y-45332990D01*
X58730020Y-45453557D01*
X58529523Y-45536606D01*
X58316677Y-45578943D01*
X58099661Y-45578943D01*
X57886815Y-45536606D01*
X57686318Y-45453557D01*
X57505876Y-45332990D01*
X57352422Y-45179536D01*
X57231855Y-44999094D01*
X57148806Y-44798597D01*
X57106469Y-44585751D01*
X57106469Y-44368735D01*
X57148806Y-44155889D01*
X57231855Y-43955392D01*
X57352422Y-43774950D01*
X57505876Y-43621496D01*
X57686318Y-43500929D01*
X57886815Y-43417880D01*
X58099661Y-43375543D01*
X58316677Y-43375543D01*
X58529523Y-43417880D01*
X58529523Y-43417880D01*
G37*
G36*
X75886191Y-43417880D02*
X76086688Y-43500929D01*
X76267130Y-43621496D01*
X76420584Y-43774950D01*
X76541151Y-43955392D01*
X76624200Y-44155889D01*
X76666537Y-44368735D01*
X76666537Y-44585751D01*
X76624200Y-44798597D01*
X76541151Y-44999094D01*
X76420584Y-45179536D01*
X76267130Y-45332990D01*
X76086688Y-45453557D01*
X75886191Y-45536606D01*
X75673345Y-45578943D01*
X75456329Y-45578943D01*
X75243483Y-45536606D01*
X75042986Y-45453557D01*
X74862544Y-45332990D01*
X74709090Y-45179536D01*
X74588523Y-44999094D01*
X74505474Y-44798597D01*
X74463137Y-44585751D01*
X74463137Y-44368735D01*
X74505474Y-44155889D01*
X74588523Y-43955392D01*
X74709090Y-43774950D01*
X74862544Y-43621496D01*
X75042986Y-43500929D01*
X75243483Y-43417880D01*
X75456329Y-43375543D01*
X75673345Y-43375543D01*
X75886191Y-43417880D01*
X75886191Y-43417880D01*
G37*
G36*
X33976191Y-43417880D02*
X34176688Y-43500929D01*
X34357130Y-43621496D01*
X34510584Y-43774950D01*
X34631151Y-43955392D01*
X34714200Y-44155889D01*
X34756537Y-44368735D01*
X34756537Y-44585751D01*
X34714200Y-44798597D01*
X34631151Y-44999094D01*
X34510584Y-45179536D01*
X34357130Y-45332990D01*
X34176688Y-45453557D01*
X33976191Y-45536606D01*
X33763345Y-45578943D01*
X33546329Y-45578943D01*
X33333483Y-45536606D01*
X33132986Y-45453557D01*
X32952544Y-45332990D01*
X32799090Y-45179536D01*
X32678523Y-44999094D01*
X32595474Y-44798597D01*
X32553137Y-44585751D01*
X32553137Y-44368735D01*
X32595474Y-44155889D01*
X32678523Y-43955392D01*
X32799090Y-43774950D01*
X32952544Y-43621496D01*
X33132986Y-43500929D01*
X33333483Y-43417880D01*
X33546329Y-43375543D01*
X33763345Y-43375543D01*
X33976191Y-43417880D01*
X33976191Y-43417880D01*
G37*
G36*
X78426191Y-43417880D02*
X78626688Y-43500929D01*
X78807130Y-43621496D01*
X78960584Y-43774950D01*
X79081151Y-43955392D01*
X79164200Y-44155889D01*
X79206537Y-44368735D01*
X79206537Y-44585751D01*
X79164200Y-44798597D01*
X79081151Y-44999094D01*
X78960584Y-45179536D01*
X78807130Y-45332990D01*
X78626688Y-45453557D01*
X78426191Y-45536606D01*
X78213345Y-45578943D01*
X77996329Y-45578943D01*
X77783483Y-45536606D01*
X77582986Y-45453557D01*
X77402544Y-45332990D01*
X77249090Y-45179536D01*
X77128523Y-44999094D01*
X77045474Y-44798597D01*
X77003137Y-44585751D01*
X77003137Y-44368735D01*
X77045474Y-44155889D01*
X77128523Y-43955392D01*
X77249090Y-43774950D01*
X77402544Y-43621496D01*
X77582986Y-43500929D01*
X77783483Y-43417880D01*
X77996329Y-43375543D01*
X78213345Y-43375543D01*
X78426191Y-43417880D01*
X78426191Y-43417880D01*
G37*
G36*
X63609523Y-43417880D02*
X63810020Y-43500929D01*
X63990462Y-43621496D01*
X64143916Y-43774950D01*
X64264483Y-43955392D01*
X64347532Y-44155889D01*
X64389869Y-44368735D01*
X64389869Y-44585751D01*
X64347532Y-44798597D01*
X64264483Y-44999094D01*
X64143916Y-45179536D01*
X63990462Y-45332990D01*
X63810020Y-45453557D01*
X63609523Y-45536606D01*
X63396677Y-45578943D01*
X63179661Y-45578943D01*
X62966815Y-45536606D01*
X62766318Y-45453557D01*
X62585876Y-45332990D01*
X62432422Y-45179536D01*
X62311855Y-44999094D01*
X62228806Y-44798597D01*
X62186469Y-44585751D01*
X62186469Y-44368735D01*
X62228806Y-44155889D01*
X62311855Y-43955392D01*
X62432422Y-43774950D01*
X62585876Y-43621496D01*
X62766318Y-43500929D01*
X62966815Y-43417880D01*
X63179661Y-43375543D01*
X63396677Y-43375543D01*
X63609523Y-43417880D01*
X63609523Y-43417880D01*
G37*
G36*
X54469530Y-42764877D02*
X54521010Y-42780493D01*
X54568442Y-42805846D01*
X54610027Y-42839973D01*
X54644154Y-42881558D01*
X54669507Y-42928990D01*
X54685123Y-42980470D01*
X54691000Y-43040140D01*
X54691000Y-43827860D01*
X54685123Y-43887530D01*
X54669507Y-43939010D01*
X54644154Y-43986442D01*
X54610027Y-44028027D01*
X54568442Y-44062154D01*
X54521010Y-44087507D01*
X54469530Y-44103123D01*
X54409860Y-44109000D01*
X53522140Y-44109000D01*
X53462470Y-44103123D01*
X53410990Y-44087507D01*
X53363558Y-44062154D01*
X53321973Y-44028027D01*
X53287846Y-43986442D01*
X53262493Y-43939010D01*
X53246877Y-43887530D01*
X53241000Y-43827860D01*
X53241000Y-43040140D01*
X53246877Y-42980470D01*
X53262493Y-42928990D01*
X53287846Y-42881558D01*
X53321973Y-42839973D01*
X53363558Y-42805846D01*
X53410990Y-42780493D01*
X53462470Y-42764877D01*
X53522140Y-42759000D01*
X54409860Y-42759000D01*
X54469530Y-42764877D01*
X54469530Y-42764877D01*
G37*
G36*
X52719530Y-42764877D02*
X52771010Y-42780493D01*
X52818442Y-42805846D01*
X52860027Y-42839973D01*
X52894154Y-42881558D01*
X52919507Y-42928990D01*
X52935123Y-42980470D01*
X52941000Y-43040140D01*
X52941000Y-43827860D01*
X52935123Y-43887530D01*
X52919507Y-43939010D01*
X52894154Y-43986442D01*
X52860027Y-44028027D01*
X52818442Y-44062154D01*
X52771010Y-44087507D01*
X52719530Y-44103123D01*
X52659860Y-44109000D01*
X51772140Y-44109000D01*
X51712470Y-44103123D01*
X51660990Y-44087507D01*
X51613558Y-44062154D01*
X51571973Y-44028027D01*
X51537846Y-43986442D01*
X51512493Y-43939010D01*
X51496877Y-43887530D01*
X51491000Y-43827860D01*
X51491000Y-43040140D01*
X51496877Y-42980470D01*
X51512493Y-42928990D01*
X51537846Y-42881558D01*
X51571973Y-42839973D01*
X51613558Y-42805846D01*
X51660990Y-42780493D01*
X51712470Y-42764877D01*
X51772140Y-42759000D01*
X52659860Y-42759000D01*
X52719530Y-42764877D01*
X52719530Y-42764877D01*
G37*
G36*
X52714530Y-39970877D02*
X52766010Y-39986493D01*
X52813442Y-40011846D01*
X52855027Y-40045973D01*
X52889154Y-40087558D01*
X52914507Y-40134990D01*
X52930123Y-40186470D01*
X52936000Y-40246140D01*
X52936000Y-41033860D01*
X52930123Y-41093530D01*
X52914507Y-41145010D01*
X52889154Y-41192442D01*
X52855027Y-41234027D01*
X52813442Y-41268154D01*
X52766010Y-41293507D01*
X52714530Y-41309123D01*
X52654860Y-41315000D01*
X51767140Y-41315000D01*
X51707470Y-41309123D01*
X51655990Y-41293507D01*
X51608558Y-41268154D01*
X51566973Y-41234027D01*
X51532846Y-41192442D01*
X51507493Y-41145010D01*
X51491877Y-41093530D01*
X51486000Y-41033860D01*
X51486000Y-40246140D01*
X51491877Y-40186470D01*
X51507493Y-40134990D01*
X51532846Y-40087558D01*
X51566973Y-40045973D01*
X51608558Y-40011846D01*
X51655990Y-39986493D01*
X51707470Y-39970877D01*
X51767140Y-39965000D01*
X52654860Y-39965000D01*
X52714530Y-39970877D01*
X52714530Y-39970877D01*
G37*
G36*
X69704530Y-39970877D02*
X69756010Y-39986493D01*
X69803442Y-40011846D01*
X69845027Y-40045973D01*
X69879154Y-40087558D01*
X69904507Y-40134990D01*
X69920123Y-40186470D01*
X69926000Y-40246140D01*
X69926000Y-41033860D01*
X69920123Y-41093530D01*
X69904507Y-41145010D01*
X69879154Y-41192442D01*
X69845027Y-41234027D01*
X69803442Y-41268154D01*
X69756010Y-41293507D01*
X69704530Y-41309123D01*
X69644860Y-41315000D01*
X68757140Y-41315000D01*
X68697470Y-41309123D01*
X68645990Y-41293507D01*
X68598558Y-41268154D01*
X68556973Y-41234027D01*
X68522846Y-41192442D01*
X68497493Y-41145010D01*
X68481877Y-41093530D01*
X68476000Y-41033860D01*
X68476000Y-40246140D01*
X68481877Y-40186470D01*
X68497493Y-40134990D01*
X68522846Y-40087558D01*
X68556973Y-40045973D01*
X68598558Y-40011846D01*
X68645990Y-39986493D01*
X68697470Y-39970877D01*
X68757140Y-39965000D01*
X69644860Y-39965000D01*
X69704530Y-39970877D01*
X69704530Y-39970877D01*
G37*
G36*
X67954530Y-39970877D02*
X68006010Y-39986493D01*
X68053442Y-40011846D01*
X68095027Y-40045973D01*
X68129154Y-40087558D01*
X68154507Y-40134990D01*
X68170123Y-40186470D01*
X68176000Y-40246140D01*
X68176000Y-41033860D01*
X68170123Y-41093530D01*
X68154507Y-41145010D01*
X68129154Y-41192442D01*
X68095027Y-41234027D01*
X68053442Y-41268154D01*
X68006010Y-41293507D01*
X67954530Y-41309123D01*
X67894860Y-41315000D01*
X67007140Y-41315000D01*
X66947470Y-41309123D01*
X66895990Y-41293507D01*
X66848558Y-41268154D01*
X66806973Y-41234027D01*
X66772846Y-41192442D01*
X66747493Y-41145010D01*
X66731877Y-41093530D01*
X66726000Y-41033860D01*
X66726000Y-40246140D01*
X66731877Y-40186470D01*
X66747493Y-40134990D01*
X66772846Y-40087558D01*
X66806973Y-40045973D01*
X66848558Y-40011846D01*
X66895990Y-39986493D01*
X66947470Y-39970877D01*
X67007140Y-39965000D01*
X67894860Y-39965000D01*
X67954530Y-39970877D01*
X67954530Y-39970877D01*
G37*
G36*
X54464530Y-39970877D02*
X54516010Y-39986493D01*
X54563442Y-40011846D01*
X54605027Y-40045973D01*
X54639154Y-40087558D01*
X54664507Y-40134990D01*
X54680123Y-40186470D01*
X54686000Y-40246140D01*
X54686000Y-41033860D01*
X54680123Y-41093530D01*
X54664507Y-41145010D01*
X54639154Y-41192442D01*
X54605027Y-41234027D01*
X54563442Y-41268154D01*
X54516010Y-41293507D01*
X54464530Y-41309123D01*
X54404860Y-41315000D01*
X53517140Y-41315000D01*
X53457470Y-41309123D01*
X53405990Y-41293507D01*
X53358558Y-41268154D01*
X53316973Y-41234027D01*
X53282846Y-41192442D01*
X53257493Y-41145010D01*
X53241877Y-41093530D01*
X53236000Y-41033860D01*
X53236000Y-40246140D01*
X53241877Y-40186470D01*
X53257493Y-40134990D01*
X53282846Y-40087558D01*
X53316973Y-40045973D01*
X53358558Y-40011846D01*
X53405990Y-39986493D01*
X53457470Y-39970877D01*
X53517140Y-39965000D01*
X54404860Y-39965000D01*
X54464530Y-39970877D01*
X54464530Y-39970877D01*
G37*
G36*
X38236530Y-39970877D02*
X38288010Y-39986493D01*
X38335442Y-40011846D01*
X38377027Y-40045973D01*
X38411154Y-40087558D01*
X38436507Y-40134990D01*
X38452123Y-40186470D01*
X38458000Y-40246140D01*
X38458000Y-41033860D01*
X38452123Y-41093530D01*
X38436507Y-41145010D01*
X38411154Y-41192442D01*
X38377027Y-41234027D01*
X38335442Y-41268154D01*
X38288010Y-41293507D01*
X38236530Y-41309123D01*
X38176860Y-41315000D01*
X37289140Y-41315000D01*
X37229470Y-41309123D01*
X37177990Y-41293507D01*
X37130558Y-41268154D01*
X37088973Y-41234027D01*
X37054846Y-41192442D01*
X37029493Y-41145010D01*
X37013877Y-41093530D01*
X37008000Y-41033860D01*
X37008000Y-40246140D01*
X37013877Y-40186470D01*
X37029493Y-40134990D01*
X37054846Y-40087558D01*
X37088973Y-40045973D01*
X37130558Y-40011846D01*
X37177990Y-39986493D01*
X37229470Y-39970877D01*
X37289140Y-39965000D01*
X38176860Y-39965000D01*
X38236530Y-39970877D01*
X38236530Y-39970877D01*
G37*
G36*
X39986530Y-39970877D02*
X40038010Y-39986493D01*
X40085442Y-40011846D01*
X40127027Y-40045973D01*
X40161154Y-40087558D01*
X40186507Y-40134990D01*
X40202123Y-40186470D01*
X40208000Y-40246140D01*
X40208000Y-41033860D01*
X40202123Y-41093530D01*
X40186507Y-41145010D01*
X40161154Y-41192442D01*
X40127027Y-41234027D01*
X40085442Y-41268154D01*
X40038010Y-41293507D01*
X39986530Y-41309123D01*
X39926860Y-41315000D01*
X39039140Y-41315000D01*
X38979470Y-41309123D01*
X38927990Y-41293507D01*
X38880558Y-41268154D01*
X38838973Y-41234027D01*
X38804846Y-41192442D01*
X38779493Y-41145010D01*
X38763877Y-41093530D01*
X38758000Y-41033860D01*
X38758000Y-40246140D01*
X38763877Y-40186470D01*
X38779493Y-40134990D01*
X38804846Y-40087558D01*
X38838973Y-40045973D01*
X38880558Y-40011846D01*
X38927990Y-39986493D01*
X38979470Y-39970877D01*
X39039140Y-39965000D01*
X39926860Y-39965000D01*
X39986530Y-39970877D01*
X39986530Y-39970877D01*
G37*
G36*
X80406342Y-35992274D02*
X80685422Y-36107873D01*
X80933242Y-36273462D01*
X80936589Y-36275698D01*
X81150182Y-36489291D01*
X81318008Y-36740460D01*
X81433606Y-37019538D01*
X81492537Y-37315805D01*
X81492537Y-37617881D01*
X81433606Y-37914148D01*
X81318008Y-38193226D01*
X81150182Y-38444395D01*
X80936589Y-38657988D01*
X80936586Y-38657990D01*
X80685422Y-38825813D01*
X80685421Y-38825814D01*
X80685420Y-38825814D01*
X80406342Y-38941412D01*
X80110075Y-39000343D01*
X79807999Y-39000343D01*
X79511732Y-38941412D01*
X79232654Y-38825814D01*
X79232653Y-38825814D01*
X79232652Y-38825813D01*
X78981488Y-38657990D01*
X78981485Y-38657988D01*
X78767892Y-38444395D01*
X78600066Y-38193226D01*
X78484468Y-37914148D01*
X78425537Y-37617881D01*
X78425537Y-37315805D01*
X78484468Y-37019538D01*
X78600066Y-36740460D01*
X78767892Y-36489291D01*
X78981485Y-36275698D01*
X78984832Y-36273462D01*
X79232652Y-36107873D01*
X79511732Y-35992274D01*
X79807999Y-35933343D01*
X80110075Y-35933343D01*
X80406342Y-35992274D01*
X80406342Y-35992274D01*
G37*
G36*
X71617942Y-35992274D02*
X71897022Y-36107873D01*
X72144842Y-36273462D01*
X72148189Y-36275698D01*
X72361782Y-36489291D01*
X72529608Y-36740460D01*
X72645206Y-37019538D01*
X72704137Y-37315805D01*
X72704137Y-37617881D01*
X72645206Y-37914148D01*
X72529608Y-38193226D01*
X72361782Y-38444395D01*
X72148189Y-38657988D01*
X72148186Y-38657990D01*
X71897022Y-38825813D01*
X71897021Y-38825814D01*
X71897020Y-38825814D01*
X71617942Y-38941412D01*
X71321675Y-39000343D01*
X71019599Y-39000343D01*
X70723332Y-38941412D01*
X70444254Y-38825814D01*
X70444253Y-38825814D01*
X70444252Y-38825813D01*
X70193088Y-38657990D01*
X70193085Y-38657988D01*
X69979492Y-38444395D01*
X69811666Y-38193226D01*
X69696068Y-37914148D01*
X69637137Y-37617881D01*
X69637137Y-37315805D01*
X69696068Y-37019538D01*
X69811666Y-36740460D01*
X69979492Y-36489291D01*
X70193085Y-36275698D01*
X70196432Y-36273462D01*
X70444252Y-36107873D01*
X70723332Y-35992274D01*
X71019599Y-35933343D01*
X71321675Y-35933343D01*
X71617942Y-35992274D01*
X71617942Y-35992274D01*
G37*
G36*
X27167942Y-35992274D02*
X27447022Y-36107873D01*
X27694842Y-36273462D01*
X27698189Y-36275698D01*
X27911782Y-36489291D01*
X28079608Y-36740460D01*
X28195206Y-37019538D01*
X28254137Y-37315805D01*
X28254137Y-37617881D01*
X28195206Y-37914148D01*
X28079608Y-38193226D01*
X27911782Y-38444395D01*
X27698189Y-38657988D01*
X27698186Y-38657990D01*
X27447022Y-38825813D01*
X27447021Y-38825814D01*
X27447020Y-38825814D01*
X27167942Y-38941412D01*
X26871675Y-39000343D01*
X26569599Y-39000343D01*
X26273332Y-38941412D01*
X25994254Y-38825814D01*
X25994253Y-38825814D01*
X25994252Y-38825813D01*
X25743088Y-38657990D01*
X25743085Y-38657988D01*
X25529492Y-38444395D01*
X25361666Y-38193226D01*
X25246068Y-37914148D01*
X25187137Y-37617881D01*
X25187137Y-37315805D01*
X25246068Y-37019538D01*
X25361666Y-36740460D01*
X25529492Y-36489291D01*
X25743085Y-36275698D01*
X25746432Y-36273462D01*
X25994252Y-36107873D01*
X26273332Y-35992274D01*
X26569599Y-35933343D01*
X26871675Y-35933343D01*
X27167942Y-35992274D01*
X27167942Y-35992274D01*
G37*
G36*
X35956342Y-35992274D02*
X36235422Y-36107873D01*
X36483242Y-36273462D01*
X36486589Y-36275698D01*
X36700182Y-36489291D01*
X36868008Y-36740460D01*
X36983606Y-37019538D01*
X37042537Y-37315805D01*
X37042537Y-37617881D01*
X36983606Y-37914148D01*
X36868008Y-38193226D01*
X36700182Y-38444395D01*
X36486589Y-38657988D01*
X36486586Y-38657990D01*
X36235422Y-38825813D01*
X36235421Y-38825814D01*
X36235420Y-38825814D01*
X35956342Y-38941412D01*
X35660075Y-39000343D01*
X35357999Y-39000343D01*
X35061732Y-38941412D01*
X34782654Y-38825814D01*
X34782653Y-38825814D01*
X34782652Y-38825813D01*
X34531488Y-38657990D01*
X34531485Y-38657988D01*
X34317892Y-38444395D01*
X34150066Y-38193226D01*
X34034468Y-37914148D01*
X33975537Y-37617881D01*
X33975537Y-37315805D01*
X34034468Y-37019538D01*
X34150066Y-36740460D01*
X34317892Y-36489291D01*
X34531485Y-36275698D01*
X34534832Y-36273462D01*
X34782652Y-36107873D01*
X35061732Y-35992274D01*
X35357999Y-35933343D01*
X35660075Y-35933343D01*
X35956342Y-35992274D01*
X35956342Y-35992274D01*
G37*
G36*
X65589674Y-35992274D02*
X65868754Y-36107873D01*
X66116574Y-36273462D01*
X66119921Y-36275698D01*
X66333514Y-36489291D01*
X66501340Y-36740460D01*
X66616938Y-37019538D01*
X66675869Y-37315805D01*
X66675869Y-37617881D01*
X66616938Y-37914148D01*
X66501340Y-38193226D01*
X66333514Y-38444395D01*
X66119921Y-38657988D01*
X66119918Y-38657990D01*
X65868754Y-38825813D01*
X65868753Y-38825814D01*
X65868752Y-38825814D01*
X65589674Y-38941412D01*
X65293407Y-39000343D01*
X64991331Y-39000343D01*
X64695064Y-38941412D01*
X64415986Y-38825814D01*
X64415985Y-38825814D01*
X64415984Y-38825813D01*
X64164820Y-38657990D01*
X64164817Y-38657988D01*
X63951224Y-38444395D01*
X63783398Y-38193226D01*
X63667800Y-37914148D01*
X63608869Y-37617881D01*
X63608869Y-37315805D01*
X63667800Y-37019538D01*
X63783398Y-36740460D01*
X63951224Y-36489291D01*
X64164817Y-36275698D01*
X64168164Y-36273462D01*
X64415984Y-36107873D01*
X64695064Y-35992274D01*
X64991331Y-35933343D01*
X65293407Y-35933343D01*
X65589674Y-35992274D01*
X65589674Y-35992274D01*
G37*
G36*
X41984608Y-35992274D02*
X42263688Y-36107873D01*
X42511508Y-36273462D01*
X42514855Y-36275698D01*
X42728448Y-36489291D01*
X42896274Y-36740460D01*
X43011872Y-37019538D01*
X43070803Y-37315805D01*
X43070803Y-37617881D01*
X43011872Y-37914148D01*
X42896274Y-38193226D01*
X42728448Y-38444395D01*
X42514855Y-38657988D01*
X42514852Y-38657990D01*
X42263688Y-38825813D01*
X42263687Y-38825814D01*
X42263686Y-38825814D01*
X41984608Y-38941412D01*
X41688341Y-39000343D01*
X41386265Y-39000343D01*
X41089998Y-38941412D01*
X40810920Y-38825814D01*
X40810919Y-38825814D01*
X40810918Y-38825813D01*
X40559754Y-38657990D01*
X40559751Y-38657988D01*
X40346158Y-38444395D01*
X40178332Y-38193226D01*
X40062734Y-37914148D01*
X40003803Y-37617881D01*
X40003803Y-37315805D01*
X40062734Y-37019538D01*
X40178332Y-36740460D01*
X40346158Y-36489291D01*
X40559751Y-36275698D01*
X40563098Y-36273462D01*
X40810918Y-36107873D01*
X41089998Y-35992274D01*
X41386265Y-35933343D01*
X41688341Y-35933343D01*
X41984608Y-35992274D01*
X41984608Y-35992274D01*
G37*
G36*
X50773008Y-35992274D02*
X51052088Y-36107873D01*
X51299908Y-36273462D01*
X51303255Y-36275698D01*
X51516848Y-36489291D01*
X51684674Y-36740460D01*
X51800272Y-37019538D01*
X51859203Y-37315805D01*
X51859203Y-37617881D01*
X51800272Y-37914148D01*
X51684674Y-38193226D01*
X51516848Y-38444395D01*
X51303255Y-38657988D01*
X51303252Y-38657990D01*
X51052088Y-38825813D01*
X51052087Y-38825814D01*
X51052086Y-38825814D01*
X50773008Y-38941412D01*
X50476741Y-39000343D01*
X50174665Y-39000343D01*
X49878398Y-38941412D01*
X49599320Y-38825814D01*
X49599319Y-38825814D01*
X49599318Y-38825813D01*
X49348154Y-38657990D01*
X49348151Y-38657988D01*
X49134558Y-38444395D01*
X48966732Y-38193226D01*
X48851134Y-37914148D01*
X48792203Y-37617881D01*
X48792203Y-37315805D01*
X48851134Y-37019538D01*
X48966732Y-36740460D01*
X49134558Y-36489291D01*
X49348151Y-36275698D01*
X49351498Y-36273462D01*
X49599318Y-36107873D01*
X49878398Y-35992274D01*
X50174665Y-35933343D01*
X50476741Y-35933343D01*
X50773008Y-35992274D01*
X50773008Y-35992274D01*
G37*
G36*
X56801274Y-35992274D02*
X57080354Y-36107873D01*
X57328174Y-36273462D01*
X57331521Y-36275698D01*
X57545114Y-36489291D01*
X57712940Y-36740460D01*
X57828538Y-37019538D01*
X57887469Y-37315805D01*
X57887469Y-37617881D01*
X57828538Y-37914148D01*
X57712940Y-38193226D01*
X57545114Y-38444395D01*
X57331521Y-38657988D01*
X57331518Y-38657990D01*
X57080354Y-38825813D01*
X57080353Y-38825814D01*
X57080352Y-38825814D01*
X56801274Y-38941412D01*
X56505007Y-39000343D01*
X56202931Y-39000343D01*
X55906664Y-38941412D01*
X55627586Y-38825814D01*
X55627585Y-38825814D01*
X55627584Y-38825813D01*
X55376420Y-38657990D01*
X55376417Y-38657988D01*
X55162824Y-38444395D01*
X54994998Y-38193226D01*
X54879400Y-37914148D01*
X54820469Y-37617881D01*
X54820469Y-37315805D01*
X54879400Y-37019538D01*
X54994998Y-36740460D01*
X55162824Y-36489291D01*
X55376417Y-36275698D01*
X55379764Y-36273462D01*
X55627584Y-36107873D01*
X55906664Y-35992274D01*
X56202931Y-35933343D01*
X56505007Y-35933343D01*
X56801274Y-35992274D01*
X56801274Y-35992274D01*
G37*
M02*
