M48
;DRILL file {KiCad (5.0.1)-4} date 1/22/2019 12:18:24 AM
;FORMAT={-:-/ absolute / inch / decimal}
FMAT,2
INCH,TZ
T1C0.0157
T2C0.0350
T3C0.0394
T4C0.0450
T5C0.0810
%
G90
G05
M72
T1
X1.38Y-1.87
X1.42Y-1.67
X1.49Y-2.01
X1.53Y-2.19
X1.56Y-1.69
X1.75Y-2.18
X1.79Y-1.95
X1.83Y-2.07
X1.88Y-1.86
X1.96Y-2.01
X1.97Y-1.86
X2.06Y-1.96
X2.1Y-2.09
X2.14Y-2.25
X2.16Y-1.88
X2.33Y-2.05
X2.46Y-2.26
X2.61Y-1.9085
X2.68Y-2.04
T2
X2.2917Y-1.7511
X2.3917Y-1.7511
X2.4917Y-1.7511
X1.125Y-1.7511
X1.225Y-1.7511
X1.325Y-1.7511
X1.7083Y-1.7511
X1.8083Y-1.7511
X1.9083Y-1.7511
X1.452Y-2.175
X2.748Y-2.175
X2.875Y-1.7511
X2.975Y-1.7511
X3.075Y-1.7511
T3
X1.0225Y-1.87
X1.1225Y-1.87
X1.2225Y-1.87
T4
X1.02Y-2.175
X1.357Y-2.175
X2.843Y-2.175
X3.18Y-2.175
T5
X2.2187Y-1.4751
X2.5647Y-1.4751
X1.052Y-1.4751
X1.398Y-1.4751
X1.6353Y-1.4751
X1.9813Y-1.4751
X2.802Y-1.4751
X3.148Y-1.4751
T0
M30
