G04 #@! TF.GenerationSoftware,KiCad,Pcbnew,(5.0.1)-4*
G04 #@! TF.CreationDate,2019-01-08T00:24:24+01:00*
G04 #@! TF.ProjectId,1U ADSR,315520414453522E6B696361645F7063,rev?*
G04 #@! TF.SameCoordinates,Original*
G04 #@! TF.FileFunction,Copper,L2,Bot,Signal*
G04 #@! TF.FilePolarity,Positive*
%FSLAX46Y46*%
G04 Gerber Fmt 4.6, Leading zero omitted, Abs format (unit mm)*
G04 Created by KiCad (PCBNEW (5.0.1)-4) date 01/08/19 00:24:24*
%MOMM*%
%LPD*%
G01*
G04 APERTURE LIST*
G04 #@! TA.AperFunction,ComponentPad*
%ADD10C,1.930400*%
G04 #@! TD*
G04 #@! TA.AperFunction,ComponentPad*
%ADD11R,1.700000X1.700000*%
G04 #@! TD*
G04 #@! TA.AperFunction,ComponentPad*
%ADD12O,1.700000X1.700000*%
G04 #@! TD*
G04 #@! TA.AperFunction,ComponentPad*
%ADD13C,2.667000*%
G04 #@! TD*
G04 #@! TA.AperFunction,ComponentPad*
%ADD14C,1.803400*%
G04 #@! TD*
G04 #@! TA.AperFunction,ViaPad*
%ADD15C,0.800000*%
G04 #@! TD*
G04 #@! TA.AperFunction,Conductor*
%ADD16C,0.250000*%
G04 #@! TD*
G04 #@! TA.AperFunction,Conductor*
%ADD17C,0.127000*%
G04 #@! TD*
G04 APERTURE END LIST*
D10*
G04 #@! TO.P,J1,T*
G04 #@! TO.N,Net-(J1-PadT)*
X80772000Y-55245000D03*
G04 #@! TO.P,J1,S*
G04 #@! TO.N,GND*
X69799200Y-55245000D03*
G04 #@! TO.P,J1,TN*
G04 #@! TO.N,Net-(J1-PadTN)*
X72212200Y-55245000D03*
G04 #@! TD*
G04 #@! TO.P,J2,TN*
G04 #@! TO.N,Net-(J2-PadTN)*
X34467800Y-55245000D03*
G04 #@! TO.P,J2,S*
G04 #@! TO.N,GND*
X36880800Y-55245000D03*
G04 #@! TO.P,J2,T*
G04 #@! TO.N,Net-(J2-PadT)*
X25908000Y-55245000D03*
G04 #@! TD*
D11*
G04 #@! TO.P,GND +12V -12V,1*
G04 #@! TO.N,GND*
X25971500Y-47498000D03*
D12*
G04 #@! TO.P,GND +12V -12V,2*
G04 #@! TO.N,+12V*
X28511500Y-47498000D03*
G04 #@! TO.P,GND +12V -12V,3*
G04 #@! TO.N,-12V*
X31051500Y-47498000D03*
G04 #@! TD*
D13*
G04 #@! TO.P,Attack,5*
G04 #@! TO.N,N/C*
X71170637Y-37466843D03*
G04 #@! TO.P,Attack,4*
X79959037Y-37466843D03*
D14*
G04 #@! TO.P,Attack,1*
G04 #@! TO.N,Net-(R7-Pad1)*
X78104837Y-44477243D03*
G04 #@! TO.P,Attack,2*
X75564837Y-44477243D03*
G04 #@! TO.P,Attack,3*
G04 #@! TO.N,Net-(D4-Pad2)*
X73024837Y-44477243D03*
G04 #@! TD*
G04 #@! TO.P,Decay,3*
G04 #@! TO.N,Net-(D5-Pad1)*
X58208169Y-44477243D03*
G04 #@! TO.P,Decay,2*
G04 #@! TO.N,Net-(R10-Pad2)*
X60748169Y-44477243D03*
G04 #@! TO.P,Decay,1*
X63288169Y-44477243D03*
D13*
G04 #@! TO.P,Decay,4*
G04 #@! TO.N,N/C*
X65142369Y-37466843D03*
G04 #@! TO.P,Decay,5*
X56353969Y-37466843D03*
G04 #@! TD*
G04 #@! TO.P,Sustain,5*
G04 #@! TO.N,N/C*
X41537303Y-37466843D03*
G04 #@! TO.P,Sustain,4*
X50325703Y-37466843D03*
D14*
G04 #@! TO.P,Sustain,1*
G04 #@! TO.N,Net-(RV3-Pad1)*
X48471503Y-44477243D03*
G04 #@! TO.P,Sustain,2*
G04 #@! TO.N,Net-(RV3-Pad2)*
X45931503Y-44477243D03*
G04 #@! TO.P,Sustain,3*
G04 #@! TO.N,Net-(R9-Pad2)*
X43391503Y-44477243D03*
G04 #@! TD*
G04 #@! TO.P,Release,3*
G04 #@! TO.N,Net-(D3-Pad1)*
X28574837Y-44477243D03*
G04 #@! TO.P,Release,2*
G04 #@! TO.N,Net-(R8-Pad1)*
X31114837Y-44477243D03*
G04 #@! TO.P,Release,1*
X33654837Y-44477243D03*
D13*
G04 #@! TO.P,Release,4*
G04 #@! TO.N,N/C*
X35509037Y-37466843D03*
G04 #@! TO.P,Release,5*
X26720637Y-37466843D03*
G04 #@! TD*
D15*
G04 #@! TO.N,Net-(C1-Pad2)*
X59182000Y-52070000D03*
X53340000Y-53086000D03*
X46482000Y-52578000D03*
G04 #@! TO.N,GND*
X68072000Y-51816000D03*
X39624000Y-42926000D03*
G04 #@! TO.N,Net-(C3-Pad2)*
X38862000Y-55626000D03*
X44450000Y-55372000D03*
X35052000Y-47498000D03*
X36068000Y-42418000D03*
G04 #@! TO.N,+12V*
X52324000Y-49784000D03*
X66294000Y-48477000D03*
X37846000Y-51054000D03*
X49784000Y-51054000D03*
G04 #@! TO.N,Net-(Q3-Pad3)*
X62484000Y-57404000D03*
X54356000Y-57150000D03*
G04 #@! TO.N,Net-(R7-Pad1)*
X54864000Y-47752000D03*
G04 #@! TO.N,Net-(R8-Pad1)*
X45466000Y-49530000D03*
G04 #@! TO.N,Net-(R9-Pad2)*
X50038000Y-47244000D03*
G04 #@! TO.N,Net-(RV3-Pad1)*
X47752000Y-47244000D03*
G04 #@! TD*
D16*
G04 #@! TO.N,Net-(C1-Pad2)*
X59182000Y-52070000D02*
X58166000Y-53086000D01*
X58166000Y-53086000D02*
X53340000Y-53086000D01*
X53340000Y-53086000D02*
X46990000Y-53086000D01*
X46990000Y-53086000D02*
X46482000Y-52578000D01*
G04 #@! TO.N,Net-(C3-Pad2)*
X38862000Y-55626000D02*
X44196000Y-55626000D01*
X44196000Y-55626000D02*
X44450000Y-55372000D01*
X35052000Y-47498000D02*
X36068000Y-46482000D01*
X36068000Y-46482000D02*
X36068000Y-42418000D01*
G04 #@! TO.N,+12V*
X52324000Y-49784000D02*
X53631000Y-48477000D01*
X53631000Y-48477000D02*
X66294000Y-48477000D01*
X37846000Y-51054000D02*
X49784000Y-51054000D01*
X28448000Y-48622000D02*
X29864000Y-50038000D01*
X28448000Y-47498000D02*
X28448000Y-48622000D01*
X36830000Y-50038000D02*
X37846000Y-51054000D01*
X29864000Y-50038000D02*
X36830000Y-50038000D01*
G04 #@! TO.N,Net-(Q3-Pad3)*
X62484000Y-57404000D02*
X54610000Y-57404000D01*
X54610000Y-57404000D02*
X54356000Y-57150000D01*
G04 #@! TO.N,Net-(R7-Pad1)*
X54864000Y-47752000D02*
X74422000Y-47752000D01*
X75564837Y-46609163D02*
X74422000Y-47752000D01*
X75564837Y-44477243D02*
X75564837Y-46609163D01*
X76840033Y-44477243D02*
X78104837Y-44477243D01*
X75564837Y-44477243D02*
X76840033Y-44477243D01*
G04 #@! TO.N,Net-(R8-Pad1)*
X45466000Y-49530000D02*
X44900315Y-49530000D01*
X44900315Y-49530000D02*
X34798000Y-49530000D01*
X33654837Y-48386837D02*
X34798000Y-49530000D01*
X33654837Y-44477243D02*
X33654837Y-48386837D01*
G04 #@! TO.N,Net-(R9-Pad2)*
X50038000Y-44228222D02*
X50038000Y-47244000D01*
X50038000Y-43434000D02*
X50038000Y-44228222D01*
X49022000Y-42418000D02*
X50038000Y-43434000D01*
X44175550Y-42418000D02*
X49022000Y-42418000D01*
X43391503Y-43202047D02*
X44175550Y-42418000D01*
X43391503Y-44477243D02*
X43391503Y-43202047D01*
G04 #@! TO.N,Net-(RV3-Pad1)*
X48471503Y-46524497D02*
X48471503Y-44477243D01*
X47752000Y-47244000D02*
X48471503Y-46524497D01*
G04 #@! TD*
D17*
G04 #@! TO.N,GND*
G36*
X82157501Y-59932500D02*
X24522500Y-59932500D01*
X24522500Y-57007280D01*
X53638500Y-57007280D01*
X53638500Y-57292720D01*
X53747733Y-57556431D01*
X53949569Y-57758267D01*
X54213280Y-57867500D01*
X54498720Y-57867500D01*
X54554933Y-57844216D01*
X54566418Y-57846500D01*
X54609999Y-57855169D01*
X54653580Y-57846500D01*
X61911802Y-57846500D01*
X62077569Y-58012267D01*
X62341280Y-58121500D01*
X62626720Y-58121500D01*
X62890431Y-58012267D01*
X63092267Y-57810431D01*
X63201500Y-57546720D01*
X63201500Y-57261280D01*
X63092267Y-56997569D01*
X62890431Y-56795733D01*
X62626720Y-56686500D01*
X62341280Y-56686500D01*
X62077569Y-56795733D01*
X61911802Y-56961500D01*
X55054537Y-56961500D01*
X54964267Y-56743569D01*
X54762431Y-56541733D01*
X54498720Y-56432500D01*
X54213280Y-56432500D01*
X53949569Y-56541733D01*
X53747733Y-56743569D01*
X53638500Y-57007280D01*
X24522500Y-57007280D01*
X24522500Y-54989855D01*
X24625300Y-54989855D01*
X24625300Y-55500145D01*
X24820579Y-55971591D01*
X25181409Y-56332421D01*
X25652855Y-56527700D01*
X26163145Y-56527700D01*
X26634591Y-56332421D01*
X26995421Y-55971591D01*
X27190700Y-55500145D01*
X27190700Y-54989855D01*
X33185100Y-54989855D01*
X33185100Y-55500145D01*
X33380379Y-55971591D01*
X33741209Y-56332421D01*
X34212655Y-56527700D01*
X34722945Y-56527700D01*
X35194391Y-56332421D01*
X35329062Y-56197750D01*
X36050379Y-56197750D01*
X36156114Y-56389607D01*
X36649300Y-56579805D01*
X37177729Y-56566790D01*
X37605486Y-56389607D01*
X37711221Y-56197750D01*
X36880800Y-55367329D01*
X36050379Y-56197750D01*
X35329062Y-56197750D01*
X35555221Y-55971591D01*
X35646101Y-55752186D01*
X35736193Y-55969686D01*
X35928050Y-56075421D01*
X36758471Y-55245000D01*
X37003129Y-55245000D01*
X37833550Y-56075421D01*
X38025407Y-55969686D01*
X38144500Y-55660876D01*
X38144500Y-55768720D01*
X38253733Y-56032431D01*
X38455569Y-56234267D01*
X38719280Y-56343500D01*
X39004720Y-56343500D01*
X39268431Y-56234267D01*
X39304948Y-56197750D01*
X68968779Y-56197750D01*
X69074514Y-56389607D01*
X69567700Y-56579805D01*
X70096129Y-56566790D01*
X70523886Y-56389607D01*
X70629621Y-56197750D01*
X69799200Y-55367329D01*
X68968779Y-56197750D01*
X39304948Y-56197750D01*
X39434198Y-56068500D01*
X44152418Y-56068500D01*
X44196000Y-56077169D01*
X44239582Y-56068500D01*
X44251067Y-56066216D01*
X44307280Y-56089500D01*
X44592720Y-56089500D01*
X44856431Y-55980267D01*
X45058267Y-55778431D01*
X45167500Y-55514720D01*
X45167500Y-55229280D01*
X45078121Y-55013500D01*
X68464395Y-55013500D01*
X68477410Y-55541929D01*
X68654593Y-55969686D01*
X68846450Y-56075421D01*
X69676871Y-55245000D01*
X69921529Y-55245000D01*
X70751950Y-56075421D01*
X70943807Y-55969686D01*
X71030682Y-55744419D01*
X71124779Y-55971591D01*
X71485609Y-56332421D01*
X71957055Y-56527700D01*
X72467345Y-56527700D01*
X72938791Y-56332421D01*
X73299621Y-55971591D01*
X73494900Y-55500145D01*
X73494900Y-54989855D01*
X79489300Y-54989855D01*
X79489300Y-55500145D01*
X79684579Y-55971591D01*
X80045409Y-56332421D01*
X80516855Y-56527700D01*
X81027145Y-56527700D01*
X81498591Y-56332421D01*
X81859421Y-55971591D01*
X82054700Y-55500145D01*
X82054700Y-54989855D01*
X81859421Y-54518409D01*
X81498591Y-54157579D01*
X81027145Y-53962300D01*
X80516855Y-53962300D01*
X80045409Y-54157579D01*
X79684579Y-54518409D01*
X79489300Y-54989855D01*
X73494900Y-54989855D01*
X73299621Y-54518409D01*
X72938791Y-54157579D01*
X72467345Y-53962300D01*
X71957055Y-53962300D01*
X71485609Y-54157579D01*
X71124779Y-54518409D01*
X71033899Y-54737814D01*
X70943807Y-54520314D01*
X70751950Y-54414579D01*
X69921529Y-55245000D01*
X69676871Y-55245000D01*
X68846450Y-54414579D01*
X68654593Y-54520314D01*
X68464395Y-55013500D01*
X45078121Y-55013500D01*
X45058267Y-54965569D01*
X44856431Y-54763733D01*
X44592720Y-54654500D01*
X44307280Y-54654500D01*
X44043569Y-54763733D01*
X43841733Y-54965569D01*
X43751463Y-55183500D01*
X39434198Y-55183500D01*
X39268431Y-55017733D01*
X39004720Y-54908500D01*
X38719280Y-54908500D01*
X38455569Y-55017733D01*
X38253733Y-55219569D01*
X38211772Y-55320872D01*
X38202590Y-54948071D01*
X38025407Y-54520314D01*
X37833550Y-54414579D01*
X37003129Y-55245000D01*
X36758471Y-55245000D01*
X35928050Y-54414579D01*
X35736193Y-54520314D01*
X35649318Y-54745581D01*
X35555221Y-54518409D01*
X35329062Y-54292250D01*
X36050379Y-54292250D01*
X36880800Y-55122671D01*
X37711221Y-54292250D01*
X68968779Y-54292250D01*
X69799200Y-55122671D01*
X70629621Y-54292250D01*
X70523886Y-54100393D01*
X70030700Y-53910195D01*
X69502271Y-53923210D01*
X69074514Y-54100393D01*
X68968779Y-54292250D01*
X37711221Y-54292250D01*
X37605486Y-54100393D01*
X37112300Y-53910195D01*
X36583871Y-53923210D01*
X36156114Y-54100393D01*
X36050379Y-54292250D01*
X35329062Y-54292250D01*
X35194391Y-54157579D01*
X34722945Y-53962300D01*
X34212655Y-53962300D01*
X33741209Y-54157579D01*
X33380379Y-54518409D01*
X33185100Y-54989855D01*
X27190700Y-54989855D01*
X26995421Y-54518409D01*
X26634591Y-54157579D01*
X26163145Y-53962300D01*
X25652855Y-53962300D01*
X25181409Y-54157579D01*
X24820579Y-54518409D01*
X24625300Y-54989855D01*
X24522500Y-54989855D01*
X24522500Y-52435280D01*
X45764500Y-52435280D01*
X45764500Y-52720720D01*
X45873733Y-52984431D01*
X46075569Y-53186267D01*
X46339280Y-53295500D01*
X46573711Y-53295500D01*
X46646285Y-53368074D01*
X46670975Y-53405025D01*
X46817345Y-53502826D01*
X46946418Y-53528500D01*
X46989999Y-53537169D01*
X47033580Y-53528500D01*
X52767802Y-53528500D01*
X52933569Y-53694267D01*
X53197280Y-53803500D01*
X53482720Y-53803500D01*
X53746431Y-53694267D01*
X53912198Y-53528500D01*
X58122418Y-53528500D01*
X58166000Y-53537169D01*
X58209582Y-53528500D01*
X58338655Y-53502826D01*
X58485025Y-53405025D01*
X58509716Y-53368072D01*
X59090289Y-52787500D01*
X59324720Y-52787500D01*
X59588431Y-52678267D01*
X59790267Y-52476431D01*
X59899500Y-52212720D01*
X59899500Y-51927280D01*
X59790267Y-51663569D01*
X59588431Y-51461733D01*
X59324720Y-51352500D01*
X59039280Y-51352500D01*
X58775569Y-51461733D01*
X58573733Y-51663569D01*
X58464500Y-51927280D01*
X58464500Y-52161711D01*
X57982712Y-52643500D01*
X53912198Y-52643500D01*
X53746431Y-52477733D01*
X53482720Y-52368500D01*
X53197280Y-52368500D01*
X52933569Y-52477733D01*
X52767802Y-52643500D01*
X47199500Y-52643500D01*
X47199500Y-52435280D01*
X47090267Y-52171569D01*
X46888431Y-51969733D01*
X46624720Y-51860500D01*
X46339280Y-51860500D01*
X46075569Y-51969733D01*
X45873733Y-52171569D01*
X45764500Y-52435280D01*
X24522500Y-52435280D01*
X24522500Y-47675375D01*
X24758000Y-47675375D01*
X24758000Y-48420305D01*
X24813340Y-48553907D01*
X24915594Y-48656161D01*
X25049196Y-48711500D01*
X25794125Y-48711500D01*
X25885000Y-48620625D01*
X25885000Y-47584500D01*
X26058000Y-47584500D01*
X26058000Y-48620625D01*
X26148875Y-48711500D01*
X26893804Y-48711500D01*
X27027406Y-48656161D01*
X27129660Y-48553907D01*
X27185000Y-48420305D01*
X27185000Y-47675375D01*
X27094125Y-47584500D01*
X26058000Y-47584500D01*
X25885000Y-47584500D01*
X24848875Y-47584500D01*
X24758000Y-47675375D01*
X24522500Y-47675375D01*
X24522500Y-47498000D01*
X27321128Y-47498000D01*
X27411740Y-47953536D01*
X27669780Y-48339720D01*
X28005501Y-48564042D01*
X28005501Y-48578413D01*
X27996831Y-48622000D01*
X28031174Y-48794654D01*
X28052863Y-48827114D01*
X28128976Y-48941025D01*
X28165926Y-48965714D01*
X29520286Y-50320075D01*
X29544975Y-50357025D01*
X29691345Y-50454826D01*
X29820418Y-50480500D01*
X29863999Y-50489169D01*
X29907580Y-50480500D01*
X36646712Y-50480500D01*
X37128500Y-50962289D01*
X37128500Y-51196720D01*
X37237733Y-51460431D01*
X37439569Y-51662267D01*
X37703280Y-51771500D01*
X37988720Y-51771500D01*
X38252431Y-51662267D01*
X38418198Y-51496500D01*
X49211802Y-51496500D01*
X49377569Y-51662267D01*
X49641280Y-51771500D01*
X49926720Y-51771500D01*
X50190431Y-51662267D01*
X50392267Y-51460431D01*
X50501500Y-51196720D01*
X50501500Y-50911280D01*
X50392267Y-50647569D01*
X50190431Y-50445733D01*
X49926720Y-50336500D01*
X49641280Y-50336500D01*
X49377569Y-50445733D01*
X49211802Y-50611500D01*
X38418198Y-50611500D01*
X38252431Y-50445733D01*
X37988720Y-50336500D01*
X37754289Y-50336500D01*
X37390288Y-49972500D01*
X44893802Y-49972500D01*
X45059569Y-50138267D01*
X45323280Y-50247500D01*
X45608720Y-50247500D01*
X45872431Y-50138267D01*
X46074267Y-49936431D01*
X46183500Y-49672720D01*
X46183500Y-49641280D01*
X51606500Y-49641280D01*
X51606500Y-49926720D01*
X51715733Y-50190431D01*
X51917569Y-50392267D01*
X52181280Y-50501500D01*
X52466720Y-50501500D01*
X52730431Y-50392267D01*
X52932267Y-50190431D01*
X53041500Y-49926720D01*
X53041500Y-49692288D01*
X53814289Y-48919500D01*
X65721802Y-48919500D01*
X65887569Y-49085267D01*
X66151280Y-49194500D01*
X66436720Y-49194500D01*
X66700431Y-49085267D01*
X66902267Y-48883431D01*
X67011500Y-48619720D01*
X67011500Y-48334280D01*
X66953601Y-48194500D01*
X74378418Y-48194500D01*
X74422000Y-48203169D01*
X74465582Y-48194500D01*
X74594655Y-48168826D01*
X74741025Y-48071025D01*
X74765716Y-48034072D01*
X75846914Y-46952876D01*
X75883862Y-46928188D01*
X75981663Y-46781818D01*
X76007337Y-46652745D01*
X76016006Y-46609163D01*
X76007337Y-46565581D01*
X76007337Y-45613606D01*
X76255459Y-45510831D01*
X76598425Y-45167865D01*
X76701200Y-44919743D01*
X76968474Y-44919743D01*
X77071249Y-45167865D01*
X77414215Y-45510831D01*
X77862323Y-45696443D01*
X78347351Y-45696443D01*
X78795459Y-45510831D01*
X79138425Y-45167865D01*
X79324037Y-44719757D01*
X79324037Y-44234729D01*
X79138425Y-43786621D01*
X78795459Y-43443655D01*
X78347351Y-43258043D01*
X77862323Y-43258043D01*
X77414215Y-43443655D01*
X77071249Y-43786621D01*
X76968474Y-44034743D01*
X76701200Y-44034743D01*
X76598425Y-43786621D01*
X76255459Y-43443655D01*
X75807351Y-43258043D01*
X75322323Y-43258043D01*
X74874215Y-43443655D01*
X74531249Y-43786621D01*
X74345637Y-44234729D01*
X74345637Y-44719757D01*
X74531249Y-45167865D01*
X74874215Y-45510831D01*
X75122338Y-45613606D01*
X75122338Y-46425872D01*
X74238712Y-47309500D01*
X55436198Y-47309500D01*
X55270431Y-47143733D01*
X55006720Y-47034500D01*
X54721280Y-47034500D01*
X54457569Y-47143733D01*
X54255733Y-47345569D01*
X54146500Y-47609280D01*
X54146500Y-47894720D01*
X54204399Y-48034500D01*
X53674580Y-48034500D01*
X53630999Y-48025831D01*
X53587418Y-48034500D01*
X53458345Y-48060174D01*
X53311975Y-48157975D01*
X53287286Y-48194926D01*
X52415712Y-49066500D01*
X52181280Y-49066500D01*
X51917569Y-49175733D01*
X51715733Y-49377569D01*
X51606500Y-49641280D01*
X46183500Y-49641280D01*
X46183500Y-49387280D01*
X46074267Y-49123569D01*
X45872431Y-48921733D01*
X45608720Y-48812500D01*
X45323280Y-48812500D01*
X45059569Y-48921733D01*
X44893802Y-49087500D01*
X34981290Y-49087500D01*
X34097337Y-48203549D01*
X34097337Y-47355280D01*
X34334500Y-47355280D01*
X34334500Y-47640720D01*
X34443733Y-47904431D01*
X34645569Y-48106267D01*
X34909280Y-48215500D01*
X35194720Y-48215500D01*
X35458431Y-48106267D01*
X35660267Y-47904431D01*
X35769500Y-47640720D01*
X35769500Y-47406288D01*
X36350075Y-46825714D01*
X36387025Y-46801025D01*
X36484826Y-46654655D01*
X36510500Y-46525582D01*
X36510500Y-46525581D01*
X36519169Y-46482000D01*
X36510500Y-46438418D01*
X36510500Y-44234729D01*
X42172303Y-44234729D01*
X42172303Y-44719757D01*
X42357915Y-45167865D01*
X42700881Y-45510831D01*
X43148989Y-45696443D01*
X43634017Y-45696443D01*
X44082125Y-45510831D01*
X44425091Y-45167865D01*
X44610703Y-44719757D01*
X44610703Y-44234729D01*
X44712303Y-44234729D01*
X44712303Y-44719757D01*
X44897915Y-45167865D01*
X45240881Y-45510831D01*
X45688989Y-45696443D01*
X46174017Y-45696443D01*
X46622125Y-45510831D01*
X46965091Y-45167865D01*
X47150703Y-44719757D01*
X47150703Y-44234729D01*
X46965091Y-43786621D01*
X46622125Y-43443655D01*
X46174017Y-43258043D01*
X45688989Y-43258043D01*
X45240881Y-43443655D01*
X44897915Y-43786621D01*
X44712303Y-44234729D01*
X44610703Y-44234729D01*
X44425091Y-43786621D01*
X44082125Y-43443655D01*
X43865438Y-43353900D01*
X44358839Y-42860500D01*
X48838712Y-42860500D01*
X49595500Y-43617289D01*
X49595501Y-44004890D01*
X49505091Y-43786621D01*
X49162125Y-43443655D01*
X48714017Y-43258043D01*
X48228989Y-43258043D01*
X47780881Y-43443655D01*
X47437915Y-43786621D01*
X47252303Y-44234729D01*
X47252303Y-44719757D01*
X47437915Y-45167865D01*
X47780881Y-45510831D01*
X48029003Y-45613606D01*
X48029003Y-46341208D01*
X47843711Y-46526500D01*
X47609280Y-46526500D01*
X47345569Y-46635733D01*
X47143733Y-46837569D01*
X47034500Y-47101280D01*
X47034500Y-47386720D01*
X47143733Y-47650431D01*
X47345569Y-47852267D01*
X47609280Y-47961500D01*
X47894720Y-47961500D01*
X48158431Y-47852267D01*
X48360267Y-47650431D01*
X48469500Y-47386720D01*
X48469500Y-47152289D01*
X48753578Y-46868211D01*
X48790528Y-46843522D01*
X48888329Y-46697152D01*
X48914003Y-46568079D01*
X48914003Y-46568078D01*
X48922672Y-46524497D01*
X48914003Y-46480915D01*
X48914003Y-45613606D01*
X49162125Y-45510831D01*
X49505091Y-45167865D01*
X49595500Y-44949597D01*
X49595501Y-46671801D01*
X49429733Y-46837569D01*
X49320500Y-47101280D01*
X49320500Y-47386720D01*
X49429733Y-47650431D01*
X49631569Y-47852267D01*
X49895280Y-47961500D01*
X50180720Y-47961500D01*
X50444431Y-47852267D01*
X50646267Y-47650431D01*
X50755500Y-47386720D01*
X50755500Y-47101280D01*
X50646267Y-46837569D01*
X50480500Y-46671802D01*
X50480500Y-44234729D01*
X56988969Y-44234729D01*
X56988969Y-44719757D01*
X57174581Y-45167865D01*
X57517547Y-45510831D01*
X57965655Y-45696443D01*
X58450683Y-45696443D01*
X58898791Y-45510831D01*
X59241757Y-45167865D01*
X59427369Y-44719757D01*
X59427369Y-44234729D01*
X59528969Y-44234729D01*
X59528969Y-44719757D01*
X59714581Y-45167865D01*
X60057547Y-45510831D01*
X60505655Y-45696443D01*
X60990683Y-45696443D01*
X61438791Y-45510831D01*
X61781757Y-45167865D01*
X61967369Y-44719757D01*
X61967369Y-44234729D01*
X62068969Y-44234729D01*
X62068969Y-44719757D01*
X62254581Y-45167865D01*
X62597547Y-45510831D01*
X63045655Y-45696443D01*
X63530683Y-45696443D01*
X63978791Y-45510831D01*
X64321757Y-45167865D01*
X64507369Y-44719757D01*
X64507369Y-44234729D01*
X71805637Y-44234729D01*
X71805637Y-44719757D01*
X71991249Y-45167865D01*
X72334215Y-45510831D01*
X72782323Y-45696443D01*
X73267351Y-45696443D01*
X73715459Y-45510831D01*
X74058425Y-45167865D01*
X74244037Y-44719757D01*
X74244037Y-44234729D01*
X74058425Y-43786621D01*
X73715459Y-43443655D01*
X73267351Y-43258043D01*
X72782323Y-43258043D01*
X72334215Y-43443655D01*
X71991249Y-43786621D01*
X71805637Y-44234729D01*
X64507369Y-44234729D01*
X64321757Y-43786621D01*
X63978791Y-43443655D01*
X63530683Y-43258043D01*
X63045655Y-43258043D01*
X62597547Y-43443655D01*
X62254581Y-43786621D01*
X62068969Y-44234729D01*
X61967369Y-44234729D01*
X61781757Y-43786621D01*
X61438791Y-43443655D01*
X60990683Y-43258043D01*
X60505655Y-43258043D01*
X60057547Y-43443655D01*
X59714581Y-43786621D01*
X59528969Y-44234729D01*
X59427369Y-44234729D01*
X59241757Y-43786621D01*
X58898791Y-43443655D01*
X58450683Y-43258043D01*
X57965655Y-43258043D01*
X57517547Y-43443655D01*
X57174581Y-43786621D01*
X56988969Y-44234729D01*
X50480500Y-44234729D01*
X50480500Y-43477582D01*
X50489169Y-43434000D01*
X50454826Y-43261345D01*
X50415204Y-43202047D01*
X50357025Y-43114975D01*
X50320075Y-43090286D01*
X49365716Y-42135928D01*
X49341025Y-42098975D01*
X49194655Y-42001174D01*
X49065582Y-41975500D01*
X49022000Y-41966831D01*
X48978418Y-41975500D01*
X44219132Y-41975500D01*
X44175550Y-41966831D01*
X44131968Y-41975500D01*
X44002895Y-42001174D01*
X43856525Y-42098975D01*
X43831835Y-42135926D01*
X43109429Y-42858333D01*
X43072479Y-42883022D01*
X43005789Y-42982831D01*
X42974677Y-43029393D01*
X42940334Y-43202047D01*
X42949004Y-43245634D01*
X42949004Y-43340879D01*
X42700881Y-43443655D01*
X42357915Y-43786621D01*
X42172303Y-44234729D01*
X36510500Y-44234729D01*
X36510500Y-42990198D01*
X36676267Y-42824431D01*
X36785500Y-42560720D01*
X36785500Y-42275280D01*
X36676267Y-42011569D01*
X36474431Y-41809733D01*
X36210720Y-41700500D01*
X35925280Y-41700500D01*
X35661569Y-41809733D01*
X35459733Y-42011569D01*
X35350500Y-42275280D01*
X35350500Y-42560720D01*
X35459733Y-42824431D01*
X35625501Y-42990199D01*
X35625500Y-46298711D01*
X35143712Y-46780500D01*
X34909280Y-46780500D01*
X34645569Y-46889733D01*
X34443733Y-47091569D01*
X34334500Y-47355280D01*
X34097337Y-47355280D01*
X34097337Y-45613606D01*
X34345459Y-45510831D01*
X34688425Y-45167865D01*
X34874037Y-44719757D01*
X34874037Y-44234729D01*
X34688425Y-43786621D01*
X34345459Y-43443655D01*
X33897351Y-43258043D01*
X33412323Y-43258043D01*
X32964215Y-43443655D01*
X32621249Y-43786621D01*
X32435637Y-44234729D01*
X32435637Y-44719757D01*
X32621249Y-45167865D01*
X32964215Y-45510831D01*
X33212337Y-45613606D01*
X33212338Y-48343250D01*
X33203668Y-48386837D01*
X33238011Y-48559491D01*
X33238012Y-48559492D01*
X33335813Y-48705862D01*
X33372763Y-48730551D01*
X34237710Y-49595500D01*
X30047289Y-49595500D01*
X29016498Y-48564710D01*
X29353220Y-48339720D01*
X29611260Y-47953536D01*
X29701872Y-47498000D01*
X29861128Y-47498000D01*
X29951740Y-47953536D01*
X30209780Y-48339720D01*
X30595964Y-48597760D01*
X30936515Y-48665500D01*
X31166485Y-48665500D01*
X31507036Y-48597760D01*
X31893220Y-48339720D01*
X32151260Y-47953536D01*
X32241872Y-47498000D01*
X32151260Y-47042464D01*
X31893220Y-46656280D01*
X31507036Y-46398240D01*
X31166485Y-46330500D01*
X30936515Y-46330500D01*
X30595964Y-46398240D01*
X30209780Y-46656280D01*
X29951740Y-47042464D01*
X29861128Y-47498000D01*
X29701872Y-47498000D01*
X29611260Y-47042464D01*
X29353220Y-46656280D01*
X28967036Y-46398240D01*
X28626485Y-46330500D01*
X28396515Y-46330500D01*
X28055964Y-46398240D01*
X27669780Y-46656280D01*
X27411740Y-47042464D01*
X27321128Y-47498000D01*
X24522500Y-47498000D01*
X24522500Y-46575695D01*
X24758000Y-46575695D01*
X24758000Y-47320625D01*
X24848875Y-47411500D01*
X25885000Y-47411500D01*
X25885000Y-46375375D01*
X26058000Y-46375375D01*
X26058000Y-47411500D01*
X27094125Y-47411500D01*
X27185000Y-47320625D01*
X27185000Y-46575695D01*
X27129660Y-46442093D01*
X27027406Y-46339839D01*
X26893804Y-46284500D01*
X26148875Y-46284500D01*
X26058000Y-46375375D01*
X25885000Y-46375375D01*
X25794125Y-46284500D01*
X25049196Y-46284500D01*
X24915594Y-46339839D01*
X24813340Y-46442093D01*
X24758000Y-46575695D01*
X24522500Y-46575695D01*
X24522500Y-44234729D01*
X27355637Y-44234729D01*
X27355637Y-44719757D01*
X27541249Y-45167865D01*
X27884215Y-45510831D01*
X28332323Y-45696443D01*
X28817351Y-45696443D01*
X29265459Y-45510831D01*
X29608425Y-45167865D01*
X29794037Y-44719757D01*
X29794037Y-44234729D01*
X29895637Y-44234729D01*
X29895637Y-44719757D01*
X30081249Y-45167865D01*
X30424215Y-45510831D01*
X30872323Y-45696443D01*
X31357351Y-45696443D01*
X31805459Y-45510831D01*
X32148425Y-45167865D01*
X32334037Y-44719757D01*
X32334037Y-44234729D01*
X32148425Y-43786621D01*
X31805459Y-43443655D01*
X31357351Y-43258043D01*
X30872323Y-43258043D01*
X30424215Y-43443655D01*
X30081249Y-43786621D01*
X29895637Y-44234729D01*
X29794037Y-44234729D01*
X29608425Y-43786621D01*
X29265459Y-43443655D01*
X28817351Y-43258043D01*
X28332323Y-43258043D01*
X27884215Y-43443655D01*
X27541249Y-43786621D01*
X27355637Y-44234729D01*
X24522500Y-44234729D01*
X24522500Y-37138439D01*
X25069637Y-37138439D01*
X25069637Y-37795247D01*
X25320987Y-38402059D01*
X25785421Y-38866493D01*
X26392233Y-39117843D01*
X27049041Y-39117843D01*
X27655853Y-38866493D01*
X28120287Y-38402059D01*
X28371637Y-37795247D01*
X28371637Y-37138439D01*
X33858037Y-37138439D01*
X33858037Y-37795247D01*
X34109387Y-38402059D01*
X34573821Y-38866493D01*
X35180633Y-39117843D01*
X35837441Y-39117843D01*
X36444253Y-38866493D01*
X36908687Y-38402059D01*
X37160037Y-37795247D01*
X37160037Y-37138439D01*
X39886303Y-37138439D01*
X39886303Y-37795247D01*
X40137653Y-38402059D01*
X40602087Y-38866493D01*
X41208899Y-39117843D01*
X41865707Y-39117843D01*
X42472519Y-38866493D01*
X42936953Y-38402059D01*
X43188303Y-37795247D01*
X43188303Y-37138439D01*
X48674703Y-37138439D01*
X48674703Y-37795247D01*
X48926053Y-38402059D01*
X49390487Y-38866493D01*
X49997299Y-39117843D01*
X50654107Y-39117843D01*
X51260919Y-38866493D01*
X51725353Y-38402059D01*
X51976703Y-37795247D01*
X51976703Y-37138439D01*
X54702969Y-37138439D01*
X54702969Y-37795247D01*
X54954319Y-38402059D01*
X55418753Y-38866493D01*
X56025565Y-39117843D01*
X56682373Y-39117843D01*
X57289185Y-38866493D01*
X57753619Y-38402059D01*
X58004969Y-37795247D01*
X58004969Y-37138439D01*
X63491369Y-37138439D01*
X63491369Y-37795247D01*
X63742719Y-38402059D01*
X64207153Y-38866493D01*
X64813965Y-39117843D01*
X65470773Y-39117843D01*
X66077585Y-38866493D01*
X66542019Y-38402059D01*
X66793369Y-37795247D01*
X66793369Y-37138439D01*
X69519637Y-37138439D01*
X69519637Y-37795247D01*
X69770987Y-38402059D01*
X70235421Y-38866493D01*
X70842233Y-39117843D01*
X71499041Y-39117843D01*
X72105853Y-38866493D01*
X72570287Y-38402059D01*
X72821637Y-37795247D01*
X72821637Y-37138439D01*
X78308037Y-37138439D01*
X78308037Y-37795247D01*
X78559387Y-38402059D01*
X79023821Y-38866493D01*
X79630633Y-39117843D01*
X80287441Y-39117843D01*
X80894253Y-38866493D01*
X81358687Y-38402059D01*
X81610037Y-37795247D01*
X81610037Y-37138439D01*
X81358687Y-36531627D01*
X80894253Y-36067193D01*
X80287441Y-35815843D01*
X79630633Y-35815843D01*
X79023821Y-36067193D01*
X78559387Y-36531627D01*
X78308037Y-37138439D01*
X72821637Y-37138439D01*
X72570287Y-36531627D01*
X72105853Y-36067193D01*
X71499041Y-35815843D01*
X70842233Y-35815843D01*
X70235421Y-36067193D01*
X69770987Y-36531627D01*
X69519637Y-37138439D01*
X66793369Y-37138439D01*
X66542019Y-36531627D01*
X66077585Y-36067193D01*
X65470773Y-35815843D01*
X64813965Y-35815843D01*
X64207153Y-36067193D01*
X63742719Y-36531627D01*
X63491369Y-37138439D01*
X58004969Y-37138439D01*
X57753619Y-36531627D01*
X57289185Y-36067193D01*
X56682373Y-35815843D01*
X56025565Y-35815843D01*
X55418753Y-36067193D01*
X54954319Y-36531627D01*
X54702969Y-37138439D01*
X51976703Y-37138439D01*
X51725353Y-36531627D01*
X51260919Y-36067193D01*
X50654107Y-35815843D01*
X49997299Y-35815843D01*
X49390487Y-36067193D01*
X48926053Y-36531627D01*
X48674703Y-37138439D01*
X43188303Y-37138439D01*
X42936953Y-36531627D01*
X42472519Y-36067193D01*
X41865707Y-35815843D01*
X41208899Y-35815843D01*
X40602087Y-36067193D01*
X40137653Y-36531627D01*
X39886303Y-37138439D01*
X37160037Y-37138439D01*
X36908687Y-36531627D01*
X36444253Y-36067193D01*
X35837441Y-35815843D01*
X35180633Y-35815843D01*
X34573821Y-36067193D01*
X34109387Y-36531627D01*
X33858037Y-37138439D01*
X28371637Y-37138439D01*
X28120287Y-36531627D01*
X27655853Y-36067193D01*
X27049041Y-35815843D01*
X26392233Y-35815843D01*
X25785421Y-36067193D01*
X25320987Y-36531627D01*
X25069637Y-37138439D01*
X24522500Y-37138439D01*
X24522500Y-32142500D01*
X82157500Y-32142500D01*
X82157501Y-59932500D01*
X82157501Y-59932500D01*
G37*
X82157501Y-59932500D02*
X24522500Y-59932500D01*
X24522500Y-57007280D01*
X53638500Y-57007280D01*
X53638500Y-57292720D01*
X53747733Y-57556431D01*
X53949569Y-57758267D01*
X54213280Y-57867500D01*
X54498720Y-57867500D01*
X54554933Y-57844216D01*
X54566418Y-57846500D01*
X54609999Y-57855169D01*
X54653580Y-57846500D01*
X61911802Y-57846500D01*
X62077569Y-58012267D01*
X62341280Y-58121500D01*
X62626720Y-58121500D01*
X62890431Y-58012267D01*
X63092267Y-57810431D01*
X63201500Y-57546720D01*
X63201500Y-57261280D01*
X63092267Y-56997569D01*
X62890431Y-56795733D01*
X62626720Y-56686500D01*
X62341280Y-56686500D01*
X62077569Y-56795733D01*
X61911802Y-56961500D01*
X55054537Y-56961500D01*
X54964267Y-56743569D01*
X54762431Y-56541733D01*
X54498720Y-56432500D01*
X54213280Y-56432500D01*
X53949569Y-56541733D01*
X53747733Y-56743569D01*
X53638500Y-57007280D01*
X24522500Y-57007280D01*
X24522500Y-54989855D01*
X24625300Y-54989855D01*
X24625300Y-55500145D01*
X24820579Y-55971591D01*
X25181409Y-56332421D01*
X25652855Y-56527700D01*
X26163145Y-56527700D01*
X26634591Y-56332421D01*
X26995421Y-55971591D01*
X27190700Y-55500145D01*
X27190700Y-54989855D01*
X33185100Y-54989855D01*
X33185100Y-55500145D01*
X33380379Y-55971591D01*
X33741209Y-56332421D01*
X34212655Y-56527700D01*
X34722945Y-56527700D01*
X35194391Y-56332421D01*
X35329062Y-56197750D01*
X36050379Y-56197750D01*
X36156114Y-56389607D01*
X36649300Y-56579805D01*
X37177729Y-56566790D01*
X37605486Y-56389607D01*
X37711221Y-56197750D01*
X36880800Y-55367329D01*
X36050379Y-56197750D01*
X35329062Y-56197750D01*
X35555221Y-55971591D01*
X35646101Y-55752186D01*
X35736193Y-55969686D01*
X35928050Y-56075421D01*
X36758471Y-55245000D01*
X37003129Y-55245000D01*
X37833550Y-56075421D01*
X38025407Y-55969686D01*
X38144500Y-55660876D01*
X38144500Y-55768720D01*
X38253733Y-56032431D01*
X38455569Y-56234267D01*
X38719280Y-56343500D01*
X39004720Y-56343500D01*
X39268431Y-56234267D01*
X39304948Y-56197750D01*
X68968779Y-56197750D01*
X69074514Y-56389607D01*
X69567700Y-56579805D01*
X70096129Y-56566790D01*
X70523886Y-56389607D01*
X70629621Y-56197750D01*
X69799200Y-55367329D01*
X68968779Y-56197750D01*
X39304948Y-56197750D01*
X39434198Y-56068500D01*
X44152418Y-56068500D01*
X44196000Y-56077169D01*
X44239582Y-56068500D01*
X44251067Y-56066216D01*
X44307280Y-56089500D01*
X44592720Y-56089500D01*
X44856431Y-55980267D01*
X45058267Y-55778431D01*
X45167500Y-55514720D01*
X45167500Y-55229280D01*
X45078121Y-55013500D01*
X68464395Y-55013500D01*
X68477410Y-55541929D01*
X68654593Y-55969686D01*
X68846450Y-56075421D01*
X69676871Y-55245000D01*
X69921529Y-55245000D01*
X70751950Y-56075421D01*
X70943807Y-55969686D01*
X71030682Y-55744419D01*
X71124779Y-55971591D01*
X71485609Y-56332421D01*
X71957055Y-56527700D01*
X72467345Y-56527700D01*
X72938791Y-56332421D01*
X73299621Y-55971591D01*
X73494900Y-55500145D01*
X73494900Y-54989855D01*
X79489300Y-54989855D01*
X79489300Y-55500145D01*
X79684579Y-55971591D01*
X80045409Y-56332421D01*
X80516855Y-56527700D01*
X81027145Y-56527700D01*
X81498591Y-56332421D01*
X81859421Y-55971591D01*
X82054700Y-55500145D01*
X82054700Y-54989855D01*
X81859421Y-54518409D01*
X81498591Y-54157579D01*
X81027145Y-53962300D01*
X80516855Y-53962300D01*
X80045409Y-54157579D01*
X79684579Y-54518409D01*
X79489300Y-54989855D01*
X73494900Y-54989855D01*
X73299621Y-54518409D01*
X72938791Y-54157579D01*
X72467345Y-53962300D01*
X71957055Y-53962300D01*
X71485609Y-54157579D01*
X71124779Y-54518409D01*
X71033899Y-54737814D01*
X70943807Y-54520314D01*
X70751950Y-54414579D01*
X69921529Y-55245000D01*
X69676871Y-55245000D01*
X68846450Y-54414579D01*
X68654593Y-54520314D01*
X68464395Y-55013500D01*
X45078121Y-55013500D01*
X45058267Y-54965569D01*
X44856431Y-54763733D01*
X44592720Y-54654500D01*
X44307280Y-54654500D01*
X44043569Y-54763733D01*
X43841733Y-54965569D01*
X43751463Y-55183500D01*
X39434198Y-55183500D01*
X39268431Y-55017733D01*
X39004720Y-54908500D01*
X38719280Y-54908500D01*
X38455569Y-55017733D01*
X38253733Y-55219569D01*
X38211772Y-55320872D01*
X38202590Y-54948071D01*
X38025407Y-54520314D01*
X37833550Y-54414579D01*
X37003129Y-55245000D01*
X36758471Y-55245000D01*
X35928050Y-54414579D01*
X35736193Y-54520314D01*
X35649318Y-54745581D01*
X35555221Y-54518409D01*
X35329062Y-54292250D01*
X36050379Y-54292250D01*
X36880800Y-55122671D01*
X37711221Y-54292250D01*
X68968779Y-54292250D01*
X69799200Y-55122671D01*
X70629621Y-54292250D01*
X70523886Y-54100393D01*
X70030700Y-53910195D01*
X69502271Y-53923210D01*
X69074514Y-54100393D01*
X68968779Y-54292250D01*
X37711221Y-54292250D01*
X37605486Y-54100393D01*
X37112300Y-53910195D01*
X36583871Y-53923210D01*
X36156114Y-54100393D01*
X36050379Y-54292250D01*
X35329062Y-54292250D01*
X35194391Y-54157579D01*
X34722945Y-53962300D01*
X34212655Y-53962300D01*
X33741209Y-54157579D01*
X33380379Y-54518409D01*
X33185100Y-54989855D01*
X27190700Y-54989855D01*
X26995421Y-54518409D01*
X26634591Y-54157579D01*
X26163145Y-53962300D01*
X25652855Y-53962300D01*
X25181409Y-54157579D01*
X24820579Y-54518409D01*
X24625300Y-54989855D01*
X24522500Y-54989855D01*
X24522500Y-52435280D01*
X45764500Y-52435280D01*
X45764500Y-52720720D01*
X45873733Y-52984431D01*
X46075569Y-53186267D01*
X46339280Y-53295500D01*
X46573711Y-53295500D01*
X46646285Y-53368074D01*
X46670975Y-53405025D01*
X46817345Y-53502826D01*
X46946418Y-53528500D01*
X46989999Y-53537169D01*
X47033580Y-53528500D01*
X52767802Y-53528500D01*
X52933569Y-53694267D01*
X53197280Y-53803500D01*
X53482720Y-53803500D01*
X53746431Y-53694267D01*
X53912198Y-53528500D01*
X58122418Y-53528500D01*
X58166000Y-53537169D01*
X58209582Y-53528500D01*
X58338655Y-53502826D01*
X58485025Y-53405025D01*
X58509716Y-53368072D01*
X59090289Y-52787500D01*
X59324720Y-52787500D01*
X59588431Y-52678267D01*
X59790267Y-52476431D01*
X59899500Y-52212720D01*
X59899500Y-51927280D01*
X59790267Y-51663569D01*
X59588431Y-51461733D01*
X59324720Y-51352500D01*
X59039280Y-51352500D01*
X58775569Y-51461733D01*
X58573733Y-51663569D01*
X58464500Y-51927280D01*
X58464500Y-52161711D01*
X57982712Y-52643500D01*
X53912198Y-52643500D01*
X53746431Y-52477733D01*
X53482720Y-52368500D01*
X53197280Y-52368500D01*
X52933569Y-52477733D01*
X52767802Y-52643500D01*
X47199500Y-52643500D01*
X47199500Y-52435280D01*
X47090267Y-52171569D01*
X46888431Y-51969733D01*
X46624720Y-51860500D01*
X46339280Y-51860500D01*
X46075569Y-51969733D01*
X45873733Y-52171569D01*
X45764500Y-52435280D01*
X24522500Y-52435280D01*
X24522500Y-47675375D01*
X24758000Y-47675375D01*
X24758000Y-48420305D01*
X24813340Y-48553907D01*
X24915594Y-48656161D01*
X25049196Y-48711500D01*
X25794125Y-48711500D01*
X25885000Y-48620625D01*
X25885000Y-47584500D01*
X26058000Y-47584500D01*
X26058000Y-48620625D01*
X26148875Y-48711500D01*
X26893804Y-48711500D01*
X27027406Y-48656161D01*
X27129660Y-48553907D01*
X27185000Y-48420305D01*
X27185000Y-47675375D01*
X27094125Y-47584500D01*
X26058000Y-47584500D01*
X25885000Y-47584500D01*
X24848875Y-47584500D01*
X24758000Y-47675375D01*
X24522500Y-47675375D01*
X24522500Y-47498000D01*
X27321128Y-47498000D01*
X27411740Y-47953536D01*
X27669780Y-48339720D01*
X28005501Y-48564042D01*
X28005501Y-48578413D01*
X27996831Y-48622000D01*
X28031174Y-48794654D01*
X28052863Y-48827114D01*
X28128976Y-48941025D01*
X28165926Y-48965714D01*
X29520286Y-50320075D01*
X29544975Y-50357025D01*
X29691345Y-50454826D01*
X29820418Y-50480500D01*
X29863999Y-50489169D01*
X29907580Y-50480500D01*
X36646712Y-50480500D01*
X37128500Y-50962289D01*
X37128500Y-51196720D01*
X37237733Y-51460431D01*
X37439569Y-51662267D01*
X37703280Y-51771500D01*
X37988720Y-51771500D01*
X38252431Y-51662267D01*
X38418198Y-51496500D01*
X49211802Y-51496500D01*
X49377569Y-51662267D01*
X49641280Y-51771500D01*
X49926720Y-51771500D01*
X50190431Y-51662267D01*
X50392267Y-51460431D01*
X50501500Y-51196720D01*
X50501500Y-50911280D01*
X50392267Y-50647569D01*
X50190431Y-50445733D01*
X49926720Y-50336500D01*
X49641280Y-50336500D01*
X49377569Y-50445733D01*
X49211802Y-50611500D01*
X38418198Y-50611500D01*
X38252431Y-50445733D01*
X37988720Y-50336500D01*
X37754289Y-50336500D01*
X37390288Y-49972500D01*
X44893802Y-49972500D01*
X45059569Y-50138267D01*
X45323280Y-50247500D01*
X45608720Y-50247500D01*
X45872431Y-50138267D01*
X46074267Y-49936431D01*
X46183500Y-49672720D01*
X46183500Y-49641280D01*
X51606500Y-49641280D01*
X51606500Y-49926720D01*
X51715733Y-50190431D01*
X51917569Y-50392267D01*
X52181280Y-50501500D01*
X52466720Y-50501500D01*
X52730431Y-50392267D01*
X52932267Y-50190431D01*
X53041500Y-49926720D01*
X53041500Y-49692288D01*
X53814289Y-48919500D01*
X65721802Y-48919500D01*
X65887569Y-49085267D01*
X66151280Y-49194500D01*
X66436720Y-49194500D01*
X66700431Y-49085267D01*
X66902267Y-48883431D01*
X67011500Y-48619720D01*
X67011500Y-48334280D01*
X66953601Y-48194500D01*
X74378418Y-48194500D01*
X74422000Y-48203169D01*
X74465582Y-48194500D01*
X74594655Y-48168826D01*
X74741025Y-48071025D01*
X74765716Y-48034072D01*
X75846914Y-46952876D01*
X75883862Y-46928188D01*
X75981663Y-46781818D01*
X76007337Y-46652745D01*
X76016006Y-46609163D01*
X76007337Y-46565581D01*
X76007337Y-45613606D01*
X76255459Y-45510831D01*
X76598425Y-45167865D01*
X76701200Y-44919743D01*
X76968474Y-44919743D01*
X77071249Y-45167865D01*
X77414215Y-45510831D01*
X77862323Y-45696443D01*
X78347351Y-45696443D01*
X78795459Y-45510831D01*
X79138425Y-45167865D01*
X79324037Y-44719757D01*
X79324037Y-44234729D01*
X79138425Y-43786621D01*
X78795459Y-43443655D01*
X78347351Y-43258043D01*
X77862323Y-43258043D01*
X77414215Y-43443655D01*
X77071249Y-43786621D01*
X76968474Y-44034743D01*
X76701200Y-44034743D01*
X76598425Y-43786621D01*
X76255459Y-43443655D01*
X75807351Y-43258043D01*
X75322323Y-43258043D01*
X74874215Y-43443655D01*
X74531249Y-43786621D01*
X74345637Y-44234729D01*
X74345637Y-44719757D01*
X74531249Y-45167865D01*
X74874215Y-45510831D01*
X75122338Y-45613606D01*
X75122338Y-46425872D01*
X74238712Y-47309500D01*
X55436198Y-47309500D01*
X55270431Y-47143733D01*
X55006720Y-47034500D01*
X54721280Y-47034500D01*
X54457569Y-47143733D01*
X54255733Y-47345569D01*
X54146500Y-47609280D01*
X54146500Y-47894720D01*
X54204399Y-48034500D01*
X53674580Y-48034500D01*
X53630999Y-48025831D01*
X53587418Y-48034500D01*
X53458345Y-48060174D01*
X53311975Y-48157975D01*
X53287286Y-48194926D01*
X52415712Y-49066500D01*
X52181280Y-49066500D01*
X51917569Y-49175733D01*
X51715733Y-49377569D01*
X51606500Y-49641280D01*
X46183500Y-49641280D01*
X46183500Y-49387280D01*
X46074267Y-49123569D01*
X45872431Y-48921733D01*
X45608720Y-48812500D01*
X45323280Y-48812500D01*
X45059569Y-48921733D01*
X44893802Y-49087500D01*
X34981290Y-49087500D01*
X34097337Y-48203549D01*
X34097337Y-47355280D01*
X34334500Y-47355280D01*
X34334500Y-47640720D01*
X34443733Y-47904431D01*
X34645569Y-48106267D01*
X34909280Y-48215500D01*
X35194720Y-48215500D01*
X35458431Y-48106267D01*
X35660267Y-47904431D01*
X35769500Y-47640720D01*
X35769500Y-47406288D01*
X36350075Y-46825714D01*
X36387025Y-46801025D01*
X36484826Y-46654655D01*
X36510500Y-46525582D01*
X36510500Y-46525581D01*
X36519169Y-46482000D01*
X36510500Y-46438418D01*
X36510500Y-44234729D01*
X42172303Y-44234729D01*
X42172303Y-44719757D01*
X42357915Y-45167865D01*
X42700881Y-45510831D01*
X43148989Y-45696443D01*
X43634017Y-45696443D01*
X44082125Y-45510831D01*
X44425091Y-45167865D01*
X44610703Y-44719757D01*
X44610703Y-44234729D01*
X44712303Y-44234729D01*
X44712303Y-44719757D01*
X44897915Y-45167865D01*
X45240881Y-45510831D01*
X45688989Y-45696443D01*
X46174017Y-45696443D01*
X46622125Y-45510831D01*
X46965091Y-45167865D01*
X47150703Y-44719757D01*
X47150703Y-44234729D01*
X46965091Y-43786621D01*
X46622125Y-43443655D01*
X46174017Y-43258043D01*
X45688989Y-43258043D01*
X45240881Y-43443655D01*
X44897915Y-43786621D01*
X44712303Y-44234729D01*
X44610703Y-44234729D01*
X44425091Y-43786621D01*
X44082125Y-43443655D01*
X43865438Y-43353900D01*
X44358839Y-42860500D01*
X48838712Y-42860500D01*
X49595500Y-43617289D01*
X49595501Y-44004890D01*
X49505091Y-43786621D01*
X49162125Y-43443655D01*
X48714017Y-43258043D01*
X48228989Y-43258043D01*
X47780881Y-43443655D01*
X47437915Y-43786621D01*
X47252303Y-44234729D01*
X47252303Y-44719757D01*
X47437915Y-45167865D01*
X47780881Y-45510831D01*
X48029003Y-45613606D01*
X48029003Y-46341208D01*
X47843711Y-46526500D01*
X47609280Y-46526500D01*
X47345569Y-46635733D01*
X47143733Y-46837569D01*
X47034500Y-47101280D01*
X47034500Y-47386720D01*
X47143733Y-47650431D01*
X47345569Y-47852267D01*
X47609280Y-47961500D01*
X47894720Y-47961500D01*
X48158431Y-47852267D01*
X48360267Y-47650431D01*
X48469500Y-47386720D01*
X48469500Y-47152289D01*
X48753578Y-46868211D01*
X48790528Y-46843522D01*
X48888329Y-46697152D01*
X48914003Y-46568079D01*
X48914003Y-46568078D01*
X48922672Y-46524497D01*
X48914003Y-46480915D01*
X48914003Y-45613606D01*
X49162125Y-45510831D01*
X49505091Y-45167865D01*
X49595500Y-44949597D01*
X49595501Y-46671801D01*
X49429733Y-46837569D01*
X49320500Y-47101280D01*
X49320500Y-47386720D01*
X49429733Y-47650431D01*
X49631569Y-47852267D01*
X49895280Y-47961500D01*
X50180720Y-47961500D01*
X50444431Y-47852267D01*
X50646267Y-47650431D01*
X50755500Y-47386720D01*
X50755500Y-47101280D01*
X50646267Y-46837569D01*
X50480500Y-46671802D01*
X50480500Y-44234729D01*
X56988969Y-44234729D01*
X56988969Y-44719757D01*
X57174581Y-45167865D01*
X57517547Y-45510831D01*
X57965655Y-45696443D01*
X58450683Y-45696443D01*
X58898791Y-45510831D01*
X59241757Y-45167865D01*
X59427369Y-44719757D01*
X59427369Y-44234729D01*
X59528969Y-44234729D01*
X59528969Y-44719757D01*
X59714581Y-45167865D01*
X60057547Y-45510831D01*
X60505655Y-45696443D01*
X60990683Y-45696443D01*
X61438791Y-45510831D01*
X61781757Y-45167865D01*
X61967369Y-44719757D01*
X61967369Y-44234729D01*
X62068969Y-44234729D01*
X62068969Y-44719757D01*
X62254581Y-45167865D01*
X62597547Y-45510831D01*
X63045655Y-45696443D01*
X63530683Y-45696443D01*
X63978791Y-45510831D01*
X64321757Y-45167865D01*
X64507369Y-44719757D01*
X64507369Y-44234729D01*
X71805637Y-44234729D01*
X71805637Y-44719757D01*
X71991249Y-45167865D01*
X72334215Y-45510831D01*
X72782323Y-45696443D01*
X73267351Y-45696443D01*
X73715459Y-45510831D01*
X74058425Y-45167865D01*
X74244037Y-44719757D01*
X74244037Y-44234729D01*
X74058425Y-43786621D01*
X73715459Y-43443655D01*
X73267351Y-43258043D01*
X72782323Y-43258043D01*
X72334215Y-43443655D01*
X71991249Y-43786621D01*
X71805637Y-44234729D01*
X64507369Y-44234729D01*
X64321757Y-43786621D01*
X63978791Y-43443655D01*
X63530683Y-43258043D01*
X63045655Y-43258043D01*
X62597547Y-43443655D01*
X62254581Y-43786621D01*
X62068969Y-44234729D01*
X61967369Y-44234729D01*
X61781757Y-43786621D01*
X61438791Y-43443655D01*
X60990683Y-43258043D01*
X60505655Y-43258043D01*
X60057547Y-43443655D01*
X59714581Y-43786621D01*
X59528969Y-44234729D01*
X59427369Y-44234729D01*
X59241757Y-43786621D01*
X58898791Y-43443655D01*
X58450683Y-43258043D01*
X57965655Y-43258043D01*
X57517547Y-43443655D01*
X57174581Y-43786621D01*
X56988969Y-44234729D01*
X50480500Y-44234729D01*
X50480500Y-43477582D01*
X50489169Y-43434000D01*
X50454826Y-43261345D01*
X50415204Y-43202047D01*
X50357025Y-43114975D01*
X50320075Y-43090286D01*
X49365716Y-42135928D01*
X49341025Y-42098975D01*
X49194655Y-42001174D01*
X49065582Y-41975500D01*
X49022000Y-41966831D01*
X48978418Y-41975500D01*
X44219132Y-41975500D01*
X44175550Y-41966831D01*
X44131968Y-41975500D01*
X44002895Y-42001174D01*
X43856525Y-42098975D01*
X43831835Y-42135926D01*
X43109429Y-42858333D01*
X43072479Y-42883022D01*
X43005789Y-42982831D01*
X42974677Y-43029393D01*
X42940334Y-43202047D01*
X42949004Y-43245634D01*
X42949004Y-43340879D01*
X42700881Y-43443655D01*
X42357915Y-43786621D01*
X42172303Y-44234729D01*
X36510500Y-44234729D01*
X36510500Y-42990198D01*
X36676267Y-42824431D01*
X36785500Y-42560720D01*
X36785500Y-42275280D01*
X36676267Y-42011569D01*
X36474431Y-41809733D01*
X36210720Y-41700500D01*
X35925280Y-41700500D01*
X35661569Y-41809733D01*
X35459733Y-42011569D01*
X35350500Y-42275280D01*
X35350500Y-42560720D01*
X35459733Y-42824431D01*
X35625501Y-42990199D01*
X35625500Y-46298711D01*
X35143712Y-46780500D01*
X34909280Y-46780500D01*
X34645569Y-46889733D01*
X34443733Y-47091569D01*
X34334500Y-47355280D01*
X34097337Y-47355280D01*
X34097337Y-45613606D01*
X34345459Y-45510831D01*
X34688425Y-45167865D01*
X34874037Y-44719757D01*
X34874037Y-44234729D01*
X34688425Y-43786621D01*
X34345459Y-43443655D01*
X33897351Y-43258043D01*
X33412323Y-43258043D01*
X32964215Y-43443655D01*
X32621249Y-43786621D01*
X32435637Y-44234729D01*
X32435637Y-44719757D01*
X32621249Y-45167865D01*
X32964215Y-45510831D01*
X33212337Y-45613606D01*
X33212338Y-48343250D01*
X33203668Y-48386837D01*
X33238011Y-48559491D01*
X33238012Y-48559492D01*
X33335813Y-48705862D01*
X33372763Y-48730551D01*
X34237710Y-49595500D01*
X30047289Y-49595500D01*
X29016498Y-48564710D01*
X29353220Y-48339720D01*
X29611260Y-47953536D01*
X29701872Y-47498000D01*
X29861128Y-47498000D01*
X29951740Y-47953536D01*
X30209780Y-48339720D01*
X30595964Y-48597760D01*
X30936515Y-48665500D01*
X31166485Y-48665500D01*
X31507036Y-48597760D01*
X31893220Y-48339720D01*
X32151260Y-47953536D01*
X32241872Y-47498000D01*
X32151260Y-47042464D01*
X31893220Y-46656280D01*
X31507036Y-46398240D01*
X31166485Y-46330500D01*
X30936515Y-46330500D01*
X30595964Y-46398240D01*
X30209780Y-46656280D01*
X29951740Y-47042464D01*
X29861128Y-47498000D01*
X29701872Y-47498000D01*
X29611260Y-47042464D01*
X29353220Y-46656280D01*
X28967036Y-46398240D01*
X28626485Y-46330500D01*
X28396515Y-46330500D01*
X28055964Y-46398240D01*
X27669780Y-46656280D01*
X27411740Y-47042464D01*
X27321128Y-47498000D01*
X24522500Y-47498000D01*
X24522500Y-46575695D01*
X24758000Y-46575695D01*
X24758000Y-47320625D01*
X24848875Y-47411500D01*
X25885000Y-47411500D01*
X25885000Y-46375375D01*
X26058000Y-46375375D01*
X26058000Y-47411500D01*
X27094125Y-47411500D01*
X27185000Y-47320625D01*
X27185000Y-46575695D01*
X27129660Y-46442093D01*
X27027406Y-46339839D01*
X26893804Y-46284500D01*
X26148875Y-46284500D01*
X26058000Y-46375375D01*
X25885000Y-46375375D01*
X25794125Y-46284500D01*
X25049196Y-46284500D01*
X24915594Y-46339839D01*
X24813340Y-46442093D01*
X24758000Y-46575695D01*
X24522500Y-46575695D01*
X24522500Y-44234729D01*
X27355637Y-44234729D01*
X27355637Y-44719757D01*
X27541249Y-45167865D01*
X27884215Y-45510831D01*
X28332323Y-45696443D01*
X28817351Y-45696443D01*
X29265459Y-45510831D01*
X29608425Y-45167865D01*
X29794037Y-44719757D01*
X29794037Y-44234729D01*
X29895637Y-44234729D01*
X29895637Y-44719757D01*
X30081249Y-45167865D01*
X30424215Y-45510831D01*
X30872323Y-45696443D01*
X31357351Y-45696443D01*
X31805459Y-45510831D01*
X32148425Y-45167865D01*
X32334037Y-44719757D01*
X32334037Y-44234729D01*
X32148425Y-43786621D01*
X31805459Y-43443655D01*
X31357351Y-43258043D01*
X30872323Y-43258043D01*
X30424215Y-43443655D01*
X30081249Y-43786621D01*
X29895637Y-44234729D01*
X29794037Y-44234729D01*
X29608425Y-43786621D01*
X29265459Y-43443655D01*
X28817351Y-43258043D01*
X28332323Y-43258043D01*
X27884215Y-43443655D01*
X27541249Y-43786621D01*
X27355637Y-44234729D01*
X24522500Y-44234729D01*
X24522500Y-37138439D01*
X25069637Y-37138439D01*
X25069637Y-37795247D01*
X25320987Y-38402059D01*
X25785421Y-38866493D01*
X26392233Y-39117843D01*
X27049041Y-39117843D01*
X27655853Y-38866493D01*
X28120287Y-38402059D01*
X28371637Y-37795247D01*
X28371637Y-37138439D01*
X33858037Y-37138439D01*
X33858037Y-37795247D01*
X34109387Y-38402059D01*
X34573821Y-38866493D01*
X35180633Y-39117843D01*
X35837441Y-39117843D01*
X36444253Y-38866493D01*
X36908687Y-38402059D01*
X37160037Y-37795247D01*
X37160037Y-37138439D01*
X39886303Y-37138439D01*
X39886303Y-37795247D01*
X40137653Y-38402059D01*
X40602087Y-38866493D01*
X41208899Y-39117843D01*
X41865707Y-39117843D01*
X42472519Y-38866493D01*
X42936953Y-38402059D01*
X43188303Y-37795247D01*
X43188303Y-37138439D01*
X48674703Y-37138439D01*
X48674703Y-37795247D01*
X48926053Y-38402059D01*
X49390487Y-38866493D01*
X49997299Y-39117843D01*
X50654107Y-39117843D01*
X51260919Y-38866493D01*
X51725353Y-38402059D01*
X51976703Y-37795247D01*
X51976703Y-37138439D01*
X54702969Y-37138439D01*
X54702969Y-37795247D01*
X54954319Y-38402059D01*
X55418753Y-38866493D01*
X56025565Y-39117843D01*
X56682373Y-39117843D01*
X57289185Y-38866493D01*
X57753619Y-38402059D01*
X58004969Y-37795247D01*
X58004969Y-37138439D01*
X63491369Y-37138439D01*
X63491369Y-37795247D01*
X63742719Y-38402059D01*
X64207153Y-38866493D01*
X64813965Y-39117843D01*
X65470773Y-39117843D01*
X66077585Y-38866493D01*
X66542019Y-38402059D01*
X66793369Y-37795247D01*
X66793369Y-37138439D01*
X69519637Y-37138439D01*
X69519637Y-37795247D01*
X69770987Y-38402059D01*
X70235421Y-38866493D01*
X70842233Y-39117843D01*
X71499041Y-39117843D01*
X72105853Y-38866493D01*
X72570287Y-38402059D01*
X72821637Y-37795247D01*
X72821637Y-37138439D01*
X78308037Y-37138439D01*
X78308037Y-37795247D01*
X78559387Y-38402059D01*
X79023821Y-38866493D01*
X79630633Y-39117843D01*
X80287441Y-39117843D01*
X80894253Y-38866493D01*
X81358687Y-38402059D01*
X81610037Y-37795247D01*
X81610037Y-37138439D01*
X81358687Y-36531627D01*
X80894253Y-36067193D01*
X80287441Y-35815843D01*
X79630633Y-35815843D01*
X79023821Y-36067193D01*
X78559387Y-36531627D01*
X78308037Y-37138439D01*
X72821637Y-37138439D01*
X72570287Y-36531627D01*
X72105853Y-36067193D01*
X71499041Y-35815843D01*
X70842233Y-35815843D01*
X70235421Y-36067193D01*
X69770987Y-36531627D01*
X69519637Y-37138439D01*
X66793369Y-37138439D01*
X66542019Y-36531627D01*
X66077585Y-36067193D01*
X65470773Y-35815843D01*
X64813965Y-35815843D01*
X64207153Y-36067193D01*
X63742719Y-36531627D01*
X63491369Y-37138439D01*
X58004969Y-37138439D01*
X57753619Y-36531627D01*
X57289185Y-36067193D01*
X56682373Y-35815843D01*
X56025565Y-35815843D01*
X55418753Y-36067193D01*
X54954319Y-36531627D01*
X54702969Y-37138439D01*
X51976703Y-37138439D01*
X51725353Y-36531627D01*
X51260919Y-36067193D01*
X50654107Y-35815843D01*
X49997299Y-35815843D01*
X49390487Y-36067193D01*
X48926053Y-36531627D01*
X48674703Y-37138439D01*
X43188303Y-37138439D01*
X42936953Y-36531627D01*
X42472519Y-36067193D01*
X41865707Y-35815843D01*
X41208899Y-35815843D01*
X40602087Y-36067193D01*
X40137653Y-36531627D01*
X39886303Y-37138439D01*
X37160037Y-37138439D01*
X36908687Y-36531627D01*
X36444253Y-36067193D01*
X35837441Y-35815843D01*
X35180633Y-35815843D01*
X34573821Y-36067193D01*
X34109387Y-36531627D01*
X33858037Y-37138439D01*
X28371637Y-37138439D01*
X28120287Y-36531627D01*
X27655853Y-36067193D01*
X27049041Y-35815843D01*
X26392233Y-35815843D01*
X25785421Y-36067193D01*
X25320987Y-36531627D01*
X25069637Y-37138439D01*
X24522500Y-37138439D01*
X24522500Y-32142500D01*
X82157500Y-32142500D01*
X82157501Y-59932500D01*
G04 #@! TD*
M02*
