G04 #@! TF.GenerationSoftware,KiCad,Pcbnew,(5.0.1)-4*
G04 #@! TF.CreationDate,2019-01-08T00:24:24+01:00*
G04 #@! TF.ProjectId,1U ADSR,315520414453522E6B696361645F7063,rev?*
G04 #@! TF.SameCoordinates,Original*
G04 #@! TF.FileFunction,Legend,Top*
G04 #@! TF.FilePolarity,Positive*
%FSLAX46Y46*%
G04 Gerber Fmt 4.6, Leading zero omitted, Abs format (unit mm)*
G04 Created by KiCad (PCBNEW (5.0.1)-4) date 01/08/19 00:24:24*
%MOMM*%
%LPD*%
G01*
G04 APERTURE LIST*
%ADD10C,0.120000*%
%ADD11C,0.200000*%
%ADD12C,0.150000*%
%ADD13C,0.100000*%
G04 APERTURE END LIST*
D10*
X72448333Y-35574666D02*
X72853095Y-35574666D01*
X72367380Y-35817523D02*
X72650714Y-34967523D01*
X72934047Y-35817523D01*
X73217380Y-35817523D02*
X73217380Y-34967523D01*
X73419761Y-34967523D01*
X73541190Y-35008000D01*
X73622142Y-35088952D01*
X73662619Y-35169904D01*
X73703095Y-35331809D01*
X73703095Y-35453238D01*
X73662619Y-35615142D01*
X73622142Y-35696095D01*
X73541190Y-35777047D01*
X73419761Y-35817523D01*
X73217380Y-35817523D01*
X74026904Y-35777047D02*
X74148333Y-35817523D01*
X74350714Y-35817523D01*
X74431666Y-35777047D01*
X74472142Y-35736571D01*
X74512619Y-35655619D01*
X74512619Y-35574666D01*
X74472142Y-35493714D01*
X74431666Y-35453238D01*
X74350714Y-35412761D01*
X74188809Y-35372285D01*
X74107857Y-35331809D01*
X74067380Y-35291333D01*
X74026904Y-35210380D01*
X74026904Y-35129428D01*
X74067380Y-35048476D01*
X74107857Y-35008000D01*
X74188809Y-34967523D01*
X74391190Y-34967523D01*
X74512619Y-35008000D01*
X75362619Y-35817523D02*
X75079285Y-35412761D01*
X74876904Y-35817523D02*
X74876904Y-34967523D01*
X75200714Y-34967523D01*
X75281666Y-35008000D01*
X75322142Y-35048476D01*
X75362619Y-35129428D01*
X75362619Y-35250857D01*
X75322142Y-35331809D01*
X75281666Y-35372285D01*
X75200714Y-35412761D01*
X74876904Y-35412761D01*
X76293571Y-35250857D02*
X76495952Y-35817523D01*
X76698333Y-35250857D01*
X77184047Y-34967523D02*
X77265000Y-34967523D01*
X77345952Y-35008000D01*
X77386428Y-35048476D01*
X77426904Y-35129428D01*
X77467380Y-35291333D01*
X77467380Y-35493714D01*
X77426904Y-35655619D01*
X77386428Y-35736571D01*
X77345952Y-35777047D01*
X77265000Y-35817523D01*
X77184047Y-35817523D01*
X77103095Y-35777047D01*
X77062619Y-35736571D01*
X77022142Y-35655619D01*
X76981666Y-35493714D01*
X76981666Y-35291333D01*
X77022142Y-35129428D01*
X77062619Y-35048476D01*
X77103095Y-35008000D01*
X77184047Y-34967523D01*
X77831666Y-35736571D02*
X77872142Y-35777047D01*
X77831666Y-35817523D01*
X77791190Y-35777047D01*
X77831666Y-35736571D01*
X77831666Y-35817523D01*
X78681666Y-35817523D02*
X78195952Y-35817523D01*
X78438809Y-35817523D02*
X78438809Y-34967523D01*
X78357857Y-35088952D01*
X78276904Y-35169904D01*
X78195952Y-35210380D01*
X71572523Y-34166523D02*
X71572523Y-33316523D01*
X72058238Y-34166523D02*
X71693952Y-33680809D01*
X72058238Y-33316523D02*
X71572523Y-33802238D01*
X72422523Y-34166523D02*
X72422523Y-33599857D01*
X72422523Y-33761761D02*
X72463000Y-33680809D01*
X72503476Y-33640333D01*
X72584428Y-33599857D01*
X72665380Y-33599857D01*
X73313000Y-34166523D02*
X73313000Y-33721285D01*
X73272523Y-33640333D01*
X73191571Y-33599857D01*
X73029666Y-33599857D01*
X72948714Y-33640333D01*
X73313000Y-34126047D02*
X73232047Y-34166523D01*
X73029666Y-34166523D01*
X72948714Y-34126047D01*
X72908238Y-34045095D01*
X72908238Y-33964142D01*
X72948714Y-33883190D01*
X73029666Y-33842714D01*
X73232047Y-33842714D01*
X73313000Y-33802238D01*
X74082047Y-34166523D02*
X74082047Y-33721285D01*
X74041571Y-33640333D01*
X73960619Y-33599857D01*
X73798714Y-33599857D01*
X73717761Y-33640333D01*
X74082047Y-34126047D02*
X74001095Y-34166523D01*
X73798714Y-34166523D01*
X73717761Y-34126047D01*
X73677285Y-34045095D01*
X73677285Y-33964142D01*
X73717761Y-33883190D01*
X73798714Y-33842714D01*
X74001095Y-33842714D01*
X74082047Y-33802238D01*
X74486809Y-34166523D02*
X74486809Y-33316523D01*
X74567761Y-33842714D02*
X74810619Y-34166523D01*
X74810619Y-33599857D02*
X74486809Y-33923666D01*
X75498714Y-34126047D02*
X75417761Y-34166523D01*
X75255857Y-34166523D01*
X75174904Y-34126047D01*
X75134428Y-34045095D01*
X75134428Y-33721285D01*
X75174904Y-33640333D01*
X75255857Y-33599857D01*
X75417761Y-33599857D01*
X75498714Y-33640333D01*
X75539190Y-33721285D01*
X75539190Y-33802238D01*
X75134428Y-33883190D01*
X75903476Y-33599857D02*
X75903476Y-34166523D01*
X75903476Y-33680809D02*
X75943952Y-33640333D01*
X76024904Y-33599857D01*
X76146333Y-33599857D01*
X76227285Y-33640333D01*
X76267761Y-33721285D01*
X76267761Y-34166523D01*
X76632047Y-34126047D02*
X76753476Y-34166523D01*
X76955857Y-34166523D01*
X77036809Y-34126047D01*
X77077285Y-34085571D01*
X77117761Y-34004619D01*
X77117761Y-33923666D01*
X77077285Y-33842714D01*
X77036809Y-33802238D01*
X76955857Y-33761761D01*
X76793952Y-33721285D01*
X76713000Y-33680809D01*
X76672523Y-33640333D01*
X76632047Y-33559380D01*
X76632047Y-33478428D01*
X76672523Y-33397476D01*
X76713000Y-33357000D01*
X76793952Y-33316523D01*
X76996333Y-33316523D01*
X77117761Y-33357000D01*
X77360619Y-33599857D02*
X77684428Y-33599857D01*
X77482047Y-33316523D02*
X77482047Y-34045095D01*
X77522523Y-34126047D01*
X77603476Y-34166523D01*
X77684428Y-34166523D01*
X78332047Y-33599857D02*
X78332047Y-34166523D01*
X77967761Y-33599857D02*
X77967761Y-34045095D01*
X78008238Y-34126047D01*
X78089190Y-34166523D01*
X78210619Y-34166523D01*
X78291571Y-34126047D01*
X78332047Y-34085571D01*
X78615380Y-33599857D02*
X78939190Y-33599857D01*
X78736809Y-34166523D02*
X78736809Y-33437952D01*
X78777285Y-33357000D01*
X78858238Y-33316523D01*
X78939190Y-33316523D01*
X79101095Y-33599857D02*
X79424904Y-33599857D01*
X79222523Y-34166523D02*
X79222523Y-33437952D01*
X79263000Y-33357000D01*
X79343952Y-33316523D01*
X79424904Y-33316523D01*
D11*
X40640000Y-51371500D02*
G75*
G03X40640000Y-51371500I-381000J0D01*
G01*
X51498500Y-58166000D02*
G75*
G03X51498500Y-58166000I-381000J0D01*
G01*
D10*
G04 #@! TO.C,C1*
X58568733Y-52830000D02*
X58911267Y-52830000D01*
X58568733Y-53850000D02*
X58911267Y-53850000D01*
G04 #@! TO.C,C2*
X41484733Y-54862000D02*
X41827267Y-54862000D01*
X41484733Y-55882000D02*
X41827267Y-55882000D01*
G04 #@! TO.C,C3*
X41484733Y-59014000D02*
X41827267Y-59014000D01*
X41484733Y-57994000D02*
X41827267Y-57994000D01*
G04 #@! TO.C,C4*
X32782733Y-51052000D02*
X33125267Y-51052000D01*
X32782733Y-52072000D02*
X33125267Y-52072000D01*
G04 #@! TO.C,C5*
X39774067Y-44956000D02*
X39431533Y-44956000D01*
X39774067Y-45976000D02*
X39431533Y-45976000D01*
G04 #@! TO.C,D1*
X78005000Y-49580000D02*
X78005000Y-52040000D01*
X78005000Y-52040000D02*
X79475000Y-52040000D01*
X79475000Y-52040000D02*
X79475000Y-49580000D01*
G04 #@! TO.C,D2*
X59540000Y-55239500D02*
X57080000Y-55239500D01*
X57080000Y-55239500D02*
X57080000Y-56709500D01*
X57080000Y-56709500D02*
X59540000Y-56709500D01*
G04 #@! TO.C,D3*
X36948000Y-41375000D02*
X39408000Y-41375000D01*
X36948000Y-39905000D02*
X36948000Y-41375000D01*
X39408000Y-39905000D02*
X36948000Y-39905000D01*
G04 #@! TO.C,D4*
X66666000Y-41375000D02*
X69126000Y-41375000D01*
X66666000Y-39905000D02*
X66666000Y-41375000D01*
X69126000Y-39905000D02*
X66666000Y-39905000D01*
G04 #@! TO.C,D5*
X52286000Y-41375000D02*
X54746000Y-41375000D01*
X54746000Y-41375000D02*
X54746000Y-39905000D01*
X54746000Y-39905000D02*
X52286000Y-39905000D01*
G04 #@! TO.C,GND +12V -12V*
X32381500Y-48828000D02*
X32381500Y-46168000D01*
X27241500Y-48828000D02*
X32381500Y-48828000D01*
X27241500Y-46168000D02*
X32381500Y-46168000D01*
X27241500Y-48828000D02*
X27241500Y-46168000D01*
X25971500Y-48828000D02*
X24641500Y-48828000D01*
X24641500Y-48828000D02*
X24641500Y-47498000D01*
G04 #@! TO.C,Q1*
X74424000Y-48712000D02*
X74424000Y-49642000D01*
X74424000Y-51872000D02*
X74424000Y-50942000D01*
X74424000Y-51872000D02*
X76584000Y-51872000D01*
X74424000Y-48712000D02*
X75884000Y-48712000D01*
G04 #@! TO.C,Q2*
X64518000Y-51760000D02*
X64518000Y-52690000D01*
X64518000Y-54920000D02*
X64518000Y-53990000D01*
X64518000Y-54920000D02*
X66678000Y-54920000D01*
X64518000Y-51760000D02*
X65978000Y-51760000D01*
G04 #@! TO.C,Q3*
X64434000Y-56141500D02*
X65894000Y-56141500D01*
X64434000Y-59301500D02*
X66594000Y-59301500D01*
X64434000Y-59301500D02*
X64434000Y-58371500D01*
X64434000Y-56141500D02*
X64434000Y-57071500D01*
G04 #@! TO.C,R1*
X81282000Y-50204733D02*
X81282000Y-50547267D01*
X80262000Y-50204733D02*
X80262000Y-50547267D01*
G04 #@! TO.C,R2*
X70867267Y-49782000D02*
X70524733Y-49782000D01*
X70867267Y-50802000D02*
X70524733Y-50802000D01*
G04 #@! TO.C,R3*
X70524733Y-51814000D02*
X70867267Y-51814000D01*
X70524733Y-52834000D02*
X70867267Y-52834000D01*
G04 #@! TO.C,R4*
X65614733Y-50802000D02*
X65957267Y-50802000D01*
X65614733Y-49782000D02*
X65957267Y-49782000D01*
G04 #@! TO.C,R5*
X58906267Y-59184000D02*
X58563733Y-59184000D01*
X58906267Y-58164000D02*
X58563733Y-58164000D01*
G04 #@! TO.C,R6*
X51733332Y-50262266D02*
X51733332Y-49919732D01*
X50713332Y-50262266D02*
X50713332Y-49919732D01*
G04 #@! TO.C,R7*
X53084000Y-49929732D02*
X53084000Y-50272266D01*
X54104000Y-49929732D02*
X54104000Y-50272266D01*
G04 #@! TO.C,R8*
X46992000Y-49929732D02*
X46992000Y-50272266D01*
X45972000Y-49929732D02*
X45972000Y-50272266D01*
G04 #@! TO.C,R9*
X48342666Y-50262266D02*
X48342666Y-49919732D01*
X49362666Y-50262266D02*
X49362666Y-49919732D01*
G04 #@! TO.C,R10*
X52919733Y-43944000D02*
X53262267Y-43944000D01*
X52919733Y-42924000D02*
X53262267Y-42924000D01*
D12*
G04 #@! TO.C,U1*
X52113000Y-58963000D02*
X52113000Y-58913000D01*
X47963000Y-58963000D02*
X47963000Y-58818000D01*
X47963000Y-53813000D02*
X47963000Y-53958000D01*
X52113000Y-53813000D02*
X52113000Y-53958000D01*
X52113000Y-58963000D02*
X47963000Y-58963000D01*
X52113000Y-53813000D02*
X47963000Y-53813000D01*
X52113000Y-58913000D02*
X53513000Y-58913000D01*
G04 #@! TO.C,U2*
X41445000Y-52055000D02*
X42845000Y-52055000D01*
X41445000Y-46955000D02*
X37295000Y-46955000D01*
X41445000Y-52105000D02*
X37295000Y-52105000D01*
X41445000Y-46955000D02*
X41445000Y-47100000D01*
X37295000Y-46955000D02*
X37295000Y-47100000D01*
X37295000Y-52105000D02*
X37295000Y-51960000D01*
X41445000Y-52105000D02*
X41445000Y-52055000D01*
G04 #@! TO.C,C1*
X61237833Y-53760642D02*
X61190214Y-53808261D01*
X61047357Y-53855880D01*
X60952119Y-53855880D01*
X60809261Y-53808261D01*
X60714023Y-53713023D01*
X60666404Y-53617785D01*
X60618785Y-53427309D01*
X60618785Y-53284452D01*
X60666404Y-53093976D01*
X60714023Y-52998738D01*
X60809261Y-52903500D01*
X60952119Y-52855880D01*
X61047357Y-52855880D01*
X61190214Y-52903500D01*
X61237833Y-52951119D01*
X62190214Y-53855880D02*
X61618785Y-53855880D01*
X61904500Y-53855880D02*
X61904500Y-52855880D01*
X61809261Y-52998738D01*
X61714023Y-53093976D01*
X61618785Y-53141595D01*
G04 #@! TO.C,C2*
X41489333Y-54299142D02*
X41441714Y-54346761D01*
X41298857Y-54394380D01*
X41203619Y-54394380D01*
X41060761Y-54346761D01*
X40965523Y-54251523D01*
X40917904Y-54156285D01*
X40870285Y-53965809D01*
X40870285Y-53822952D01*
X40917904Y-53632476D01*
X40965523Y-53537238D01*
X41060761Y-53442000D01*
X41203619Y-53394380D01*
X41298857Y-53394380D01*
X41441714Y-53442000D01*
X41489333Y-53489619D01*
X41870285Y-53489619D02*
X41917904Y-53442000D01*
X42013142Y-53394380D01*
X42251238Y-53394380D01*
X42346476Y-53442000D01*
X42394095Y-53489619D01*
X42441714Y-53584857D01*
X42441714Y-53680095D01*
X42394095Y-53822952D01*
X41822666Y-54394380D01*
X42441714Y-54394380D01*
G04 #@! TO.C,C3*
X41489333Y-57431142D02*
X41441714Y-57478761D01*
X41298857Y-57526380D01*
X41203619Y-57526380D01*
X41060761Y-57478761D01*
X40965523Y-57383523D01*
X40917904Y-57288285D01*
X40870285Y-57097809D01*
X40870285Y-56954952D01*
X40917904Y-56764476D01*
X40965523Y-56669238D01*
X41060761Y-56574000D01*
X41203619Y-56526380D01*
X41298857Y-56526380D01*
X41441714Y-56574000D01*
X41489333Y-56621619D01*
X41822666Y-56526380D02*
X42441714Y-56526380D01*
X42108380Y-56907333D01*
X42251238Y-56907333D01*
X42346476Y-56954952D01*
X42394095Y-57002571D01*
X42441714Y-57097809D01*
X42441714Y-57335904D01*
X42394095Y-57431142D01*
X42346476Y-57478761D01*
X42251238Y-57526380D01*
X41965523Y-57526380D01*
X41870285Y-57478761D01*
X41822666Y-57431142D01*
G04 #@! TO.C,C4*
X32662833Y-53379642D02*
X32615214Y-53427261D01*
X32472357Y-53474880D01*
X32377119Y-53474880D01*
X32234261Y-53427261D01*
X32139023Y-53332023D01*
X32091404Y-53236785D01*
X32043785Y-53046309D01*
X32043785Y-52903452D01*
X32091404Y-52712976D01*
X32139023Y-52617738D01*
X32234261Y-52522500D01*
X32377119Y-52474880D01*
X32472357Y-52474880D01*
X32615214Y-52522500D01*
X32662833Y-52570119D01*
X33519976Y-52808214D02*
X33519976Y-53474880D01*
X33281880Y-52427261D02*
X33043785Y-53141547D01*
X33662833Y-53141547D01*
G04 #@! TO.C,C5*
X39520833Y-44299142D02*
X39473214Y-44346761D01*
X39330357Y-44394380D01*
X39235119Y-44394380D01*
X39092261Y-44346761D01*
X38997023Y-44251523D01*
X38949404Y-44156285D01*
X38901785Y-43965809D01*
X38901785Y-43822952D01*
X38949404Y-43632476D01*
X38997023Y-43537238D01*
X39092261Y-43442000D01*
X39235119Y-43394380D01*
X39330357Y-43394380D01*
X39473214Y-43442000D01*
X39520833Y-43489619D01*
X40425595Y-43394380D02*
X39949404Y-43394380D01*
X39901785Y-43870571D01*
X39949404Y-43822952D01*
X40044642Y-43775333D01*
X40282738Y-43775333D01*
X40377976Y-43822952D01*
X40425595Y-43870571D01*
X40473214Y-43965809D01*
X40473214Y-44203904D01*
X40425595Y-44299142D01*
X40377976Y-44346761D01*
X40282738Y-44394380D01*
X40044642Y-44394380D01*
X39949404Y-44346761D01*
X39901785Y-44299142D01*
G04 #@! TO.C,D1*
X79192380Y-48109095D02*
X78192380Y-48109095D01*
X78192380Y-47871000D01*
X78240000Y-47728142D01*
X78335238Y-47632904D01*
X78430476Y-47585285D01*
X78620952Y-47537666D01*
X78763809Y-47537666D01*
X78954285Y-47585285D01*
X79049523Y-47632904D01*
X79144761Y-47728142D01*
X79192380Y-47871000D01*
X79192380Y-48109095D01*
X79192380Y-46585285D02*
X79192380Y-47156714D01*
X79192380Y-46871000D02*
X78192380Y-46871000D01*
X78335238Y-46966238D01*
X78430476Y-47061476D01*
X78478095Y-47156714D01*
G04 #@! TO.C,D2*
X60666404Y-56459380D02*
X60666404Y-55459380D01*
X60904500Y-55459380D01*
X61047357Y-55507000D01*
X61142595Y-55602238D01*
X61190214Y-55697476D01*
X61237833Y-55887952D01*
X61237833Y-56030809D01*
X61190214Y-56221285D01*
X61142595Y-56316523D01*
X61047357Y-56411761D01*
X60904500Y-56459380D01*
X60666404Y-56459380D01*
X61618785Y-55554619D02*
X61666404Y-55507000D01*
X61761642Y-55459380D01*
X61999738Y-55459380D01*
X62094976Y-55507000D01*
X62142595Y-55554619D01*
X62190214Y-55649857D01*
X62190214Y-55745095D01*
X62142595Y-55887952D01*
X61571166Y-56459380D01*
X62190214Y-56459380D01*
G04 #@! TO.C,D3*
X37869904Y-39662380D02*
X37869904Y-38662380D01*
X38108000Y-38662380D01*
X38250857Y-38710000D01*
X38346095Y-38805238D01*
X38393714Y-38900476D01*
X38441333Y-39090952D01*
X38441333Y-39233809D01*
X38393714Y-39424285D01*
X38346095Y-39519523D01*
X38250857Y-39614761D01*
X38108000Y-39662380D01*
X37869904Y-39662380D01*
X38774666Y-38662380D02*
X39393714Y-38662380D01*
X39060380Y-39043333D01*
X39203238Y-39043333D01*
X39298476Y-39090952D01*
X39346095Y-39138571D01*
X39393714Y-39233809D01*
X39393714Y-39471904D01*
X39346095Y-39567142D01*
X39298476Y-39614761D01*
X39203238Y-39662380D01*
X38917523Y-39662380D01*
X38822285Y-39614761D01*
X38774666Y-39567142D01*
G04 #@! TO.C,D4*
X67587904Y-39662380D02*
X67587904Y-38662380D01*
X67826000Y-38662380D01*
X67968857Y-38710000D01*
X68064095Y-38805238D01*
X68111714Y-38900476D01*
X68159333Y-39090952D01*
X68159333Y-39233809D01*
X68111714Y-39424285D01*
X68064095Y-39519523D01*
X67968857Y-39614761D01*
X67826000Y-39662380D01*
X67587904Y-39662380D01*
X69016476Y-38995714D02*
X69016476Y-39662380D01*
X68778380Y-38614761D02*
X68540285Y-39329047D01*
X69159333Y-39329047D01*
G04 #@! TO.C,D5*
X52474904Y-39377880D02*
X52474904Y-38377880D01*
X52713000Y-38377880D01*
X52855857Y-38425500D01*
X52951095Y-38520738D01*
X52998714Y-38615976D01*
X53046333Y-38806452D01*
X53046333Y-38949309D01*
X52998714Y-39139785D01*
X52951095Y-39235023D01*
X52855857Y-39330261D01*
X52713000Y-39377880D01*
X52474904Y-39377880D01*
X53951095Y-38377880D02*
X53474904Y-38377880D01*
X53427285Y-38854071D01*
X53474904Y-38806452D01*
X53570142Y-38758833D01*
X53808238Y-38758833D01*
X53903476Y-38806452D01*
X53951095Y-38854071D01*
X53998714Y-38949309D01*
X53998714Y-39187404D01*
X53951095Y-39282642D01*
X53903476Y-39330261D01*
X53808238Y-39377880D01*
X53570142Y-39377880D01*
X53474904Y-39330261D01*
X53427285Y-39282642D01*
G04 #@! TO.C,GND +12V -12V*
D13*
X24771833Y-49243500D02*
X24705166Y-49210166D01*
X24605166Y-49210166D01*
X24505166Y-49243500D01*
X24438500Y-49310166D01*
X24405166Y-49376833D01*
X24371833Y-49510166D01*
X24371833Y-49610166D01*
X24405166Y-49743500D01*
X24438500Y-49810166D01*
X24505166Y-49876833D01*
X24605166Y-49910166D01*
X24671833Y-49910166D01*
X24771833Y-49876833D01*
X24805166Y-49843500D01*
X24805166Y-49610166D01*
X24671833Y-49610166D01*
X25105166Y-49910166D02*
X25105166Y-49210166D01*
X25505166Y-49910166D01*
X25505166Y-49210166D01*
X25838500Y-49910166D02*
X25838500Y-49210166D01*
X26005166Y-49210166D01*
X26105166Y-49243500D01*
X26171833Y-49310166D01*
X26205166Y-49376833D01*
X26238500Y-49510166D01*
X26238500Y-49610166D01*
X26205166Y-49743500D01*
X26171833Y-49810166D01*
X26105166Y-49876833D01*
X26005166Y-49910166D01*
X25838500Y-49910166D01*
X27071833Y-49643500D02*
X27605166Y-49643500D01*
X27338500Y-49910166D02*
X27338500Y-49376833D01*
X28305166Y-49910166D02*
X27905166Y-49910166D01*
X28105166Y-49910166D02*
X28105166Y-49210166D01*
X28038500Y-49310166D01*
X27971833Y-49376833D01*
X27905166Y-49410166D01*
X28571833Y-49276833D02*
X28605166Y-49243500D01*
X28671833Y-49210166D01*
X28838500Y-49210166D01*
X28905166Y-49243500D01*
X28938500Y-49276833D01*
X28971833Y-49343500D01*
X28971833Y-49410166D01*
X28938500Y-49510166D01*
X28538500Y-49910166D01*
X28971833Y-49910166D01*
X29171833Y-49210166D02*
X29405166Y-49910166D01*
X29638500Y-49210166D01*
X30405166Y-49643500D02*
X30938500Y-49643500D01*
X31638500Y-49910166D02*
X31238500Y-49910166D01*
X31438500Y-49910166D02*
X31438500Y-49210166D01*
X31371833Y-49310166D01*
X31305166Y-49376833D01*
X31238500Y-49410166D01*
X31905166Y-49276833D02*
X31938500Y-49243500D01*
X32005166Y-49210166D01*
X32171833Y-49210166D01*
X32238500Y-49243500D01*
X32271833Y-49276833D01*
X32305166Y-49343500D01*
X32305166Y-49410166D01*
X32271833Y-49510166D01*
X31871833Y-49910166D01*
X32305166Y-49910166D01*
X32505166Y-49210166D02*
X32738500Y-49910166D01*
X32971833Y-49210166D01*
G04 #@! TO.C,Q1*
D12*
X75088761Y-53339619D02*
X74993523Y-53292000D01*
X74898285Y-53196761D01*
X74755428Y-53053904D01*
X74660190Y-53006285D01*
X74564952Y-53006285D01*
X74612571Y-53244380D02*
X74517333Y-53196761D01*
X74422095Y-53101523D01*
X74374476Y-52911047D01*
X74374476Y-52577714D01*
X74422095Y-52387238D01*
X74517333Y-52292000D01*
X74612571Y-52244380D01*
X74803047Y-52244380D01*
X74898285Y-52292000D01*
X74993523Y-52387238D01*
X75041142Y-52577714D01*
X75041142Y-52911047D01*
X74993523Y-53101523D01*
X74898285Y-53196761D01*
X74803047Y-53244380D01*
X74612571Y-53244380D01*
X75993523Y-53244380D02*
X75422095Y-53244380D01*
X75707809Y-53244380D02*
X75707809Y-52244380D01*
X75612571Y-52387238D01*
X75517333Y-52482476D01*
X75422095Y-52530095D01*
G04 #@! TO.C,Q2*
X68040261Y-54141619D02*
X67945023Y-54094000D01*
X67849785Y-53998761D01*
X67706928Y-53855904D01*
X67611690Y-53808285D01*
X67516452Y-53808285D01*
X67564071Y-54046380D02*
X67468833Y-53998761D01*
X67373595Y-53903523D01*
X67325976Y-53713047D01*
X67325976Y-53379714D01*
X67373595Y-53189238D01*
X67468833Y-53094000D01*
X67564071Y-53046380D01*
X67754547Y-53046380D01*
X67849785Y-53094000D01*
X67945023Y-53189238D01*
X67992642Y-53379714D01*
X67992642Y-53713047D01*
X67945023Y-53903523D01*
X67849785Y-53998761D01*
X67754547Y-54046380D01*
X67564071Y-54046380D01*
X68373595Y-53141619D02*
X68421214Y-53094000D01*
X68516452Y-53046380D01*
X68754547Y-53046380D01*
X68849785Y-53094000D01*
X68897404Y-53141619D01*
X68945023Y-53236857D01*
X68945023Y-53332095D01*
X68897404Y-53474952D01*
X68325976Y-54046380D01*
X68945023Y-54046380D01*
G04 #@! TO.C,Q3*
X67976761Y-59094619D02*
X67881523Y-59047000D01*
X67786285Y-58951761D01*
X67643428Y-58808904D01*
X67548190Y-58761285D01*
X67452952Y-58761285D01*
X67500571Y-58999380D02*
X67405333Y-58951761D01*
X67310095Y-58856523D01*
X67262476Y-58666047D01*
X67262476Y-58332714D01*
X67310095Y-58142238D01*
X67405333Y-58047000D01*
X67500571Y-57999380D01*
X67691047Y-57999380D01*
X67786285Y-58047000D01*
X67881523Y-58142238D01*
X67929142Y-58332714D01*
X67929142Y-58666047D01*
X67881523Y-58856523D01*
X67786285Y-58951761D01*
X67691047Y-58999380D01*
X67500571Y-58999380D01*
X68262476Y-57999380D02*
X68881523Y-57999380D01*
X68548190Y-58380333D01*
X68691047Y-58380333D01*
X68786285Y-58427952D01*
X68833904Y-58475571D01*
X68881523Y-58570809D01*
X68881523Y-58808904D01*
X68833904Y-58904142D01*
X68786285Y-58951761D01*
X68691047Y-58999380D01*
X68405333Y-58999380D01*
X68310095Y-58951761D01*
X68262476Y-58904142D01*
G04 #@! TO.C,R1*
X81351380Y-47537666D02*
X80875190Y-47871000D01*
X81351380Y-48109095D02*
X80351380Y-48109095D01*
X80351380Y-47728142D01*
X80399000Y-47632904D01*
X80446619Y-47585285D01*
X80541857Y-47537666D01*
X80684714Y-47537666D01*
X80779952Y-47585285D01*
X80827571Y-47632904D01*
X80875190Y-47728142D01*
X80875190Y-48109095D01*
X81351380Y-46585285D02*
X81351380Y-47156714D01*
X81351380Y-46871000D02*
X80351380Y-46871000D01*
X80494238Y-46966238D01*
X80589476Y-47061476D01*
X80637095Y-47156714D01*
G04 #@! TO.C,R2*
X70529333Y-49156880D02*
X70196000Y-48680690D01*
X69957904Y-49156880D02*
X69957904Y-48156880D01*
X70338857Y-48156880D01*
X70434095Y-48204500D01*
X70481714Y-48252119D01*
X70529333Y-48347357D01*
X70529333Y-48490214D01*
X70481714Y-48585452D01*
X70434095Y-48633071D01*
X70338857Y-48680690D01*
X69957904Y-48680690D01*
X70910285Y-48252119D02*
X70957904Y-48204500D01*
X71053142Y-48156880D01*
X71291238Y-48156880D01*
X71386476Y-48204500D01*
X71434095Y-48252119D01*
X71481714Y-48347357D01*
X71481714Y-48442595D01*
X71434095Y-48585452D01*
X70862666Y-49156880D01*
X71481714Y-49156880D01*
G04 #@! TO.C,R3*
X70635833Y-54173380D02*
X70302500Y-53697190D01*
X70064404Y-54173380D02*
X70064404Y-53173380D01*
X70445357Y-53173380D01*
X70540595Y-53221000D01*
X70588214Y-53268619D01*
X70635833Y-53363857D01*
X70635833Y-53506714D01*
X70588214Y-53601952D01*
X70540595Y-53649571D01*
X70445357Y-53697190D01*
X70064404Y-53697190D01*
X70969166Y-53173380D02*
X71588214Y-53173380D01*
X71254880Y-53554333D01*
X71397738Y-53554333D01*
X71492976Y-53601952D01*
X71540595Y-53649571D01*
X71588214Y-53744809D01*
X71588214Y-53982904D01*
X71540595Y-54078142D01*
X71492976Y-54125761D01*
X71397738Y-54173380D01*
X71112023Y-54173380D01*
X71016785Y-54125761D01*
X70969166Y-54078142D01*
G04 #@! TO.C,R4*
X65619333Y-49314380D02*
X65286000Y-48838190D01*
X65047904Y-49314380D02*
X65047904Y-48314380D01*
X65428857Y-48314380D01*
X65524095Y-48362000D01*
X65571714Y-48409619D01*
X65619333Y-48504857D01*
X65619333Y-48647714D01*
X65571714Y-48742952D01*
X65524095Y-48790571D01*
X65428857Y-48838190D01*
X65047904Y-48838190D01*
X66476476Y-48647714D02*
X66476476Y-49314380D01*
X66238380Y-48266761D02*
X66000285Y-48981047D01*
X66619333Y-48981047D01*
G04 #@! TO.C,R5*
X61237833Y-59126380D02*
X60904500Y-58650190D01*
X60666404Y-59126380D02*
X60666404Y-58126380D01*
X61047357Y-58126380D01*
X61142595Y-58174000D01*
X61190214Y-58221619D01*
X61237833Y-58316857D01*
X61237833Y-58459714D01*
X61190214Y-58554952D01*
X61142595Y-58602571D01*
X61047357Y-58650190D01*
X60666404Y-58650190D01*
X62142595Y-58126380D02*
X61666404Y-58126380D01*
X61618785Y-58602571D01*
X61666404Y-58554952D01*
X61761642Y-58507333D01*
X61999738Y-58507333D01*
X62094976Y-58554952D01*
X62142595Y-58602571D01*
X62190214Y-58697809D01*
X62190214Y-58935904D01*
X62142595Y-59031142D01*
X62094976Y-59078761D01*
X61999738Y-59126380D01*
X61761642Y-59126380D01*
X61666404Y-59078761D01*
X61618785Y-59031142D01*
G04 #@! TO.C,R6*
X51760380Y-47474166D02*
X51284190Y-47807500D01*
X51760380Y-48045595D02*
X50760380Y-48045595D01*
X50760380Y-47664642D01*
X50808000Y-47569404D01*
X50855619Y-47521785D01*
X50950857Y-47474166D01*
X51093714Y-47474166D01*
X51188952Y-47521785D01*
X51236571Y-47569404D01*
X51284190Y-47664642D01*
X51284190Y-48045595D01*
X50760380Y-46617023D02*
X50760380Y-46807500D01*
X50808000Y-46902738D01*
X50855619Y-46950357D01*
X50998476Y-47045595D01*
X51188952Y-47093214D01*
X51569904Y-47093214D01*
X51665142Y-47045595D01*
X51712761Y-46997976D01*
X51760380Y-46902738D01*
X51760380Y-46712261D01*
X51712761Y-46617023D01*
X51665142Y-46569404D01*
X51569904Y-46521785D01*
X51331809Y-46521785D01*
X51236571Y-46569404D01*
X51188952Y-46617023D01*
X51141333Y-46712261D01*
X51141333Y-46902738D01*
X51188952Y-46997976D01*
X51236571Y-47045595D01*
X51331809Y-47093214D01*
G04 #@! TO.C,R7*
X54046380Y-47347166D02*
X53570190Y-47680500D01*
X54046380Y-47918595D02*
X53046380Y-47918595D01*
X53046380Y-47537642D01*
X53094000Y-47442404D01*
X53141619Y-47394785D01*
X53236857Y-47347166D01*
X53379714Y-47347166D01*
X53474952Y-47394785D01*
X53522571Y-47442404D01*
X53570190Y-47537642D01*
X53570190Y-47918595D01*
X53046380Y-47013833D02*
X53046380Y-46347166D01*
X54046380Y-46775738D01*
G04 #@! TO.C,R8*
X46934380Y-47474166D02*
X46458190Y-47807500D01*
X46934380Y-48045595D02*
X45934380Y-48045595D01*
X45934380Y-47664642D01*
X45982000Y-47569404D01*
X46029619Y-47521785D01*
X46124857Y-47474166D01*
X46267714Y-47474166D01*
X46362952Y-47521785D01*
X46410571Y-47569404D01*
X46458190Y-47664642D01*
X46458190Y-48045595D01*
X46362952Y-46902738D02*
X46315333Y-46997976D01*
X46267714Y-47045595D01*
X46172476Y-47093214D01*
X46124857Y-47093214D01*
X46029619Y-47045595D01*
X45982000Y-46997976D01*
X45934380Y-46902738D01*
X45934380Y-46712261D01*
X45982000Y-46617023D01*
X46029619Y-46569404D01*
X46124857Y-46521785D01*
X46172476Y-46521785D01*
X46267714Y-46569404D01*
X46315333Y-46617023D01*
X46362952Y-46712261D01*
X46362952Y-46902738D01*
X46410571Y-46997976D01*
X46458190Y-47045595D01*
X46553428Y-47093214D01*
X46743904Y-47093214D01*
X46839142Y-47045595D01*
X46886761Y-46997976D01*
X46934380Y-46902738D01*
X46934380Y-46712261D01*
X46886761Y-46617023D01*
X46839142Y-46569404D01*
X46743904Y-46521785D01*
X46553428Y-46521785D01*
X46458190Y-46569404D01*
X46410571Y-46617023D01*
X46362952Y-46712261D01*
G04 #@! TO.C,R9*
X49347380Y-47474166D02*
X48871190Y-47807500D01*
X49347380Y-48045595D02*
X48347380Y-48045595D01*
X48347380Y-47664642D01*
X48395000Y-47569404D01*
X48442619Y-47521785D01*
X48537857Y-47474166D01*
X48680714Y-47474166D01*
X48775952Y-47521785D01*
X48823571Y-47569404D01*
X48871190Y-47664642D01*
X48871190Y-48045595D01*
X49347380Y-46997976D02*
X49347380Y-46807500D01*
X49299761Y-46712261D01*
X49252142Y-46664642D01*
X49109285Y-46569404D01*
X48918809Y-46521785D01*
X48537857Y-46521785D01*
X48442619Y-46569404D01*
X48395000Y-46617023D01*
X48347380Y-46712261D01*
X48347380Y-46902738D01*
X48395000Y-46997976D01*
X48442619Y-47045595D01*
X48537857Y-47093214D01*
X48775952Y-47093214D01*
X48871190Y-47045595D01*
X48918809Y-46997976D01*
X48966428Y-46902738D01*
X48966428Y-46712261D01*
X48918809Y-46617023D01*
X48871190Y-46569404D01*
X48775952Y-46521785D01*
G04 #@! TO.C,R10*
X52379642Y-45473880D02*
X52046309Y-44997690D01*
X51808214Y-45473880D02*
X51808214Y-44473880D01*
X52189166Y-44473880D01*
X52284404Y-44521500D01*
X52332023Y-44569119D01*
X52379642Y-44664357D01*
X52379642Y-44807214D01*
X52332023Y-44902452D01*
X52284404Y-44950071D01*
X52189166Y-44997690D01*
X51808214Y-44997690D01*
X53332023Y-45473880D02*
X52760595Y-45473880D01*
X53046309Y-45473880D02*
X53046309Y-44473880D01*
X52951071Y-44616738D01*
X52855833Y-44711976D01*
X52760595Y-44759595D01*
X53951071Y-44473880D02*
X54046309Y-44473880D01*
X54141547Y-44521500D01*
X54189166Y-44569119D01*
X54236785Y-44664357D01*
X54284404Y-44854833D01*
X54284404Y-45092928D01*
X54236785Y-45283404D01*
X54189166Y-45378642D01*
X54141547Y-45426261D01*
X54046309Y-45473880D01*
X53951071Y-45473880D01*
X53855833Y-45426261D01*
X53808214Y-45378642D01*
X53760595Y-45283404D01*
X53712976Y-45092928D01*
X53712976Y-44854833D01*
X53760595Y-44664357D01*
X53808214Y-44569119D01*
X53855833Y-44521500D01*
X53951071Y-44473880D01*
G04 #@! TO.C,U1*
X54038595Y-58189880D02*
X54038595Y-58999404D01*
X54086214Y-59094642D01*
X54133833Y-59142261D01*
X54229071Y-59189880D01*
X54419547Y-59189880D01*
X54514785Y-59142261D01*
X54562404Y-59094642D01*
X54610023Y-58999404D01*
X54610023Y-58189880D01*
X55610023Y-59189880D02*
X55038595Y-59189880D01*
X55324309Y-59189880D02*
X55324309Y-58189880D01*
X55229071Y-58332738D01*
X55133833Y-58427976D01*
X55038595Y-58475595D01*
G04 #@! TO.C,U2*
X38608095Y-52482380D02*
X38608095Y-53291904D01*
X38655714Y-53387142D01*
X38703333Y-53434761D01*
X38798571Y-53482380D01*
X38989047Y-53482380D01*
X39084285Y-53434761D01*
X39131904Y-53387142D01*
X39179523Y-53291904D01*
X39179523Y-52482380D01*
X39608095Y-52577619D02*
X39655714Y-52530000D01*
X39750952Y-52482380D01*
X39989047Y-52482380D01*
X40084285Y-52530000D01*
X40131904Y-52577619D01*
X40179523Y-52672857D01*
X40179523Y-52768095D01*
X40131904Y-52910952D01*
X39560476Y-53482380D01*
X40179523Y-53482380D01*
G04 #@! TD*
M02*
